<svg width="1546" height="200" viewBox="0 0 1546 200" fill="none" xmlns="http://www.w3.org/2000/svg">
<rect width="1546" height="200" fill="white"/>
<path d="M209 109.26C209 142.58 177.66 153 139 153C100.34 153 69 142.58 69 109.26C69 75.9395 100.34 62 139 62C177.66 62 209 75.9395 209 109.26Z" fill="black"/>
<path d="M156.909 48.5257C146.433 46.7913 139.238 59.3046 138.007 68.0697L168.503 73.119C169.332 63.5235 167.384 50.2601 156.909 48.5257Z" fill="black"/>
<path d="M114.248 48.5257C124.724 46.7913 131.919 59.3046 133.15 68.0697L102.654 73.119C101.825 63.5235 103.773 50.2601 114.248 48.5257Z" fill="black"/>
<circle cx="131.5" cy="99.5" r="15.5" fill="#FFC848"/>
<ellipse cx="135.5" cy="97" rx="6.5" ry="10" fill="black"/>
<circle cx="171.5" cy="99.5" r="15.5" fill="#FFC848"/>
<ellipse cx="175.5" cy="97" rx="6.5" ry="10" fill="black"/>
<path opacity="0.7" d="M262.02 83.6211H260.477V66.2188H262.02V83.6211ZM250.242 77.9766C252.091 77.9766 253.631 77.9375 254.861 77.8594C256.092 77.7812 257.332 77.6315 258.582 77.4102L258.738 78.6992C257.462 78.9206 256.202 79.0736 254.959 79.1582C253.715 79.2428 252.143 79.2917 250.242 79.3047H248.836V77.9766H250.242ZM257.098 69.168H250.379V78.4648H248.836V67.8789H257.098V69.168ZM270.574 71.5508C270.574 72.7227 270.35 73.8945 269.9 75.0664C269.451 76.2383 268.849 77.2799 268.094 78.1914C267.339 79.1029 266.518 79.7865 265.633 80.2422L264.695 79.0312C265.529 78.6276 266.3 78.0221 267.01 77.2148C267.719 76.4076 268.289 75.5026 268.719 74.5C269.148 73.4974 269.363 72.5143 269.363 71.5508V68.6797H270.574V71.5508ZM270.867 71.5508C270.867 72.4622 271.066 73.3867 271.463 74.3242C271.86 75.2617 272.404 76.1113 273.094 76.873C273.784 77.6348 274.546 78.2109 275.379 78.6016L274.5 79.8125C273.602 79.3698 272.781 78.7155 272.039 77.8496C271.297 76.9837 270.711 75.9974 270.281 74.8906C269.852 73.7839 269.637 72.6706 269.637 71.5508V68.6797H270.867V71.5508ZM274.773 69.2852H265.32V68.0156H274.773V69.2852ZM278.426 83.582H276.902V66.2188H278.426V83.582ZM281.336 74.5586H278.074V73.25H281.336V74.5586ZM296.59 83.6211H295.047V66.2188H296.59V83.6211ZM287.352 67.5664C288.211 67.5664 288.976 67.8171 289.646 68.3184C290.317 68.8197 290.841 69.526 291.219 70.4375C291.596 71.349 291.785 72.4102 291.785 73.6211C291.785 74.832 291.596 75.8932 291.219 76.8047C290.841 77.7161 290.317 78.4193 289.646 78.9141C288.976 79.4089 288.211 79.6562 287.352 79.6562C286.492 79.6562 285.727 79.4089 285.057 78.9141C284.386 78.4193 283.862 77.7161 283.484 76.8047C283.107 75.8932 282.918 74.832 282.918 73.6211C282.918 72.4102 283.107 71.349 283.484 70.4375C283.862 69.526 284.386 68.8197 285.057 68.3184C285.727 67.8171 286.492 67.5664 287.352 67.5664ZM287.352 68.9336C286.779 68.9336 286.268 69.1289 285.818 69.5195C285.369 69.9102 285.021 70.457 284.773 71.1602C284.526 71.8633 284.402 72.6836 284.402 73.6211C284.402 74.5456 284.526 75.3626 284.773 76.0723C285.021 76.7819 285.369 77.3288 285.818 77.7129C286.268 78.097 286.779 78.2891 287.352 78.2891C287.924 78.2891 288.436 78.097 288.885 77.7129C289.334 77.3288 289.682 76.7819 289.93 76.0723C290.177 75.3626 290.301 74.5456 290.301 73.6211C290.301 72.6836 290.177 71.8633 289.93 71.1602C289.682 70.457 289.337 69.9102 288.895 69.5195C288.452 69.1289 287.938 68.9336 287.352 68.9336ZM313.973 83.6211H312.43V66.2188H313.973V83.6211ZM312.938 73.2305H307.02V71.9609H312.938V73.2305ZM302.059 78.9336H300.516V68.1719H302.059V78.9336ZM301.844 78.1133C303.354 78.1003 304.725 78.0417 305.955 77.9375C307.186 77.8333 308.426 77.6576 309.676 77.4102L309.871 78.6797C308.556 78.9401 307.267 79.1257 306.004 79.2363C304.741 79.347 303.354 79.4023 301.844 79.4023H300.516V78.1133H301.844ZM327.801 71.5508C327.801 72.7357 327.573 73.9108 327.117 75.0762C326.661 76.2415 326.053 77.2799 325.291 78.1914C324.529 79.1029 323.693 79.7865 322.781 80.2422L321.863 79.0312C322.684 78.6276 323.452 78.0254 324.168 77.2246C324.884 76.4238 325.457 75.5221 325.887 74.5195C326.316 73.5169 326.531 72.5273 326.531 71.5508V68.6797H327.801V71.5508ZM328.074 71.5508C328.074 72.5013 328.286 73.4518 328.709 74.4023C329.132 75.3529 329.705 76.196 330.428 76.9316C331.15 77.6673 331.935 78.224 332.781 78.6016L331.922 79.8125C330.984 79.3828 330.128 78.7448 329.354 77.8984C328.579 77.0521 327.967 76.0755 327.518 74.9688C327.068 73.862 326.844 72.7227 326.844 71.5508V68.6797H328.074V71.5508ZM332.215 69.2852H322.43V68.0156H332.215V69.2852ZM336.18 83.582H334.637V66.2188H336.18V83.582ZM347.918 74.9883H339.891V67.5469H347.918V74.9883ZM341.395 73.7578H346.434V68.7969H341.395V73.7578ZM352.723 76.4922H351.199V66.2188H352.723V76.4922ZM355.34 71.8438H352.293V70.5742H355.34V71.8438ZM347.156 77.0781C348.328 77.0781 349.344 77.2051 350.203 77.459C351.062 77.7129 351.723 78.084 352.186 78.5723C352.648 79.0605 352.879 79.6432 352.879 80.3203C352.879 80.9974 352.648 81.5801 352.186 82.0684C351.723 82.5566 351.066 82.9277 350.213 83.1816C349.36 83.4355 348.341 83.569 347.156 83.582C345.971 83.569 344.949 83.4355 344.09 83.1816C343.23 82.9277 342.566 82.5566 342.098 82.0684C341.629 81.5801 341.395 80.9974 341.395 80.3203C341.395 79.6432 341.629 79.0605 342.098 78.5723C342.566 78.084 343.234 77.7129 344.1 77.459C344.965 77.2051 345.984 77.0781 347.156 77.0781ZM347.156 78.3281C346.297 78.3281 345.548 78.4062 344.91 78.5625C344.272 78.7188 343.784 78.9466 343.445 79.2461C343.107 79.5456 342.938 79.9036 342.938 80.3203C342.938 80.737 343.107 81.0951 343.445 81.3945C343.784 81.694 344.269 81.9219 344.9 82.0781C345.532 82.2344 346.284 82.319 347.156 82.332C348.042 82.319 348.8 82.2344 349.432 82.0781C350.063 81.9219 350.548 81.694 350.887 81.3945C351.225 81.0951 351.395 80.737 351.395 80.3203C351.395 79.9036 351.225 79.5456 350.887 79.2461C350.548 78.9466 350.06 78.7188 349.422 78.5625C348.784 78.4062 348.029 78.3281 347.156 78.3281ZM361.375 69.6758C361.375 70.5221 361.209 71.3685 360.877 72.2148C360.545 73.0612 360.07 73.8229 359.451 74.5C358.833 75.1771 358.113 75.6914 357.293 76.043L356.453 74.8516C357.195 74.526 357.846 74.0801 358.406 73.5137C358.966 72.9473 359.396 72.3288 359.695 71.6582C359.995 70.9876 360.145 70.3268 360.145 69.6758V67.3125H361.375V69.6758ZM361.609 69.6758C361.609 70.3138 361.756 70.9421 362.049 71.5605C362.342 72.179 362.758 72.7357 363.299 73.2305C363.839 73.7253 364.467 74.1094 365.184 74.3828L364.383 75.5547C363.562 75.2292 362.85 74.7669 362.244 74.168C361.639 73.569 361.18 72.8789 360.867 72.0977C360.555 71.3164 360.398 70.5091 360.398 69.6758V67.3125H361.609V69.6758ZM371.18 76.9609H369.715V66.2383H371.18V76.9609ZM370.203 72.1758H366.883V70.9062H370.203V72.1758ZM367.41 76.4141H365.965V66.5703H367.41V76.4141ZM365.438 77.3516C366.635 77.3516 367.674 77.472 368.553 77.7129C369.432 77.9538 370.105 78.3086 370.574 78.7773C371.043 79.2461 371.277 79.806 371.277 80.457C371.277 81.0951 371.043 81.6452 370.574 82.1074C370.105 82.5697 369.432 82.9245 368.553 83.1719C367.674 83.4193 366.635 83.543 365.438 83.543C364.24 83.543 363.201 83.4193 362.322 83.1719C361.443 82.9245 360.773 82.5697 360.311 82.1074C359.848 81.6452 359.617 81.0951 359.617 80.457C359.617 79.806 359.848 79.2461 360.311 78.7773C360.773 78.3086 361.443 77.9538 362.322 77.7129C363.201 77.472 364.24 77.3516 365.438 77.3516ZM365.438 78.5234C364.565 78.5234 363.803 78.5983 363.152 78.748C362.501 78.8978 362.003 79.1191 361.658 79.4121C361.313 79.7051 361.141 80.0534 361.141 80.457C361.141 80.8477 361.313 81.1862 361.658 81.4727C362.003 81.7591 362.498 81.9772 363.143 82.127C363.787 82.2767 364.552 82.3516 365.438 82.3516C366.323 82.3516 367.088 82.2767 367.732 82.127C368.377 81.9772 368.875 81.7591 369.227 81.4727C369.578 81.1862 369.754 80.8477 369.754 80.457C369.754 80.0534 369.578 79.7051 369.227 79.4121C368.875 79.1191 368.374 78.8978 367.723 78.748C367.072 78.5983 366.31 78.5234 365.438 78.5234Z" fill="black"/>
<path d="M253.587 115.939H254.348L261.603 107.85H267.132L258.188 117.758H257.242L253.587 121.636V115.939ZM249.301 101.133H254.014V128H249.301V101.133ZM255.35 118.815L258.541 115.494L267.596 128H261.955L255.35 118.815ZM274.684 128H269.971V101.133H274.591V111.264H274.813C275.296 110.101 276.038 109.198 277.04 108.555C278.042 107.911 279.298 107.59 280.807 107.59C282.217 107.59 283.441 107.887 284.48 108.48C285.52 109.062 286.324 109.922 286.893 111.06C287.462 112.198 287.746 113.564 287.746 115.16V128H283.033V115.884C283.033 114.981 282.872 114.208 282.551 113.564C282.242 112.921 281.79 112.433 281.196 112.099C280.603 111.752 279.885 111.579 279.044 111.579C278.19 111.579 277.436 111.758 276.78 112.117C276.137 112.476 275.624 113.008 275.24 113.713C274.869 114.406 274.684 115.228 274.684 116.181V128ZM290.752 107.85H295.576L299.139 122.044H299.324L302.942 107.85H307.711L311.348 121.97H311.533L315.04 107.85H319.864L314.149 128H309.232L305.429 114.362H305.169L301.402 128H296.467L290.752 107.85ZM335.061 118.76H322.963V114.863H335.061V118.76ZM347.214 128.353C345.631 128.353 344.208 127.944 342.946 127.128C341.685 126.299 340.689 125.099 339.959 123.528C339.242 121.957 338.883 120.096 338.883 117.943C338.883 115.766 339.248 113.898 339.978 112.34C340.707 110.769 341.703 109.588 342.965 108.796C344.227 107.992 345.643 107.59 347.214 107.59C348.327 107.59 349.267 107.775 350.034 108.146C350.801 108.505 351.395 108.932 351.815 109.427C352.236 109.922 352.626 110.503 352.984 111.171H353.151V101.133H357.901V128H353.263V124.827H352.984C352.613 125.495 352.211 126.07 351.778 126.553C351.358 127.023 350.764 127.443 349.997 127.814C349.23 128.173 348.302 128.353 347.214 128.353ZM348.494 124.475C349.508 124.475 350.374 124.202 351.092 123.658C351.809 123.114 352.354 122.347 352.725 121.357C353.108 120.355 353.3 119.205 353.3 117.906C353.3 116.595 353.114 115.457 352.743 114.492C352.372 113.527 351.828 112.785 351.11 112.266C350.393 111.734 349.521 111.468 348.494 111.468C347.48 111.468 346.614 111.74 345.896 112.284C345.179 112.816 344.635 113.571 344.264 114.548C343.893 115.525 343.707 116.645 343.707 117.906C343.707 119.193 343.893 120.331 344.264 121.32C344.635 122.298 345.179 123.071 345.896 123.64C346.614 124.196 347.48 124.475 348.494 124.475ZM371.613 128.39C369.622 128.39 367.89 127.969 366.418 127.128C364.946 126.287 363.808 125.087 363.004 123.528C362.212 121.97 361.816 120.145 361.816 118.055C361.816 115.989 362.212 114.164 363.004 112.581C363.808 110.985 364.927 109.755 366.362 108.889C367.797 108.023 369.467 107.59 371.372 107.59C373.091 107.59 374.644 107.955 376.029 108.685C377.415 109.414 378.516 110.546 379.332 112.08C380.148 113.602 380.557 115.488 380.557 117.739V119.224H364.062V116.014H376.029C376.029 115.098 375.838 114.282 375.454 113.564C375.071 112.847 374.526 112.284 373.821 111.876C373.129 111.468 372.331 111.264 371.428 111.264C370.463 111.264 369.609 111.493 368.867 111.95C368.125 112.408 367.544 113.026 367.123 113.806C366.715 114.573 366.505 115.414 366.492 116.329V119.075C366.492 120.25 366.702 121.265 367.123 122.118C367.556 122.959 368.162 123.603 368.941 124.048C369.721 124.493 370.63 124.716 371.669 124.716C372.337 124.716 372.937 124.623 373.469 124.438C374.013 124.252 374.477 124.011 374.86 123.714C375.244 123.405 375.535 123.04 375.732 122.619H380.371C380.087 123.77 379.549 124.784 378.757 125.662C377.978 126.528 376.976 127.202 375.751 127.685C374.526 128.155 373.147 128.39 371.613 128.39ZM394.454 128H389.222L382.06 107.85H387.106L391.745 122.842H391.968L396.606 107.85H401.653L394.454 128Z" fill="black"/>
<path d="M1326.67 65.6666H1313.33C1309.65 65.6666 1306.67 68.6514 1306.67 72.3333V85.6666C1306.67 89.3485 1309.65 92.3333 1313.33 92.3333H1326.67C1330.35 92.3333 1333.33 89.3485 1333.33 85.6666V72.3333C1333.33 68.6514 1330.35 65.6666 1326.67 65.6666Z" stroke="black" stroke-width="2" stroke-linecap="round" stroke-linejoin="round"/>
<path d="M1327.33 71.6666H1327.35M1325.33 78.16C1325.5 79.2696 1325.31 80.4029 1324.79 81.3986C1324.28 82.3944 1323.46 83.2018 1322.46 83.7062C1321.45 84.2105 1320.32 84.3861 1319.21 84.2079C1318.1 84.0297 1317.08 83.5067 1316.29 82.7135C1315.49 81.9203 1314.97 80.8971 1314.79 79.7896C1314.61 78.682 1314.79 77.5465 1315.29 76.5445C1315.8 75.5424 1316.61 74.7249 1317.6 74.2083C1318.6 73.6916 1319.73 73.5021 1320.84 73.6666C1321.97 73.8345 1323.02 74.3619 1323.83 75.171C1324.64 75.9802 1325.17 77.0281 1325.33 78.16Z" stroke="black" stroke-width="2" stroke-linecap="round" stroke-linejoin="round"/>
<path d="M1010 133.333V128C1010.19 126.33 1009.71 124.653 1008.67 123.333C1012.67 123.333 1016.67 120.667 1016.67 116C1016.77 114.333 1016.31 112.693 1015.33 111.333C1015.71 109.8 1015.71 108.2 1015.33 106.667C1015.33 106.667 1014 106.667 1011.33 108.667C1007.81 108 1004.19 108 1000.67 108.667C998 106.667 996.667 106.667 996.667 106.667C996.267 108.2 996.267 109.8 996.667 111.333C995.696 112.688 995.224 114.337 995.333 116C995.333 120.667 999.333 123.333 1003.33 123.333C1002.81 123.987 1002.43 124.733 1002.2 125.533C1001.97 126.333 1001.91 127.173 1002 128V133.333" stroke="black" stroke-width="2" stroke-linecap="round" stroke-linejoin="round"/>
<path d="M1002 128C995.987 130.667 995.333 125.333 992.667 125.333" stroke="black" stroke-width="2" stroke-linecap="round" stroke-linejoin="round"/>
<path d="M1333.33 113.333L1321.35 120.969C1320.94 121.206 1320.48 121.33 1320.01 121.33C1319.54 121.33 1319.07 121.206 1318.67 120.969L1306.67 113.333" stroke="black" stroke-width="2" stroke-linecap="round" stroke-linejoin="round"/>
<path d="M1330.67 109.333H1309.33C1307.86 109.333 1306.67 110.527 1306.67 112V128C1306.67 129.473 1307.86 130.667 1309.33 130.667H1330.67C1332.14 130.667 1333.33 129.473 1333.33 128V112C1333.33 110.527 1332.14 109.333 1330.67 109.333Z" stroke="black" stroke-width="2" stroke-linecap="round" stroke-linejoin="round"/>
<path d="M1006 92.3333C1013.36 92.3333 1019.33 86.3638 1019.33 79C1019.33 71.6362 1013.36 65.6666 1006 65.6666C998.636 65.6666 992.667 71.6362 992.667 79C992.667 86.3638 998.636 92.3333 1006 92.3333Z" stroke="black" stroke-width="2" stroke-linecap="round" stroke-linejoin="round"/>
<path d="M992.667 79H1019.33M1006 65.6666C1002.58 69.2615 1000.67 74.0356 1000.67 79C1000.67 83.9643 1002.58 88.7384 1006 92.3333C1009.42 88.7384 1011.33 83.9643 1011.33 79C1011.33 74.0356 1009.42 69.2615 1006 65.6666Z" stroke="black" stroke-width="2" stroke-linecap="round" stroke-linejoin="round"/>
<g opacity="0.7">
<path d="M1036.72 85H1035.21V72.2734H1036.72V76.9492H1036.85C1037.08 76.4336 1037.43 76.0352 1037.88 75.7539C1038.34 75.4727 1038.93 75.332 1039.66 75.332C1040.33 75.332 1040.91 75.4639 1041.39 75.7275C1041.88 75.9912 1042.25 76.3926 1042.52 76.9316C1042.78 77.4707 1042.91 78.1387 1042.91 78.9355V85H1041.4V79.041C1041.4 78.5488 1041.31 78.124 1041.14 77.7666C1040.96 77.4092 1040.71 77.1396 1040.38 76.958C1040.05 76.7764 1039.66 76.6855 1039.2 76.6855C1038.72 76.6855 1038.3 76.7852 1037.93 76.9844C1037.56 77.1836 1037.27 77.4795 1037.05 77.8721C1036.83 78.2646 1036.72 78.7305 1036.72 79.2695V85ZM1049.5 76.7207H1044.53V75.4551H1049.5V76.7207ZM1047.5 73.1699V82.2578C1047.5 82.6445 1047.56 82.9404 1047.67 83.1455C1047.78 83.3506 1047.92 83.4912 1048.11 83.5674C1048.29 83.6436 1048.5 83.6816 1048.75 83.6816C1049.04 83.6816 1049.34 83.6699 1049.64 83.6465V85.0527C1049.34 85.0996 1048.99 85.123 1048.59 85.123C1048.14 85.123 1047.72 85.0293 1047.32 84.8418C1046.93 84.6543 1046.6 84.373 1046.35 83.998C1046.1 83.623 1045.97 83.1719 1045.97 82.6445V73.1699H1047.5ZM1055.62 76.7207H1050.65V75.4551H1055.62V76.7207ZM1053.62 73.1699V82.2578C1053.62 82.6445 1053.67 82.9404 1053.78 83.1455C1053.9 83.3506 1054.04 83.4912 1054.22 83.5674C1054.41 83.6436 1054.62 83.6816 1054.87 83.6816C1055.16 83.6816 1055.46 83.6699 1055.76 83.6465V85.0527C1055.46 85.0996 1055.11 85.123 1054.71 85.123C1054.26 85.123 1053.84 85.0293 1053.44 84.8418C1053.04 84.6543 1052.72 84.373 1052.47 83.998C1052.21 83.623 1052.09 83.1719 1052.09 82.6445V73.1699H1053.62ZM1057.57 75.4551H1059.03V76.9668H1059.21C1059.39 76.6621 1059.58 76.4043 1059.75 76.1934C1059.93 75.9824 1060.2 75.7861 1060.57 75.6045C1060.94 75.4229 1061.4 75.332 1061.97 75.332C1062.76 75.332 1063.47 75.5312 1064.08 75.9297C1064.7 76.3281 1065.18 76.8994 1065.52 77.6436C1065.86 78.3877 1066.03 79.2578 1066.03 80.2539C1066.03 81.2383 1065.86 82.1055 1065.52 82.8555C1065.18 83.6055 1064.7 84.1826 1064.08 84.5869C1063.47 84.9912 1062.77 85.1934 1061.98 85.1934C1061.43 85.1934 1060.97 85.0996 1060.6 84.9121C1060.22 84.7246 1059.94 84.5225 1059.75 84.3057C1059.56 84.0889 1059.38 83.834 1059.21 83.541H1059.08V88.5859H1057.57V75.4551ZM1059.05 80.2188C1059.05 80.9336 1059.15 81.5635 1059.37 82.1084C1059.58 82.6533 1059.89 83.0781 1060.3 83.3828C1060.71 83.6875 1061.2 83.8398 1061.77 83.8398C1062.36 83.8398 1062.86 83.6816 1063.28 83.3652C1063.69 83.0488 1064 82.6182 1064.21 82.0732C1064.41 81.5283 1064.52 80.9102 1064.52 80.2188C1064.52 79.5391 1064.41 78.9326 1064.21 78.3994C1064 77.8662 1063.7 77.4473 1063.29 77.1426C1062.88 76.8379 1062.37 76.6855 1061.77 76.6855C1061.19 76.6855 1060.69 76.832 1060.29 77.125C1059.88 77.418 1059.58 77.8281 1059.37 78.3555C1059.15 78.8828 1059.05 79.5039 1059.05 80.2188ZM1073.3 77.9336C1073.2 77.5117 1072.99 77.1865 1072.66 76.958C1072.34 76.7295 1071.91 76.6152 1071.37 76.6152C1070.98 76.6152 1070.64 76.6768 1070.33 76.7998C1070.03 76.9229 1069.79 77.0957 1069.61 77.3184C1069.44 77.541 1069.35 77.7871 1069.35 78.0566C1069.35 78.373 1069.48 78.6426 1069.75 78.8652C1070.02 79.0879 1070.43 79.2637 1070.98 79.3926L1072.41 79.7441C1073.26 79.9434 1073.9 80.2568 1074.32 80.6846C1074.75 81.1123 1074.96 81.6602 1074.96 82.3281C1074.96 82.8789 1074.81 83.3711 1074.52 83.8047C1074.22 84.2383 1073.8 84.5781 1073.23 84.8242C1072.67 85.0703 1072 85.1934 1071.21 85.1934C1070.5 85.1934 1069.88 85.0908 1069.37 84.8857C1068.85 84.6807 1068.44 84.376 1068.13 83.9717C1067.82 83.5674 1067.62 83.0781 1067.54 82.5039H1069.12C1069.21 82.9609 1069.43 83.3037 1069.77 83.5322C1070.11 83.7607 1070.58 83.875 1071.18 83.875C1071.62 83.875 1072.01 83.8164 1072.35 83.6992C1072.68 83.582 1072.94 83.4121 1073.12 83.1895C1073.3 82.9668 1073.39 82.709 1073.39 82.416C1073.39 82.0762 1073.27 81.792 1073.01 81.5635C1072.76 81.335 1072.37 81.1621 1071.83 81.0449L1070.39 80.7109C1069.55 80.5117 1068.92 80.1924 1068.49 79.7529C1068.05 79.3135 1067.84 78.7773 1067.84 78.1445C1067.84 77.6055 1067.99 77.1221 1068.29 76.6943C1068.58 76.2666 1069 75.9326 1069.53 75.6924C1070.07 75.4521 1070.68 75.332 1071.37 75.332C1072.02 75.332 1072.58 75.4404 1073.08 75.6572C1073.57 75.874 1073.96 76.1787 1074.25 76.5713C1074.55 76.9639 1074.72 77.418 1074.78 77.9336H1073.3ZM1078 85.1055C1077.8 85.1055 1077.61 85.0527 1077.44 84.9473C1077.26 84.8418 1077.12 84.7012 1077.02 84.5254C1076.92 84.3496 1076.87 84.1621 1076.87 83.9629C1076.87 83.7637 1076.92 83.5762 1077.02 83.4004C1077.12 83.2246 1077.26 83.0869 1077.44 82.9873C1077.61 82.8877 1077.8 82.8379 1078 82.8379C1078.2 82.8379 1078.38 82.8877 1078.56 82.9873C1078.74 83.0869 1078.87 83.2246 1078.97 83.4004C1079.07 83.5762 1079.12 83.7637 1079.12 83.9629C1079.12 84.1621 1079.07 84.3496 1078.97 84.5254C1078.87 84.7012 1078.74 84.8418 1078.56 84.9473C1078.38 85.0527 1078.2 85.1055 1078 85.1055ZM1078 78.0391C1077.8 78.0391 1077.61 77.9863 1077.44 77.8809C1077.26 77.7754 1077.12 77.6348 1077.02 77.459C1076.92 77.2832 1076.87 77.0957 1076.87 76.8965C1076.87 76.6973 1076.92 76.5098 1077.02 76.334C1077.12 76.1582 1077.26 76.0205 1077.44 75.9209C1077.61 75.8213 1077.8 75.7715 1078 75.7715C1078.2 75.7715 1078.38 75.8213 1078.56 75.9209C1078.74 76.0205 1078.87 76.1582 1078.97 76.334C1079.07 76.5098 1079.12 76.6973 1079.12 76.8965C1079.12 77.0957 1079.07 77.2832 1078.97 77.459C1078.87 77.6348 1078.74 77.7754 1078.56 77.8809C1078.38 77.9863 1078.2 78.0391 1078 78.0391ZM1081.92 86.916H1080.55L1084.64 71.6758H1086.03L1081.92 86.916ZM1087.93 86.916H1086.56L1090.65 71.6758H1092.04L1087.93 86.916ZM1094.91 79.6738H1095.21L1099.34 75.4551H1101.2L1096.75 79.9727H1096.61L1094.93 81.5371L1094.91 79.6738ZM1093.52 72.2734H1095.03V85H1093.52V72.2734ZM1095.89 80.3066L1096.95 79.252L1101.5 85H1099.58L1095.89 80.3066ZM1104.33 85H1102.82V72.2734H1104.33V76.9492H1104.45C1104.69 76.4336 1105.03 76.0352 1105.49 75.7539C1105.95 75.4727 1106.54 75.332 1107.27 75.332C1107.93 75.332 1108.51 75.4639 1109 75.7275C1109.48 75.9912 1109.86 76.3926 1110.12 76.9316C1110.39 77.4707 1110.52 78.1387 1110.52 78.9355V85H1109.01V79.041C1109.01 78.5488 1108.92 78.124 1108.74 77.7666C1108.57 77.4092 1108.31 77.1396 1107.99 76.958C1107.66 76.7764 1107.27 76.6855 1106.81 76.6855C1106.33 76.6855 1105.9 76.7852 1105.53 76.9844C1105.17 77.1836 1104.87 77.4795 1104.66 77.8721C1104.44 78.2646 1104.33 78.7305 1104.33 79.2695V85ZM1112.19 75.4551H1113.79L1115.83 82.7324H1115.91L1117.94 75.4551H1119.55L1121.54 82.6973H1121.64L1123.68 75.4551H1125.27L1122.37 85H1120.87L1118.8 77.7227H1118.66L1116.6 85H1115.09L1112.19 75.4551ZM1126.72 85.1055C1126.53 85.1055 1126.34 85.0527 1126.16 84.9473C1125.99 84.8418 1125.85 84.7012 1125.75 84.5254C1125.65 84.3496 1125.6 84.1621 1125.6 83.9629C1125.6 83.7637 1125.65 83.5762 1125.75 83.4004C1125.85 83.2246 1125.99 83.0869 1126.16 82.9873C1126.34 82.8877 1126.53 82.8379 1126.72 82.8379C1126.92 82.8379 1127.11 82.8877 1127.29 82.9873C1127.46 83.0869 1127.6 83.2246 1127.7 83.4004C1127.8 83.5762 1127.85 83.7637 1127.85 83.9629C1127.85 84.1621 1127.8 84.3496 1127.7 84.5254C1127.6 84.7012 1127.46 84.8418 1127.29 84.9473C1127.11 85.0527 1126.92 85.1055 1126.72 85.1055ZM1133.83 85.1934C1133.04 85.1934 1132.34 84.9912 1131.73 84.5869C1131.11 84.1826 1130.63 83.6055 1130.28 82.8555C1129.94 82.1055 1129.77 81.2383 1129.77 80.2539C1129.77 79.2578 1129.94 78.3877 1130.28 77.6436C1130.63 76.8994 1131.11 76.3281 1131.73 75.9297C1132.34 75.5312 1133.05 75.332 1133.84 75.332C1134.41 75.332 1134.87 75.4229 1135.24 75.6045C1135.61 75.7861 1135.88 75.9824 1136.06 76.1934C1136.23 76.4043 1136.42 76.6621 1136.6 76.9668H1136.71V72.2734H1138.24V85H1136.76V83.541H1136.6C1136.4 83.8457 1136.22 84.1035 1136.04 84.3145C1135.87 84.5254 1135.59 84.7246 1135.22 84.9121C1134.85 85.0996 1134.39 85.1934 1133.83 85.1934ZM1134.04 83.8398C1134.61 83.8398 1135.1 83.6875 1135.51 83.3828C1135.92 83.0781 1136.23 82.6533 1136.45 82.1084C1136.66 81.5635 1136.76 80.9336 1136.76 80.2188C1136.76 79.5039 1136.66 78.8828 1136.45 78.3555C1136.25 77.8281 1135.94 77.418 1135.53 77.125C1135.12 76.832 1134.62 76.6855 1134.04 76.6855C1133.45 76.6855 1132.95 76.8379 1132.54 77.1426C1132.13 77.4473 1131.82 77.8662 1131.61 78.3994C1131.4 78.9326 1131.29 79.5391 1131.29 80.2188C1131.29 80.9102 1131.4 81.5283 1131.61 82.0732C1131.82 82.6182 1132.13 83.0488 1132.54 83.3652C1132.95 83.6816 1133.45 83.8398 1134.04 83.8398ZM1144.87 85.1934C1143.96 85.1934 1143.17 84.9912 1142.5 84.5869C1141.83 84.1826 1141.31 83.6113 1140.95 82.873C1140.58 82.1348 1140.4 81.2793 1140.4 80.3066C1140.4 79.334 1140.58 78.4697 1140.95 77.7139C1141.31 76.958 1141.82 76.3721 1142.47 75.9561C1143.12 75.54 1143.87 75.332 1144.72 75.332C1145.45 75.332 1146.12 75.4902 1146.75 75.8066C1147.37 76.123 1147.87 76.6387 1148.26 77.3535C1148.64 78.0684 1148.84 78.9824 1148.84 80.0957V80.7285H1141.46V79.4453H1147.31C1147.31 78.9062 1147.2 78.4287 1146.99 78.0127C1146.78 77.5967 1146.48 77.2686 1146.09 77.0283C1145.69 76.7881 1145.24 76.668 1144.72 76.668C1144.16 76.668 1143.67 76.8057 1143.25 77.0811C1142.83 77.3564 1142.5 77.7256 1142.26 78.1885C1142.03 78.6514 1141.91 79.1465 1141.91 79.6738V80.5352C1141.91 81.2383 1142.04 81.8389 1142.28 82.3369C1142.53 82.835 1142.87 83.2129 1143.32 83.4707C1143.76 83.7285 1144.28 83.8574 1144.87 83.8574C1145.23 83.8574 1145.56 83.8076 1145.85 83.708C1146.14 83.6084 1146.39 83.4795 1146.6 83.3213C1146.8 83.1631 1146.96 82.9785 1147.08 82.7676H1148.7C1148.54 83.248 1148.29 83.6699 1147.94 84.0332C1147.59 84.3965 1147.15 84.6807 1146.62 84.8857C1146.1 85.0908 1145.51 85.1934 1144.87 85.1934ZM1154.83 85H1153.27L1149.75 75.4551H1151.4L1154.01 83.0312H1154.11L1156.71 75.4551H1158.37L1154.83 85Z" fill="black"/>
<path d="M1034 87.874H1056.35V89.0957H1034V87.874ZM1060.31 87.874H1158.82V89.0957H1060.31V87.874Z" fill="black"/>
</g>
<a href="https://khw.dev">
<rect fill="black" fill-opacity="0" y="-0.240234" width="124.822" height="21.4805"/>
</a>
<g opacity="0.7">
<path d="M1355.51 83.3301C1354.92 83.3301 1354.4 83.1777 1353.94 82.873C1353.48 82.5684 1353.12 82.1377 1352.86 81.5811C1352.6 81.0244 1352.46 80.3711 1352.46 79.6211C1352.46 78.8828 1352.6 78.2324 1352.86 77.6699C1353.12 77.1074 1353.49 76.6768 1353.95 76.3779C1354.41 76.0791 1354.94 75.9297 1355.52 75.9297C1355.91 75.9297 1356.24 75.9971 1356.52 76.1318C1356.79 76.2666 1357.01 76.4219 1357.16 76.5977C1357.31 76.7734 1357.43 76.9551 1357.53 77.1426H1357.62V76.0703H1358.95V81.959H1357.62C1357.5 82.1699 1357.37 82.3721 1357.22 82.5654C1357.07 82.7588 1356.86 82.9346 1356.57 83.0928C1356.28 83.251 1355.93 83.3301 1355.51 83.3301ZM1355.73 82.0469C1356.14 82.0469 1356.49 81.9443 1356.77 81.7393C1357.05 81.5342 1357.27 81.25 1357.41 80.8867C1357.56 80.5234 1357.63 80.0957 1357.63 79.6035C1357.63 79.123 1357.56 78.7012 1357.41 78.3379C1357.27 77.9746 1357.05 77.6963 1356.77 77.5029C1356.49 77.3096 1356.14 77.2129 1355.73 77.2129C1355.34 77.2129 1354.99 77.3154 1354.71 77.5205C1354.42 77.7256 1354.2 78.0098 1354.06 78.373C1353.91 78.7363 1353.84 79.1465 1353.84 79.6035C1353.84 80.0605 1353.91 80.4736 1354.06 80.8428C1354.22 81.2119 1354.44 81.5049 1354.72 81.7217C1355.01 81.9385 1355.35 82.0469 1355.73 82.0469ZM1355.84 86.8281C1354.42 86.8281 1353.19 86.5381 1352.15 85.958C1351.11 85.3779 1350.31 84.5459 1349.75 83.4619C1349.19 82.3779 1348.91 81.0977 1348.91 79.6211C1348.91 78.25 1349.21 77.0195 1349.81 75.9297C1350.41 74.8398 1351.24 73.9844 1352.3 73.3633C1353.36 72.7422 1354.56 72.4316 1355.91 72.4316C1357.29 72.4316 1358.51 72.7188 1359.58 73.293C1360.64 73.8672 1361.46 74.6611 1362.05 75.6748C1362.65 76.6885 1362.94 77.8223 1362.92 79.0762C1362.92 79.9551 1362.79 80.7227 1362.51 81.3789C1362.24 82.0352 1361.85 82.5361 1361.37 82.8818C1360.88 83.2275 1360.34 83.4004 1359.74 83.4004C1359.37 83.4004 1359.02 83.3301 1358.71 83.1895C1358.4 83.0488 1358.16 82.8584 1357.98 82.6182C1357.81 82.3779 1357.72 82.1172 1357.72 81.8359L1358.95 81.2031C1358.96 81.543 1359.04 81.7979 1359.19 81.9678C1359.33 82.1377 1359.55 82.2227 1359.83 82.2227C1360.19 82.2227 1360.51 82.0908 1360.79 81.8271C1361.06 81.5635 1361.28 81.1973 1361.43 80.7285C1361.58 80.2598 1361.66 79.7266 1361.66 79.1289C1361.67 78.0391 1361.43 77.0781 1360.94 76.2461C1360.45 75.4141 1359.76 74.7725 1358.89 74.3213C1358.02 73.8701 1357.02 73.6445 1355.91 73.6445C1354.79 73.6445 1353.79 73.9111 1352.91 74.4443C1352.04 74.9775 1351.37 75.7012 1350.89 76.6152C1350.42 77.5293 1350.18 78.5312 1350.18 79.6211C1350.18 80.8164 1350.4 81.8682 1350.83 82.7764C1351.26 83.6846 1351.91 84.3877 1352.75 84.8857C1353.6 85.3838 1354.63 85.627 1355.84 85.6152C1356.5 85.6035 1357.05 85.5713 1357.51 85.5186C1357.97 85.4658 1358.45 85.3691 1358.95 85.2285V86.4238C1358.47 86.5527 1357.97 86.6523 1357.46 86.7227C1356.94 86.793 1356.4 86.8281 1355.84 86.8281ZM1366.44 79.6738H1366.74L1370.87 75.4551H1372.73L1368.29 79.9727H1368.14L1366.46 81.5371L1366.44 79.6738ZM1365.05 72.2734H1366.56V85H1365.05V72.2734ZM1367.42 80.3066L1368.48 79.252L1373.03 85H1371.12L1367.42 80.3066ZM1375.86 85H1374.35V72.2734H1375.86V76.9492H1375.98C1376.22 76.4336 1376.56 76.0352 1377.02 75.7539C1377.48 75.4727 1378.07 75.332 1378.8 75.332C1379.46 75.332 1380.04 75.4639 1380.53 75.7275C1381.01 75.9912 1381.39 76.3926 1381.65 76.9316C1381.92 77.4707 1382.05 78.1387 1382.05 78.9355V85H1380.54V79.041C1380.54 78.5488 1380.45 78.124 1380.27 77.7666C1380.1 77.4092 1379.85 77.1396 1379.52 76.958C1379.19 76.7764 1378.8 76.6855 1378.34 76.6855C1377.86 76.6855 1377.43 76.7852 1377.07 76.9844C1376.7 77.1836 1376.4 77.4795 1376.19 77.8721C1375.97 78.2646 1375.86 78.7305 1375.86 79.2695V85ZM1383.72 75.4551H1385.32L1387.36 82.7324H1387.45L1389.47 75.4551H1391.08L1393.07 82.6973H1393.18L1395.21 75.4551H1396.8L1393.9 85H1392.4L1390.33 77.7227H1390.19L1388.13 85H1386.62L1383.72 75.4551ZM1398.26 85.1055C1398.06 85.1055 1397.87 85.0527 1397.69 84.9473C1397.52 84.8418 1397.38 84.7012 1397.28 84.5254C1397.18 84.3496 1397.13 84.1621 1397.13 83.9629C1397.13 83.7637 1397.18 83.5762 1397.28 83.4004C1397.38 83.2246 1397.52 83.0869 1397.69 82.9873C1397.87 82.8877 1398.06 82.8379 1398.26 82.8379C1398.46 82.8379 1398.64 82.8877 1398.82 82.9873C1398.99 83.0869 1399.13 83.2246 1399.23 83.4004C1399.33 83.5762 1399.38 83.7637 1399.38 83.9629C1399.38 84.1621 1399.33 84.3496 1399.23 84.5254C1399.13 84.7012 1398.99 84.8418 1398.82 84.9473C1398.64 85.0527 1398.46 85.1055 1398.26 85.1055ZM1405.36 85.1934C1404.57 85.1934 1403.87 84.9912 1403.26 84.5869C1402.64 84.1826 1402.16 83.6055 1401.82 82.8555C1401.47 82.1055 1401.3 81.2383 1401.3 80.2539C1401.3 79.2578 1401.47 78.3877 1401.82 77.6436C1402.16 76.8994 1402.64 76.3281 1403.26 75.9297C1403.87 75.5312 1404.58 75.332 1405.38 75.332C1405.94 75.332 1406.4 75.4229 1406.77 75.6045C1407.14 75.7861 1407.41 75.9824 1407.59 76.1934C1407.77 76.4043 1407.95 76.6621 1408.13 76.9668H1408.24V72.2734H1409.77V85H1408.29V83.541H1408.13C1407.94 83.8457 1407.75 84.1035 1407.57 84.3145C1407.4 84.5254 1407.12 84.7246 1406.75 84.9121C1406.39 85.0996 1405.92 85.1934 1405.36 85.1934ZM1405.57 83.8398C1406.14 83.8398 1406.63 83.6875 1407.04 83.3828C1407.46 83.0781 1407.77 82.6533 1407.98 82.1084C1408.19 81.5635 1408.29 80.9336 1408.29 80.2188C1408.29 79.5039 1408.19 78.8828 1407.99 78.3555C1407.78 77.8281 1407.47 77.418 1407.06 77.125C1406.65 76.832 1406.15 76.6855 1405.57 76.6855C1404.98 76.6855 1404.48 76.8379 1404.07 77.1426C1403.66 77.4473 1403.35 77.8662 1403.14 78.3994C1402.93 78.9326 1402.83 79.5391 1402.83 80.2188C1402.83 80.9102 1402.93 81.5283 1403.14 82.0732C1403.35 82.6182 1403.66 83.0488 1404.07 83.3652C1404.48 83.6816 1404.98 83.8398 1405.57 83.8398ZM1416.4 85.1934C1415.49 85.1934 1414.71 84.9912 1414.03 84.5869C1413.36 84.1826 1412.84 83.6113 1412.48 82.873C1412.11 82.1348 1411.93 81.2793 1411.93 80.3066C1411.93 79.334 1412.11 78.4697 1412.48 77.7139C1412.84 76.958 1413.35 76.3721 1414 75.9561C1414.65 75.54 1415.4 75.332 1416.26 75.332C1416.98 75.332 1417.66 75.4902 1418.28 75.8066C1418.9 76.123 1419.4 76.6387 1419.79 77.3535C1420.18 78.0684 1420.37 78.9824 1420.37 80.0957V80.7285H1412.99V79.4453H1418.84C1418.84 78.9062 1418.73 78.4287 1418.52 78.0127C1418.31 77.5967 1418.01 77.2686 1417.62 77.0283C1417.23 76.7881 1416.77 76.668 1416.26 76.668C1415.69 76.668 1415.2 76.8057 1414.78 77.0811C1414.36 77.3564 1414.03 77.7256 1413.79 78.1885C1413.56 78.6514 1413.44 79.1465 1413.44 79.6738V80.5352C1413.44 81.2383 1413.57 81.8389 1413.81 82.3369C1414.06 82.835 1414.4 83.2129 1414.85 83.4707C1415.29 83.7285 1415.81 83.8574 1416.4 83.8574C1416.76 83.8574 1417.09 83.8076 1417.38 83.708C1417.67 83.6084 1417.92 83.4795 1418.13 83.3213C1418.33 83.1631 1418.49 82.9785 1418.61 82.7676H1420.23C1420.08 83.248 1419.82 83.6699 1419.47 84.0332C1419.12 84.3965 1418.68 84.6807 1418.15 84.8857C1417.63 85.0908 1417.04 85.1934 1416.4 85.1934ZM1426.36 85H1424.8L1421.28 75.4551H1422.94L1425.54 83.0312H1425.64L1428.24 75.4551H1429.9L1426.36 85Z" fill="black"/>
<path d="M1348 87.874H1430.35V89.0957H1348V87.874Z" fill="black"/>
</g>
<a href="https://www.instagram.com/khw.dev/">
<rect fill="black" fill-opacity="0" y="-0.240234" width="82.3535" height="21.4805"/>
</a>
<g opacity="0.7">
<path d="M1036.72 126H1035.21V113.273H1036.72V117.949H1036.85C1037.08 117.434 1037.43 117.035 1037.88 116.754C1038.34 116.473 1038.93 116.332 1039.66 116.332C1040.33 116.332 1040.91 116.464 1041.39 116.728C1041.88 116.991 1042.25 117.393 1042.52 117.932C1042.78 118.471 1042.91 119.139 1042.91 119.936V126H1041.4V120.041C1041.4 119.549 1041.31 119.124 1041.14 118.767C1040.96 118.409 1040.71 118.14 1040.38 117.958C1040.05 117.776 1039.66 117.686 1039.2 117.686C1038.72 117.686 1038.3 117.785 1037.93 117.984C1037.56 118.184 1037.27 118.479 1037.05 118.872C1036.83 119.265 1036.72 119.73 1036.72 120.27V126ZM1049.5 117.721H1044.53V116.455H1049.5V117.721ZM1047.5 114.17V123.258C1047.5 123.645 1047.56 123.94 1047.67 124.146C1047.78 124.351 1047.92 124.491 1048.11 124.567C1048.29 124.644 1048.5 124.682 1048.75 124.682C1049.04 124.682 1049.34 124.67 1049.64 124.646V126.053C1049.34 126.1 1048.99 126.123 1048.59 126.123C1048.14 126.123 1047.72 126.029 1047.32 125.842C1046.93 125.654 1046.6 125.373 1046.35 124.998C1046.1 124.623 1045.97 124.172 1045.97 123.645V114.17H1047.5ZM1055.62 117.721H1050.65V116.455H1055.62V117.721ZM1053.62 114.17V123.258C1053.62 123.645 1053.67 123.94 1053.78 124.146C1053.9 124.351 1054.04 124.491 1054.22 124.567C1054.41 124.644 1054.62 124.682 1054.87 124.682C1055.16 124.682 1055.46 124.67 1055.76 124.646V126.053C1055.46 126.1 1055.11 126.123 1054.71 126.123C1054.26 126.123 1053.84 126.029 1053.44 125.842C1053.04 125.654 1052.72 125.373 1052.47 124.998C1052.21 124.623 1052.09 124.172 1052.09 123.645V114.17H1053.62ZM1057.57 116.455H1059.03V117.967H1059.21C1059.39 117.662 1059.58 117.404 1059.75 117.193C1059.93 116.982 1060.2 116.786 1060.57 116.604C1060.94 116.423 1061.4 116.332 1061.97 116.332C1062.76 116.332 1063.47 116.531 1064.08 116.93C1064.7 117.328 1065.18 117.899 1065.52 118.644C1065.86 119.388 1066.03 120.258 1066.03 121.254C1066.03 122.238 1065.86 123.105 1065.52 123.855C1065.18 124.605 1064.7 125.183 1064.08 125.587C1063.47 125.991 1062.77 126.193 1061.98 126.193C1061.43 126.193 1060.97 126.1 1060.6 125.912C1060.22 125.725 1059.94 125.522 1059.75 125.306C1059.56 125.089 1059.38 124.834 1059.21 124.541H1059.08V129.586H1057.57V116.455ZM1059.05 121.219C1059.05 121.934 1059.15 122.563 1059.37 123.108C1059.58 123.653 1059.89 124.078 1060.3 124.383C1060.71 124.688 1061.2 124.84 1061.77 124.84C1062.36 124.84 1062.86 124.682 1063.28 124.365C1063.69 124.049 1064 123.618 1064.21 123.073C1064.41 122.528 1064.52 121.91 1064.52 121.219C1064.52 120.539 1064.41 119.933 1064.21 119.399C1064 118.866 1063.7 118.447 1063.29 118.143C1062.88 117.838 1062.37 117.686 1061.77 117.686C1061.19 117.686 1060.69 117.832 1060.29 118.125C1059.88 118.418 1059.58 118.828 1059.37 119.355C1059.15 119.883 1059.05 120.504 1059.05 121.219ZM1073.3 118.934C1073.2 118.512 1072.99 118.187 1072.66 117.958C1072.34 117.729 1071.91 117.615 1071.37 117.615C1070.98 117.615 1070.64 117.677 1070.33 117.8C1070.03 117.923 1069.79 118.096 1069.61 118.318C1069.44 118.541 1069.35 118.787 1069.35 119.057C1069.35 119.373 1069.48 119.643 1069.75 119.865C1070.02 120.088 1070.43 120.264 1070.98 120.393L1072.41 120.744C1073.26 120.943 1073.9 121.257 1074.32 121.685C1074.75 122.112 1074.96 122.66 1074.96 123.328C1074.96 123.879 1074.81 124.371 1074.52 124.805C1074.22 125.238 1073.8 125.578 1073.23 125.824C1072.67 126.07 1072 126.193 1071.21 126.193C1070.5 126.193 1069.88 126.091 1069.37 125.886C1068.85 125.681 1068.44 125.376 1068.13 124.972C1067.82 124.567 1067.62 124.078 1067.54 123.504H1069.12C1069.21 123.961 1069.43 124.304 1069.77 124.532C1070.11 124.761 1070.58 124.875 1071.18 124.875C1071.62 124.875 1072.01 124.816 1072.35 124.699C1072.68 124.582 1072.94 124.412 1073.12 124.189C1073.3 123.967 1073.39 123.709 1073.39 123.416C1073.39 123.076 1073.27 122.792 1073.01 122.563C1072.76 122.335 1072.37 122.162 1071.83 122.045L1070.39 121.711C1069.55 121.512 1068.92 121.192 1068.49 120.753C1068.05 120.313 1067.84 119.777 1067.84 119.145C1067.84 118.605 1067.99 118.122 1068.29 117.694C1068.58 117.267 1069 116.933 1069.53 116.692C1070.07 116.452 1070.68 116.332 1071.37 116.332C1072.02 116.332 1072.58 116.44 1073.08 116.657C1073.57 116.874 1073.96 117.179 1074.25 117.571C1074.55 117.964 1074.72 118.418 1074.78 118.934H1073.3ZM1078 126.105C1077.8 126.105 1077.61 126.053 1077.44 125.947C1077.26 125.842 1077.12 125.701 1077.02 125.525C1076.92 125.35 1076.87 125.162 1076.87 124.963C1076.87 124.764 1076.92 124.576 1077.02 124.4C1077.12 124.225 1077.26 124.087 1077.44 123.987C1077.61 123.888 1077.8 123.838 1078 123.838C1078.2 123.838 1078.38 123.888 1078.56 123.987C1078.74 124.087 1078.87 124.225 1078.97 124.4C1079.07 124.576 1079.12 124.764 1079.12 124.963C1079.12 125.162 1079.07 125.35 1078.97 125.525C1078.87 125.701 1078.74 125.842 1078.56 125.947C1078.38 126.053 1078.2 126.105 1078 126.105ZM1078 119.039C1077.8 119.039 1077.61 118.986 1077.44 118.881C1077.26 118.775 1077.12 118.635 1077.02 118.459C1076.92 118.283 1076.87 118.096 1076.87 117.896C1076.87 117.697 1076.92 117.51 1077.02 117.334C1077.12 117.158 1077.26 117.021 1077.44 116.921C1077.61 116.821 1077.8 116.771 1078 116.771C1078.2 116.771 1078.38 116.821 1078.56 116.921C1078.74 117.021 1078.87 117.158 1078.97 117.334C1079.07 117.51 1079.12 117.697 1079.12 117.896C1079.12 118.096 1079.07 118.283 1078.97 118.459C1078.87 118.635 1078.74 118.775 1078.56 118.881C1078.38 118.986 1078.2 119.039 1078 119.039ZM1081.92 127.916H1080.55L1084.64 112.676H1086.03L1081.92 127.916ZM1087.93 127.916H1086.56L1090.65 112.676H1092.04L1087.93 127.916ZM1097.39 129.779C1096.62 129.779 1095.95 129.671 1095.36 129.454C1094.76 129.237 1094.3 128.921 1093.95 128.505C1093.6 128.089 1093.4 127.588 1093.34 127.002H1094.93C1095.03 127.482 1095.3 127.846 1095.73 128.092C1096.15 128.338 1096.71 128.461 1097.39 128.461C1098.23 128.461 1098.88 128.273 1099.34 127.898C1099.79 127.523 1100.02 126.949 1100.02 126.176V124.242H1099.9C1099.74 124.523 1099.56 124.772 1099.37 124.989C1099.19 125.206 1098.9 125.405 1098.53 125.587C1098.15 125.769 1097.69 125.859 1097.12 125.859C1096.35 125.859 1095.66 125.669 1095.04 125.288C1094.42 124.907 1093.94 124.356 1093.59 123.636C1093.24 122.915 1093.06 122.068 1093.06 121.096C1093.06 120.135 1093.24 119.294 1093.58 118.573C1093.93 117.853 1094.41 117.299 1095.02 116.912C1095.64 116.525 1096.34 116.332 1097.14 116.332C1097.7 116.332 1098.17 116.423 1098.54 116.604C1098.91 116.786 1099.17 116.971 1099.34 117.158C1099.5 117.346 1099.7 117.615 1099.94 117.967H1100.06V116.455H1101.54V126.264C1101.54 127.049 1101.36 127.705 1101 128.232C1100.64 128.76 1100.15 129.149 1099.53 129.401C1098.91 129.653 1098.2 129.779 1097.39 129.779ZM1097.33 124.506C1097.91 124.506 1098.4 124.371 1098.81 124.102C1099.22 123.832 1099.53 123.448 1099.74 122.95C1099.95 122.452 1100.06 121.852 1100.06 121.148C1100.06 120.457 1099.95 119.851 1099.74 119.329C1099.53 118.808 1099.22 118.403 1098.82 118.116C1098.42 117.829 1097.92 117.686 1097.33 117.686C1096.75 117.686 1096.25 117.838 1095.84 118.143C1095.43 118.447 1095.12 118.86 1094.91 119.382C1094.7 119.903 1094.59 120.492 1094.59 121.148C1094.59 121.816 1094.7 122.402 1094.91 122.906C1095.12 123.41 1095.43 123.803 1095.84 124.084C1096.25 124.365 1096.75 124.506 1097.33 124.506ZM1103.94 116.455H1105.46V126H1103.94V116.455ZM1104.7 114.873C1104.51 114.873 1104.34 114.829 1104.17 114.741C1104.01 114.653 1103.88 114.53 1103.79 114.372C1103.69 114.214 1103.64 114.047 1103.64 113.871C1103.64 113.684 1103.69 113.514 1103.79 113.361C1103.88 113.209 1104.01 113.089 1104.17 113.001C1104.34 112.913 1104.51 112.869 1104.7 112.869C1104.9 112.869 1105.08 112.913 1105.24 113.001C1105.41 113.089 1105.54 113.209 1105.63 113.361C1105.72 113.514 1105.77 113.684 1105.77 113.871C1105.77 114.047 1105.72 114.214 1105.63 114.372C1105.54 114.53 1105.41 114.653 1105.24 114.741C1105.08 114.829 1104.9 114.873 1104.7 114.873ZM1112.03 117.721H1107.05V116.455H1112.03V117.721ZM1110.03 114.17V123.258C1110.03 123.645 1110.08 123.94 1110.19 124.146C1110.3 124.351 1110.45 124.491 1110.63 124.567C1110.81 124.644 1111.03 124.682 1111.27 124.682C1111.57 124.682 1111.87 124.67 1112.17 124.646V126.053C1111.87 126.1 1111.51 126.123 1111.12 126.123C1110.67 126.123 1110.25 126.029 1109.85 125.842C1109.45 125.654 1109.13 125.373 1108.87 124.998C1108.62 124.623 1108.5 124.172 1108.5 123.645V114.17H1110.03ZM1115.7 126H1114.19V113.273H1115.7V117.949H1115.83C1116.06 117.434 1116.41 117.035 1116.86 116.754C1117.32 116.473 1117.91 116.332 1118.64 116.332C1119.31 116.332 1119.88 116.464 1120.37 116.728C1120.86 116.991 1121.23 117.393 1121.5 117.932C1121.76 118.471 1121.89 119.139 1121.89 119.936V126H1120.38V120.041C1120.38 119.549 1120.29 119.124 1120.12 118.767C1119.94 118.409 1119.69 118.14 1119.36 117.958C1119.03 117.776 1118.64 117.686 1118.18 117.686C1117.7 117.686 1117.28 117.785 1116.91 117.984C1116.54 118.184 1116.25 118.479 1116.03 118.872C1115.81 119.265 1115.7 119.73 1115.7 120.27V126ZM1130.35 116.455H1131.84V126H1130.35V124.383H1130.24C1129.99 124.898 1129.63 125.317 1129.16 125.64C1128.68 125.962 1128.1 126.123 1127.41 126.123C1126.8 126.123 1126.26 125.988 1125.8 125.719C1125.34 125.449 1124.98 125.045 1124.71 124.506C1124.45 123.967 1124.32 123.305 1124.32 122.52V116.455H1125.83V122.414C1125.83 122.859 1125.92 123.252 1126.09 123.592C1126.27 123.932 1126.51 124.195 1126.83 124.383C1127.15 124.57 1127.5 124.664 1127.9 124.664C1128.29 124.664 1128.67 124.567 1129.04 124.374C1129.42 124.181 1129.73 123.888 1129.98 123.495C1130.22 123.103 1130.35 122.631 1130.35 122.08V116.455ZM1134.46 113.273H1135.97V117.967H1136.09C1136.33 117.615 1136.52 117.346 1136.67 117.158C1136.83 116.971 1137.09 116.786 1137.46 116.604C1137.83 116.423 1138.29 116.332 1138.85 116.332C1139.65 116.332 1140.36 116.531 1140.97 116.93C1141.59 117.328 1142.07 117.899 1142.41 118.644C1142.76 119.388 1142.93 120.258 1142.93 121.254C1142.93 122.238 1142.76 123.105 1142.41 123.855C1142.07 124.605 1141.59 125.183 1140.98 125.587C1140.37 125.991 1139.67 126.193 1138.87 126.193C1138.32 126.193 1137.86 126.1 1137.49 125.912C1137.12 125.725 1136.85 125.525 1136.67 125.314C1136.48 125.104 1136.29 124.846 1136.09 124.541H1135.92V126H1134.46V113.273ZM1135.94 121.219C1135.94 121.934 1136.04 122.563 1136.25 123.108C1136.46 123.653 1136.77 124.078 1137.18 124.383C1137.59 124.688 1138.08 124.84 1138.64 124.84C1139.23 124.84 1139.73 124.682 1140.15 124.365C1140.56 124.049 1140.88 123.618 1141.09 123.073C1141.3 122.528 1141.4 121.91 1141.4 121.219C1141.4 120.539 1141.3 119.933 1141.09 119.399C1140.89 118.866 1140.58 118.447 1140.16 118.143C1139.75 117.838 1139.24 117.686 1138.64 117.686C1138.07 117.686 1137.58 117.832 1137.17 118.125C1136.77 118.418 1136.46 118.828 1136.25 119.355C1136.04 119.883 1135.94 120.504 1135.94 121.219ZM1145.97 126.105C1145.77 126.105 1145.59 126.053 1145.41 125.947C1145.23 125.842 1145.1 125.701 1145 125.525C1144.9 125.35 1144.85 125.162 1144.85 124.963C1144.85 124.764 1144.9 124.576 1145 124.4C1145.1 124.225 1145.23 124.087 1145.41 123.987C1145.59 123.888 1145.77 123.838 1145.97 123.838C1146.17 123.838 1146.36 123.888 1146.54 123.987C1146.71 124.087 1146.85 124.225 1146.95 124.4C1147.05 124.576 1147.1 124.764 1147.1 124.963C1147.1 125.162 1147.05 125.35 1146.95 125.525C1146.85 125.701 1146.71 125.842 1146.54 125.947C1146.36 126.053 1146.17 126.105 1145.97 126.105ZM1153.37 126.193C1152.49 126.193 1151.72 125.982 1151.06 125.561C1150.4 125.139 1149.89 124.556 1149.54 123.812C1149.19 123.067 1149.01 122.221 1149.01 121.271C1149.01 120.311 1149.2 119.455 1149.56 118.705C1149.92 117.955 1150.43 117.372 1151.08 116.956C1151.73 116.54 1152.48 116.332 1153.34 116.332C1154.02 116.332 1154.63 116.455 1155.17 116.701C1155.72 116.947 1156.16 117.299 1156.5 117.756C1156.84 118.213 1157.05 118.74 1157.13 119.338H1155.62C1155.55 119.033 1155.42 118.755 1155.22 118.503C1155.02 118.251 1154.76 118.049 1154.45 117.896C1154.14 117.744 1153.78 117.668 1153.37 117.668C1152.81 117.668 1152.32 117.814 1151.89 118.107C1151.46 118.4 1151.13 118.813 1150.89 119.347C1150.65 119.88 1150.53 120.504 1150.53 121.219C1150.53 121.945 1150.64 122.581 1150.88 123.126C1151.11 123.671 1151.44 124.093 1151.87 124.392C1152.3 124.69 1152.8 124.84 1153.37 124.84C1153.75 124.84 1154.09 124.775 1154.4 124.646C1154.71 124.518 1154.97 124.327 1155.18 124.075C1155.39 123.823 1155.54 123.527 1155.62 123.188H1157.13C1157.05 123.762 1156.85 124.274 1156.52 124.726C1156.19 125.177 1155.76 125.534 1155.22 125.798C1154.68 126.062 1154.06 126.193 1153.37 126.193ZM1162.9 126.193C1162.04 126.193 1161.29 125.988 1160.62 125.578C1159.96 125.168 1159.45 124.591 1159.09 123.847C1158.72 123.103 1158.54 122.244 1158.54 121.271C1158.54 120.287 1158.72 119.423 1159.09 118.679C1159.45 117.935 1159.96 117.357 1160.62 116.947C1161.29 116.537 1162.04 116.332 1162.9 116.332C1163.76 116.332 1164.51 116.537 1165.17 116.947C1165.82 117.357 1166.33 117.935 1166.69 118.679C1167.05 119.423 1167.22 120.287 1167.22 121.271C1167.22 122.244 1167.05 123.103 1166.69 123.847C1166.33 124.591 1165.82 125.168 1165.17 125.578C1164.51 125.988 1163.76 126.193 1162.9 126.193ZM1162.9 124.857C1163.52 124.857 1164.04 124.693 1164.46 124.365C1164.89 124.037 1165.2 123.604 1165.41 123.064C1165.61 122.525 1165.71 121.928 1165.71 121.271C1165.71 120.615 1165.61 120.015 1165.41 119.47C1165.2 118.925 1164.89 118.488 1164.46 118.16C1164.04 117.832 1163.52 117.668 1162.9 117.668C1162.28 117.668 1161.75 117.832 1161.33 118.16C1160.9 118.488 1160.58 118.925 1160.37 119.47C1160.16 120.015 1160.05 120.615 1160.05 121.271C1160.05 121.928 1160.16 122.525 1160.37 123.064C1160.58 123.604 1160.9 124.037 1161.33 124.365C1161.75 124.693 1162.28 124.857 1162.9 124.857ZM1169.21 116.455H1170.67V117.949H1170.79C1171 117.434 1171.33 117.035 1171.77 116.754C1172.21 116.473 1172.74 116.332 1173.36 116.332C1173.77 116.332 1174.14 116.394 1174.47 116.517C1174.79 116.64 1175.08 116.821 1175.32 117.062C1175.56 117.302 1175.76 117.598 1175.91 117.949H1176.01C1176.18 117.609 1176.4 117.319 1176.67 117.079C1176.95 116.839 1177.27 116.654 1177.65 116.525C1178.02 116.396 1178.43 116.332 1178.88 116.332C1179.46 116.332 1179.97 116.452 1180.41 116.692C1180.84 116.933 1181.18 117.296 1181.43 117.782C1181.67 118.269 1181.8 118.881 1181.8 119.619V126H1180.29V119.637C1180.29 118.969 1180.1 118.477 1179.74 118.16C1179.38 117.844 1178.91 117.686 1178.35 117.686C1177.92 117.686 1177.54 117.776 1177.23 117.958C1176.91 118.14 1176.67 118.389 1176.51 118.705C1176.34 119.021 1176.26 119.385 1176.26 119.795V126H1174.73V119.479C1174.73 119.127 1174.65 118.813 1174.49 118.538C1174.33 118.263 1174.12 118.052 1173.83 117.905C1173.55 117.759 1173.23 117.686 1172.87 117.686C1172.49 117.686 1172.14 117.785 1171.81 117.984C1171.48 118.184 1171.22 118.462 1171.02 118.819C1170.82 119.177 1170.72 119.584 1170.72 120.041V126H1169.21V116.455ZM1184.64 127.916H1183.27L1187.37 112.676H1188.76L1184.64 127.916ZM1191.62 120.674H1191.92L1196.05 116.455H1197.92L1193.47 120.973H1193.33L1191.64 122.537L1191.62 120.674ZM1190.23 113.273H1191.75V126H1190.23V113.273ZM1192.61 121.307L1193.66 120.252L1198.21 126H1196.3L1192.61 121.307ZM1201.04 126H1199.53V113.273H1201.04V117.949H1201.17C1201.4 117.434 1201.75 117.035 1202.21 116.754C1202.66 116.473 1203.25 116.332 1203.98 116.332C1204.65 116.332 1205.23 116.464 1205.71 116.728C1206.2 116.991 1206.57 117.393 1206.84 117.932C1207.1 118.471 1207.23 119.139 1207.23 119.936V126H1205.72V120.041C1205.72 119.549 1205.63 119.124 1205.46 118.767C1205.28 118.409 1205.03 118.14 1204.7 117.958C1204.37 117.776 1203.98 117.686 1203.52 117.686C1203.04 117.686 1202.62 117.785 1202.25 117.984C1201.88 118.184 1201.59 118.479 1201.37 118.872C1201.15 119.265 1201.04 119.73 1201.04 120.27V126ZM1208.9 116.455H1210.5L1212.54 123.732H1212.63L1214.65 116.455H1216.27L1218.25 123.697H1218.36L1220.4 116.455H1221.98L1219.08 126H1217.59L1215.51 118.723H1215.37L1213.31 126H1211.8L1208.9 116.455ZM1229.12 121.254H1223.54V119.865H1229.12V121.254ZM1235.04 126.193C1234.26 126.193 1233.56 125.991 1232.94 125.587C1232.33 125.183 1231.84 124.605 1231.5 123.855C1231.15 123.105 1230.98 122.238 1230.98 121.254C1230.98 120.258 1231.15 119.388 1231.5 118.644C1231.84 117.899 1232.33 117.328 1232.94 116.93C1233.56 116.531 1234.26 116.332 1235.06 116.332C1235.62 116.332 1236.09 116.423 1236.46 116.604C1236.83 116.786 1237.1 116.982 1237.27 117.193C1237.45 117.404 1237.63 117.662 1237.82 117.967H1237.92V113.273H1239.45V126H1237.98V124.541H1237.82C1237.62 124.846 1237.43 125.104 1237.26 125.314C1237.08 125.525 1236.81 125.725 1236.44 125.912C1236.07 126.1 1235.6 126.193 1235.04 126.193ZM1235.25 124.84C1235.83 124.84 1236.32 124.688 1236.73 124.383C1237.14 124.078 1237.45 123.653 1237.66 123.108C1237.87 122.563 1237.98 121.934 1237.98 121.219C1237.98 120.504 1237.87 119.883 1237.67 119.355C1237.46 118.828 1237.16 118.418 1236.75 118.125C1236.34 117.832 1235.84 117.686 1235.25 117.686C1234.67 117.686 1234.17 117.838 1233.76 118.143C1233.35 118.447 1233.04 118.866 1232.83 119.399C1232.62 119.933 1232.51 120.539 1232.51 121.219C1232.51 121.91 1232.62 122.528 1232.83 123.073C1233.04 123.618 1233.35 124.049 1233.76 124.365C1234.17 124.682 1234.67 124.84 1235.25 124.84ZM1246.08 126.193C1245.18 126.193 1244.39 125.991 1243.72 125.587C1243.04 125.183 1242.52 124.611 1242.16 123.873C1241.8 123.135 1241.62 122.279 1241.62 121.307C1241.62 120.334 1241.8 119.47 1242.16 118.714C1242.52 117.958 1243.03 117.372 1243.68 116.956C1244.33 116.54 1245.08 116.332 1245.94 116.332C1246.67 116.332 1247.34 116.49 1247.96 116.807C1248.58 117.123 1249.09 117.639 1249.47 118.354C1249.86 119.068 1250.05 119.982 1250.05 121.096V121.729H1242.67V120.445H1248.52C1248.52 119.906 1248.42 119.429 1248.21 119.013C1248 118.597 1247.69 118.269 1247.3 118.028C1246.91 117.788 1246.46 117.668 1245.94 117.668C1245.38 117.668 1244.88 117.806 1244.46 118.081C1244.04 118.356 1243.71 118.726 1243.48 119.188C1243.24 119.651 1243.13 120.146 1243.13 120.674V121.535C1243.13 122.238 1243.25 122.839 1243.5 123.337C1243.74 123.835 1244.09 124.213 1244.53 124.471C1244.98 124.729 1245.49 124.857 1246.08 124.857C1246.44 124.857 1246.77 124.808 1247.06 124.708C1247.36 124.608 1247.61 124.479 1247.81 124.321C1248.02 124.163 1248.18 123.979 1248.29 123.768H1249.91C1249.76 124.248 1249.51 124.67 1249.16 125.033C1248.8 125.396 1248.37 125.681 1247.84 125.886C1247.31 126.091 1246.72 126.193 1246.08 126.193ZM1256.05 126H1254.48L1250.97 116.455H1252.62L1255.22 124.031H1255.33L1257.93 116.455H1259.58L1256.05 126Z" fill="black"/>
<path d="M1034 128.874H1056.35V130.096H1034V128.874ZM1060.31 128.874H1093.11V130.096H1060.31V128.874ZM1101.64 128.874H1260.04V130.096H1101.64V128.874Z" fill="black"/>
</g>
<a href="https://github.com/khw-dev">
<rect fill="black" fill-opacity="0" y="-0.240234" width="226.037" height="21.4805"/>
</a>
<g opacity="0.7">
<path d="M1349.21 116.455H1350.67V117.949H1350.79C1351.01 117.434 1351.33 117.035 1351.77 116.754C1352.21 116.473 1352.74 116.332 1353.36 116.332C1353.77 116.332 1354.14 116.394 1354.47 116.517C1354.8 116.64 1355.08 116.821 1355.32 117.062C1355.56 117.302 1355.76 117.598 1355.91 117.949H1356.02C1356.18 117.609 1356.4 117.319 1356.67 117.079C1356.95 116.839 1357.28 116.654 1357.65 116.525C1358.03 116.396 1358.44 116.332 1358.88 116.332C1359.47 116.332 1359.98 116.452 1360.41 116.692C1360.84 116.933 1361.18 117.296 1361.43 117.782C1361.68 118.269 1361.8 118.881 1361.8 119.619V126H1360.29V119.637C1360.29 118.969 1360.11 118.477 1359.74 118.16C1359.38 117.844 1358.92 117.686 1358.35 117.686C1357.92 117.686 1357.54 117.776 1357.23 117.958C1356.91 118.14 1356.67 118.389 1356.51 118.705C1356.34 119.021 1356.26 119.385 1356.26 119.795V126H1354.73V119.479C1354.73 119.127 1354.65 118.813 1354.5 118.538C1354.34 118.263 1354.12 118.052 1353.84 117.905C1353.55 117.759 1353.23 117.686 1352.87 117.686C1352.49 117.686 1352.14 117.785 1351.81 117.984C1351.49 118.184 1351.22 118.462 1351.02 118.819C1350.82 119.177 1350.72 119.584 1350.72 120.041V126H1349.21V116.455ZM1368.23 126.193C1367.33 126.193 1366.54 125.991 1365.87 125.587C1365.19 125.183 1364.68 124.611 1364.31 123.873C1363.95 123.135 1363.77 122.279 1363.77 121.307C1363.77 120.334 1363.95 119.47 1364.31 118.714C1364.68 117.958 1365.18 117.372 1365.83 116.956C1366.48 116.54 1367.24 116.332 1368.09 116.332C1368.82 116.332 1369.49 116.49 1370.11 116.807C1370.73 117.123 1371.24 117.639 1371.62 118.354C1372.01 119.068 1372.21 119.982 1372.21 121.096V121.729H1364.82V120.445H1370.68C1370.68 119.906 1370.57 119.429 1370.36 119.013C1370.15 118.597 1369.85 118.269 1369.45 118.028C1369.06 117.788 1368.61 117.668 1368.09 117.668C1367.53 117.668 1367.04 117.806 1366.62 118.081C1366.19 118.356 1365.87 118.726 1365.63 119.188C1365.4 119.651 1365.28 120.146 1365.28 120.674V121.535C1365.28 122.238 1365.4 122.839 1365.65 123.337C1365.89 123.835 1366.24 124.213 1366.69 124.471C1367.13 124.729 1367.65 124.857 1368.23 124.857C1368.6 124.857 1368.92 124.808 1369.22 124.708C1369.51 124.608 1369.76 124.479 1369.96 124.321C1370.17 124.163 1370.33 123.979 1370.45 123.768H1372.06C1371.91 124.248 1371.66 124.67 1371.31 125.033C1370.96 125.396 1370.52 125.681 1369.99 125.886C1369.46 126.091 1368.88 126.193 1368.23 126.193ZM1380.47 124.33C1379.88 124.33 1379.36 124.178 1378.9 123.873C1378.45 123.568 1378.08 123.138 1377.82 122.581C1377.56 122.024 1377.43 121.371 1377.43 120.621C1377.43 119.883 1377.56 119.232 1377.82 118.67C1378.08 118.107 1378.45 117.677 1378.91 117.378C1379.37 117.079 1379.9 116.93 1380.48 116.93C1380.87 116.93 1381.2 116.997 1381.48 117.132C1381.75 117.267 1381.97 117.422 1382.12 117.598C1382.27 117.773 1382.39 117.955 1382.49 118.143H1382.58V117.07H1383.91V122.959H1382.58C1382.46 123.17 1382.33 123.372 1382.18 123.565C1382.03 123.759 1381.82 123.935 1381.53 124.093C1381.24 124.251 1380.89 124.33 1380.47 124.33ZM1380.7 123.047C1381.11 123.047 1381.45 122.944 1381.73 122.739C1382.01 122.534 1382.23 122.25 1382.37 121.887C1382.52 121.523 1382.59 121.096 1382.59 120.604C1382.59 120.123 1382.52 119.701 1382.37 119.338C1382.23 118.975 1382.01 118.696 1381.73 118.503C1381.45 118.31 1381.11 118.213 1380.7 118.213C1380.3 118.213 1379.95 118.315 1379.67 118.521C1379.38 118.726 1379.16 119.01 1379.02 119.373C1378.87 119.736 1378.8 120.146 1378.8 120.604C1378.8 121.061 1378.87 121.474 1379.03 121.843C1379.18 122.212 1379.4 122.505 1379.68 122.722C1379.97 122.938 1380.31 123.047 1380.7 123.047ZM1380.8 127.828C1379.38 127.828 1378.15 127.538 1377.11 126.958C1376.07 126.378 1375.27 125.546 1374.71 124.462C1374.15 123.378 1373.88 122.098 1373.88 120.621C1373.88 119.25 1374.17 118.02 1374.77 116.93C1375.37 115.84 1376.2 114.984 1377.26 114.363C1378.32 113.742 1379.52 113.432 1380.87 113.432C1382.25 113.432 1383.48 113.719 1384.54 114.293C1385.6 114.867 1386.42 115.661 1387.01 116.675C1387.61 117.688 1387.9 118.822 1387.88 120.076C1387.88 120.955 1387.75 121.723 1387.47 122.379C1387.2 123.035 1386.82 123.536 1386.33 123.882C1385.84 124.228 1385.3 124.4 1384.7 124.4C1384.33 124.4 1383.99 124.33 1383.67 124.189C1383.36 124.049 1383.12 123.858 1382.95 123.618C1382.77 123.378 1382.68 123.117 1382.68 122.836L1383.91 122.203C1383.92 122.543 1384 122.798 1384.15 122.968C1384.3 123.138 1384.51 123.223 1384.79 123.223C1385.15 123.223 1385.47 123.091 1385.75 122.827C1386.02 122.563 1386.24 122.197 1386.39 121.729C1386.54 121.26 1386.62 120.727 1386.62 120.129C1386.63 119.039 1386.39 118.078 1385.9 117.246C1385.41 116.414 1384.72 115.772 1383.85 115.321C1382.98 114.87 1381.98 114.645 1380.87 114.645C1379.75 114.645 1378.75 114.911 1377.87 115.444C1377 115.978 1376.33 116.701 1375.85 117.615C1375.38 118.529 1375.14 119.531 1375.14 120.621C1375.14 121.816 1375.36 122.868 1375.79 123.776C1376.22 124.685 1376.87 125.388 1377.72 125.886C1378.57 126.384 1379.59 126.627 1380.8 126.615C1381.46 126.604 1382.01 126.571 1382.47 126.519C1382.93 126.466 1383.41 126.369 1383.91 126.229V127.424C1383.43 127.553 1382.93 127.652 1382.42 127.723C1381.9 127.793 1381.36 127.828 1380.8 127.828ZM1391.4 120.674H1391.7L1395.83 116.455H1397.69L1393.25 120.973H1393.11L1391.42 122.537L1391.4 120.674ZM1390.01 113.273H1391.52V126H1390.01V113.273ZM1392.38 121.307L1393.44 120.252L1397.99 126H1396.08L1392.38 121.307ZM1400.82 126H1399.31V113.273H1400.82V117.949H1400.95C1401.18 117.434 1401.53 117.035 1401.98 116.754C1402.44 116.473 1403.03 116.332 1403.76 116.332C1404.43 116.332 1405 116.464 1405.49 116.728C1405.98 116.991 1406.35 117.393 1406.61 117.932C1406.88 118.471 1407.01 119.139 1407.01 119.936V126H1405.5V120.041C1405.5 119.549 1405.41 119.124 1405.23 118.767C1405.06 118.409 1404.81 118.14 1404.48 117.958C1404.15 117.776 1403.76 117.686 1403.3 117.686C1402.82 117.686 1402.4 117.785 1402.03 117.984C1401.66 118.184 1401.36 118.479 1401.15 118.872C1400.93 119.265 1400.82 119.73 1400.82 120.27V126ZM1408.68 116.455H1410.28L1412.32 123.732H1412.41L1414.43 116.455H1416.04L1418.03 123.697H1418.14L1420.18 116.455H1421.76L1418.86 126H1417.36L1415.29 118.723H1415.15L1413.09 126H1411.58L1408.68 116.455ZM1423.22 126.105C1423.02 126.105 1422.83 126.053 1422.65 125.947C1422.48 125.842 1422.34 125.701 1422.24 125.525C1422.14 125.35 1422.09 125.162 1422.09 124.963C1422.09 124.764 1422.14 124.576 1422.24 124.4C1422.34 124.225 1422.48 124.087 1422.65 123.987C1422.83 123.888 1423.02 123.838 1423.22 123.838C1423.42 123.838 1423.6 123.888 1423.78 123.987C1423.96 124.087 1424.09 124.225 1424.19 124.4C1424.29 124.576 1424.34 124.764 1424.34 124.963C1424.34 125.162 1424.29 125.35 1424.19 125.525C1424.09 125.701 1423.96 125.842 1423.78 125.947C1423.6 126.053 1423.42 126.105 1423.22 126.105ZM1430.32 126.193C1429.53 126.193 1428.83 125.991 1428.22 125.587C1427.6 125.183 1427.12 124.605 1426.78 123.855C1426.43 123.105 1426.26 122.238 1426.26 121.254C1426.26 120.258 1426.43 119.388 1426.78 118.644C1427.12 117.899 1427.6 117.328 1428.22 116.93C1428.83 116.531 1429.54 116.332 1430.34 116.332C1430.9 116.332 1431.36 116.423 1431.73 116.604C1432.1 116.786 1432.38 116.982 1432.55 117.193C1432.73 117.404 1432.91 117.662 1433.1 117.967H1433.2V113.273H1434.73V126H1433.25V124.541H1433.1C1432.9 124.846 1432.71 125.104 1432.53 125.314C1432.36 125.525 1432.08 125.725 1431.72 125.912C1431.35 126.1 1430.88 126.193 1430.32 126.193ZM1430.53 124.84C1431.1 124.84 1431.6 124.688 1432.01 124.383C1432.42 124.078 1432.73 123.653 1432.94 123.108C1433.15 122.563 1433.25 121.934 1433.25 121.219C1433.25 120.504 1433.15 119.883 1432.95 119.355C1432.74 118.828 1432.43 118.418 1432.02 118.125C1431.61 117.832 1431.12 117.686 1430.53 117.686C1429.94 117.686 1429.45 117.838 1429.04 118.143C1428.62 118.447 1428.31 118.866 1428.1 119.399C1427.89 119.933 1427.79 120.539 1427.79 121.219C1427.79 121.91 1427.89 122.528 1428.1 123.073C1428.31 123.618 1428.62 124.049 1429.04 124.365C1429.45 124.682 1429.94 124.84 1430.53 124.84ZM1441.36 126.193C1440.46 126.193 1439.67 125.991 1438.99 125.587C1438.32 125.183 1437.8 124.611 1437.44 123.873C1437.07 123.135 1436.89 122.279 1436.89 121.307C1436.89 120.334 1437.07 119.47 1437.44 118.714C1437.8 117.958 1438.31 117.372 1438.96 116.956C1439.61 116.54 1440.36 116.332 1441.22 116.332C1441.94 116.332 1442.62 116.49 1443.24 116.807C1443.86 117.123 1444.36 117.639 1444.75 118.354C1445.14 119.068 1445.33 119.982 1445.33 121.096V121.729H1437.95V120.445H1443.8C1443.8 119.906 1443.7 119.429 1443.48 119.013C1443.27 118.597 1442.97 118.269 1442.58 118.028C1442.19 117.788 1441.73 117.668 1441.22 117.668C1440.65 117.668 1440.16 117.806 1439.74 118.081C1439.32 118.356 1438.99 118.726 1438.76 119.188C1438.52 119.651 1438.4 120.146 1438.4 120.674V121.535C1438.4 122.238 1438.53 122.839 1438.77 123.337C1439.02 123.835 1439.37 124.213 1439.81 124.471C1440.26 124.729 1440.77 124.857 1441.36 124.857C1441.72 124.857 1442.05 124.808 1442.34 124.708C1442.63 124.608 1442.88 124.479 1443.09 124.321C1443.29 124.163 1443.46 123.979 1443.57 123.768H1445.19C1445.04 124.248 1444.79 124.67 1444.43 125.033C1444.08 125.396 1443.64 125.681 1443.12 125.886C1442.59 126.091 1442 126.193 1441.36 126.193ZM1451.32 126H1449.76L1446.24 116.455H1447.9L1450.5 124.031H1450.6L1453.21 116.455H1454.86L1451.32 126Z" fill="black"/>
<path d="M1348 128.874H1455.31V130.096H1348V128.874Z" fill="black"/>
</g>
<a href="mailto:me@khw.dev">
<rect fill="black" fill-opacity="0" y="-0.240234" width="107.314" height="21.4805"/>
</a>
<line x1="463.5" y1="67" x2="463.5" y2="133" stroke="black"/>
<line x1="930.5" y1="67" x2="930.5" y2="133" stroke="black"/>
<g clip-path="url(#clip0_2017_2)">
<g clip-path="url(#clip1_2017_2)">
<path d="M544.969 45H529.031C525.148 45 522 48.148 522 52.0312V67.9688C522 71.852 525.148 75 529.031 75H544.969C548.852 75 552 71.852 552 67.9688V52.0312C552 48.148 548.852 45 544.969 45Z" fill="#F4F4F4"/>
<mask id="mask0_2017_2" style="mask-type:luminance" maskUnits="userSpaceOnUse" x="529" y="48" width="16" height="24">
<path d="M529.148 48.2812H544.777V71.7188H529.148V48.2812Z" fill="white"/>
</mask>
<g mask="url(#mask0_2017_2)">
<path d="M533.056 71.7188C535.212 71.7188 536.962 69.9688 536.962 67.8126V63.9062H533.056C530.9 63.9062 529.15 65.6563 529.15 67.8126C529.15 69.9688 530.9 71.7188 533.056 71.7188Z" fill="#0ACF83"/>
<path d="M529.15 60C529.15 57.8437 530.9 56.0938 533.056 56.0938H536.962V63.9062H533.056C530.9 63.9062 529.15 62.1562 529.15 60Z" fill="#A259FF"/>
<path d="M529.15 52.1875C529.15 50.0312 530.9 48.2812 533.056 48.2812H536.962V56.0938H533.056C530.9 56.0938 529.15 54.3437 529.15 52.1875Z" fill="#F24E1E"/>
<path d="M536.962 48.2812H540.869C543.025 48.2812 544.775 50.0312 544.775 52.1875C544.775 54.3437 543.025 56.0938 540.869 56.0938H536.962V48.2812Z" fill="#FF7262"/>
<path d="M544.775 60C544.775 62.1562 543.025 63.9062 540.869 63.9062C538.712 63.9062 536.962 62.1562 536.962 60C536.962 57.8437 538.712 56.0938 540.869 56.0938C543.025 56.0938 544.775 57.8437 544.775 60Z" fill="#1ABCFE"/>
</g>
</g>
<rect x="562" y="45" width="30" height="30" rx="9" fill="#F4F4F4"/>
<g clip-path="url(#clip2_2017_2)">
<path d="M624.969 45H609.031C605.148 45 602 48.148 602 52.0312V67.9688C602 71.852 605.148 75 609.031 75H624.969C628.852 75 632 71.852 632 67.9688V52.0312C632 48.148 628.852 45 624.969 45Z" fill="#F4F4F4"/>
<path d="M605.951 56.7432C605.951 56.7432 605.396 56.3432 606.062 55.8092L607.613 54.4221C607.613 54.4221 608.057 53.9551 608.526 54.362L622.841 65.1994V70.3962C622.841 70.3962 622.834 71.2123 621.786 71.1221L605.951 56.7432Z" fill="#2489CA"/>
<path d="M609.641 60.0928L605.951 63.447C605.951 63.447 605.572 63.7291 605.951 64.2331L607.664 65.7911C607.664 65.7911 608.071 66.2281 608.672 65.731L612.583 62.7651L609.641 60.0928Z" fill="#1070B3"/>
<path d="M616.118 60.1206L622.885 54.9538L622.841 49.7848C622.841 49.7848 622.552 48.6566 621.588 49.2438L612.583 57.4389L616.118 60.1206Z" fill="#0877B9"/>
<path d="M621.786 71.1291C622.179 71.5313 622.656 71.3996 622.656 71.3996L627.929 68.8012C628.604 68.3411 628.509 67.7701 628.509 67.7701V52.2537C628.509 51.5717 627.811 51.336 627.811 51.336L623.241 49.1329C622.242 48.5157 621.588 49.2439 621.588 49.2439C621.588 49.2439 622.429 48.6382 622.841 49.7848V70.3014C622.841 70.4413 622.81 70.5796 622.75 70.706C622.63 70.9487 622.369 71.1753 621.743 71.0805L621.786 71.1291Z" fill="#3C99D4"/>
</g>
<rect x="642" y="45" width="30" height="30" rx="9" fill="#F4F4F4"/>
<g clip-path="url(#clip3_2017_2)">
<path d="M704.969 45H689.031C685.148 45 682 48.148 682 52.0312V67.9688C682 71.852 685.148 75 689.031 75H704.969C708.852 75 712 71.852 712 67.9688V52.0312C712 48.148 708.852 45 704.969 45Z" fill="#F4F4F4"/>
<mask id="mask1_2017_2" style="mask-type:luminance" maskUnits="userSpaceOnUse" x="685" y="48" width="24" height="24">
<path d="M685.281 48.2812H708.719V71.7188H685.281V48.2812Z" fill="white"/>
</mask>
<g mask="url(#mask1_2017_2)">
<path d="M708.276 58.9563L698.044 48.7236C697.833 48.5124 697.564 48.3685 697.271 48.3103C696.978 48.252 696.675 48.2819 696.399 48.3963C696.216 48.4722 696.05 48.5834 695.909 48.7236L693.785 50.8476L696.481 53.5429C697.108 53.3232 697.826 53.4733 698.325 53.9729C698.563 54.2111 698.729 54.5113 698.804 54.8394C698.879 55.1674 698.861 55.5101 698.75 55.8281L701.348 58.426C701.977 58.2092 702.702 58.349 703.204 58.8522C703.455 59.1034 703.626 59.4235 703.695 59.772C703.765 60.1205 703.729 60.4817 703.593 60.8099C703.41 61.25 703.061 61.5995 702.62 61.7818C702.18 61.964 701.686 61.964 701.246 61.7818C701.028 61.6914 700.83 61.5591 700.663 61.3922C700.136 60.8649 700.005 60.0885 700.272 59.4388L697.849 57.016V63.3918C698.025 63.4788 698.186 63.5936 698.325 63.7317C698.662 64.0685 698.851 64.5253 698.851 65.0017C698.851 65.478 698.662 65.9349 698.325 66.2717C697.988 66.6085 697.531 66.7978 697.055 66.7978C696.579 66.7978 696.122 66.6085 695.785 66.2717C695.534 66.0206 695.362 65.7006 695.293 65.3521C695.224 65.0036 695.259 64.6424 695.395 64.3142C695.485 64.0963 695.618 63.8983 695.785 63.7317C695.958 63.5588 696.151 63.4277 696.373 63.3398V56.9047C696.153 56.8147 695.953 56.6815 695.785 56.5129C695.533 56.261 695.361 55.9397 695.292 55.59C695.224 55.2402 695.26 54.8779 695.398 54.5492L692.74 51.8922L685.723 58.9014C685.512 59.1125 685.368 59.3815 685.31 59.6744C685.251 59.9673 685.281 60.2709 685.395 60.5467C685.471 60.7299 685.583 60.8963 685.723 61.0365L695.956 71.2683C696.097 71.4085 696.263 71.5197 696.446 71.5956C696.816 71.7486 697.231 71.7486 697.601 71.5956C697.784 71.5197 697.95 71.4085 698.091 71.2683L708.276 61.0987C708.417 60.9585 708.528 60.7921 708.604 60.609C708.68 60.4258 708.719 60.2295 708.719 60.0312C708.719 59.8329 708.68 59.6366 708.604 59.4534C708.528 59.2702 708.417 59.1038 708.276 58.9637" fill="#F03C2E"/>
</g>
</g>
<rect x="722" y="45" width="30" height="30" rx="9" fill="#F4F4F4"/>
<g clip-path="url(#clip4_2017_2)">
<path d="M784.969 45H769.031C765.148 45 762 48.148 762 52.0312V67.9688C762 71.852 765.148 75 769.031 75H784.969C788.852 75 792 71.852 792 67.9688V52.0312C792 48.148 788.852 45 784.969 45Z" fill="#F4F4F4"/>
<mask id="mask2_2017_2" style="mask-type:luminance" maskUnits="userSpaceOnUse" x="766" y="49" width="22" height="22">
<path d="M766.453 49.4531H787.547V70.5469H766.453V49.4531Z" fill="white"/>
</mask>
<g mask="url(#mask2_2017_2)">
<path d="M782.095 64.8087C782.229 63.6906 782.189 63.5275 783.021 63.7079L783.233 63.7268C783.873 63.7556 784.71 63.6238 785.21 63.3956C786.269 62.9045 786.897 62.0838 785.853 62.2997C783.472 62.7908 783.299 61.9841 783.299 61.9841C785.814 58.2516 786.866 53.5137 785.958 52.3543C783.482 49.1903 779.197 50.6866 779.125 50.7261L779.102 50.7302C778.632 50.6314 778.113 50.5737 777.512 50.5655C776.434 50.5491 775.617 50.8481 774.995 51.3186C774.995 51.3186 767.351 48.1693 767.707 55.2794C767.782 56.7922 769.874 66.7326 772.37 63.7251C773.284 62.626 774.166 61.6973 774.166 61.6973C774.602 61.9882 775.127 62.1366 775.677 62.083L775.72 62.0468C775.707 62.1892 775.713 62.3327 775.737 62.4736C775.094 63.1921 775.284 63.3182 773.998 63.5827C772.698 63.8504 773.463 64.3275 773.961 64.4528C774.565 64.6044 775.964 64.8186 776.91 63.4953L776.872 63.646C777.125 63.848 777.107 65.0962 777.144 65.9878C777.181 66.8794 777.24 67.7125 777.422 68.2026C777.604 68.693 777.818 69.9578 779.507 69.6034C780.918 69.301 781.998 68.8651 782.096 64.8162" fill="black"/>
<path d="M782.095 64.8087C782.229 63.6906 782.189 63.5275 783.021 63.7079L783.233 63.7268C783.873 63.7556 784.71 63.6238 785.21 63.3956C786.269 62.9045 786.897 62.0838 785.853 62.2997C783.472 62.7908 783.299 61.9841 783.299 61.9841C785.814 58.2516 786.866 53.5137 785.958 52.3543C783.482 49.1903 779.197 50.6866 779.125 50.7261L779.102 50.7302C778.632 50.6314 778.113 50.5737 777.512 50.5655C776.434 50.5491 775.617 50.8481 774.995 51.3186C774.995 51.3186 767.351 48.1693 767.707 55.2794C767.782 56.7922 769.874 66.7326 772.37 63.7251C773.284 62.626 774.166 61.6973 774.166 61.6973C774.602 61.9882 775.127 62.1366 775.677 62.083L775.72 62.0468C775.707 62.1892 775.713 62.3327 775.737 62.4736C775.094 63.1921 775.284 63.3182 773.998 63.5827C772.698 63.8504 773.463 64.3275 773.961 64.4528C774.565 64.6044 775.964 64.8186 776.91 63.4953L776.872 63.646C777.125 63.848 777.107 65.0962 777.144 65.9878C777.181 66.8794 777.24 67.7125 777.422 68.2026C777.604 68.693 777.818 69.9578 779.507 69.6034C780.918 69.301 781.998 68.8651 782.096 64.8162" stroke="black" stroke-width="1.88875"/>
<path d="M785.845 62.3073C783.464 62.7983 783.291 61.9917 783.291 61.9917C785.807 58.259 786.859 53.5211 785.951 52.3618C783.476 49.1977 779.19 50.6949 779.119 50.7337L779.095 50.7378C778.572 50.6328 778.04 50.5773 777.506 50.5721C776.428 50.5557 775.611 50.8548 774.99 51.3253C774.99 51.3253 767.345 48.1761 767.701 55.2862C767.777 56.799 769.868 66.7394 772.364 63.7319C773.284 62.6261 774.166 61.6974 774.166 61.6974C774.602 61.9883 775.127 62.1367 775.677 62.0831L775.72 62.0469C775.707 62.1893 775.713 62.3328 775.737 62.4737C775.094 63.1922 775.284 63.3183 773.998 63.5828C772.698 63.8505 773.463 64.3276 773.961 64.4529C774.565 64.6045 775.964 64.8187 776.91 63.4954L776.872 63.6461C777.125 63.8481 777.301 64.9588 777.271 65.9656C777.242 66.9726 777.222 67.6631 777.42 68.2036C777.617 68.744 777.815 69.9587 779.504 69.6043C780.916 69.302 781.647 68.5167 781.75 67.2099C781.822 66.2804 781.985 66.4172 781.997 65.5867L782.129 65.1928C782.279 63.9321 782.153 63.5259 783.023 63.7154L783.234 63.7344C783.875 63.7632 784.713 63.6314 785.204 63.4031C786.262 62.9121 786.89 62.0913 785.846 62.3073H785.845Z" fill="#336791"/>
<path d="M779.118 50.6949C778.854 50.7773 783.373 49.0429 785.942 52.3247C786.848 53.4841 785.798 58.222 783.282 61.9545M777.012 63.0216C776.946 65.3666 777.028 67.7281 777.257 68.295C777.486 68.8619 777.978 69.9842 779.668 69.6232C781.08 69.3209 781.594 68.735 781.816 67.4421L782.338 63.3084L777.012 63.0216ZM774.986 51.2659C774.986 51.2659 767.336 48.1382 767.692 55.2481C767.768 56.7609 769.86 66.7013 772.356 63.6938C773.267 62.5954 774.091 61.7361 774.091 61.7361L774.986 51.2659Z" stroke="white" stroke-width="0.62925" stroke-linecap="round" stroke-linejoin="round"/>
<path d="M783.283 61.9529C783.283 61.9529 783.448 62.7604 785.837 62.2676C786.881 62.0518 786.253 62.8725 785.195 63.3636C784.326 63.7673 782.378 63.8703 782.346 63.3141C782.264 61.8762 783.371 62.313 783.291 61.9529C783.219 61.6283 782.723 61.3102 782.396 60.5159C782.11 59.8237 778.474 54.5091 783.405 55.2976C783.586 55.2605 782.12 50.601 777.505 50.5334C772.891 50.4658 773.037 56.2065 773.037 56.2065" stroke="white" stroke-width="0.62925" stroke-linecap="round" stroke-linejoin="bevel"/>
<path d="M775.72 62.4456C775.078 63.164 775.267 63.2901 773.982 63.5546C772.682 63.8224 773.446 64.2995 773.944 64.4247C774.549 64.5764 775.948 64.7906 776.894 63.4664C777.182 63.0627 776.892 62.42 776.497 62.2569C776.305 62.1778 776.05 62.0789 775.722 62.4464L775.72 62.4456Z" stroke="white" stroke-width="0.62925" stroke-linejoin="round"/>
<path d="M775.678 62.4332C775.612 62.0105 775.817 61.5087 776.035 60.9205C776.363 60.0389 777.12 59.1571 776.515 56.3581C776.064 54.2734 773.038 55.9238 773.038 56.2065C773.038 56.4891 773.174 57.6403 772.988 58.9791C772.743 60.7277 774.101 62.2059 775.663 62.0551" stroke="white" stroke-width="0.62925" stroke-linecap="round" stroke-linejoin="round"/>
<path d="M774.958 56.1645C774.944 56.2608 775.135 56.5188 775.383 56.5533C775.631 56.588 775.843 56.3869 775.857 56.2897C775.871 56.1924 775.68 56.0869 775.432 56.0523C775.184 56.0178 774.971 56.0689 774.958 56.1645Z" fill="white" stroke="white" stroke-width="0.21"/>
<path d="M782.509 55.9676C782.522 56.0639 782.332 56.3217 782.084 56.3564C781.836 56.391 781.623 56.19 781.61 56.0928C781.598 55.9955 781.787 55.89 782.035 55.8554C782.283 55.8209 782.497 55.872 782.509 55.9676Z" fill="white" stroke="white" stroke-width="0.104625"/>
<path d="M783.396 55.2993C783.437 56.0574 783.233 56.5723 783.206 57.379C783.168 58.5507 783.765 59.8921 782.866 61.2352" stroke="white" stroke-width="0.62925" stroke-linecap="round" stroke-linejoin="round"/>
</g>
</g>
<rect x="802" y="45" width="30" height="30" rx="9" fill="#F4F4F4"/>
<g clip-path="url(#clip5_2017_2)">
<path d="M864.969 45H849.031C845.148 45 842 48.148 842 52.0312V67.9688C842 71.852 845.148 75 849.031 75H864.969C868.852 75 872 71.852 872 67.9688V52.0312C872 48.148 868.852 45 864.969 45Z" fill="#F4F4F4"/>
<path d="M862.059 57.6083C860.825 52.1613 858.251 50.7112 857.595 49.6862C857.324 49.2347 857.084 48.7653 856.877 48.2812C856.842 48.7652 856.778 49.0699 856.367 49.437C855.541 50.1732 852.034 53.0314 851.739 59.2205C851.464 64.991 855.981 68.5492 856.578 68.917C857.036 69.1429 857.595 68.9218 857.868 68.7145C860.045 67.2202 863.021 63.236 862.062 57.6083" fill="#10AA50"/>
<path d="M857.064 65.8442C856.95 67.2725 856.869 68.1024 856.58 68.9187C856.58 68.9187 856.77 70.2784 856.903 71.7187H857.374C857.486 70.7044 857.658 69.6976 857.887 68.7033C857.278 68.4033 857.087 67.0976 857.064 65.8442Z" fill="#B8C4C2"/>
<path d="M857.887 68.7041C857.27 68.4194 857.092 67.0862 857.065 65.8442C857.217 63.7955 857.261 61.7401 857.198 59.6866C857.165 58.6092 857.213 49.7072 856.932 48.4038C857.124 48.8453 857.345 49.2734 857.595 49.6854C858.251 50.7112 860.825 52.1613 862.059 57.6083C863.021 63.2264 860.062 67.2 857.887 68.7041Z" fill="#12924F"/>
</g>
<rect x="522" y="85" width="30" height="30" rx="9" fill="#F4F4F4"/>
<g clip-path="url(#clip6_2017_2)">
<path d="M584.969 85H569.031C565.148 85 562 88.148 562 92.0312V107.969C562 111.852 565.148 115 569.031 115H584.969C588.852 115 592 111.852 592 107.969V92.0312C592 88.148 588.852 85 584.969 85Z" fill="#F4F4F4"/>
<path d="M568.634 100.099L568.625 101.328H572.529V112.423H575.291V101.328H579.196V100.123C579.196 99.4566 579.182 98.8995 579.163 98.8852C579.148 98.8662 576.772 98.8566 573.891 98.8614L568.648 98.8757L568.634 100.099ZM586.207 98.8408C586.969 99.0313 587.55 99.3694 588.083 99.9217C588.359 100.217 588.769 100.755 588.802 100.884C588.812 100.922 587.507 101.798 586.717 102.288C586.688 102.308 586.574 102.184 586.445 101.993C586.059 101.431 585.655 101.188 585.035 101.146C584.126 101.084 583.54 101.56 583.545 102.355C583.545 102.588 583.578 102.726 583.674 102.917C583.874 103.331 584.245 103.579 585.412 104.084C587.559 105.008 588.478 105.617 589.05 106.484C589.688 107.45 589.831 108.993 589.397 110.141C588.921 111.388 587.74 112.236 586.078 112.517C585.564 112.607 584.345 112.593 583.793 112.493C582.588 112.279 581.445 111.684 580.74 110.903C580.464 110.598 579.926 109.803 579.959 109.746C579.974 109.727 580.097 109.65 580.235 109.569C580.369 109.493 580.874 109.203 581.35 108.926L582.212 108.426L582.393 108.693C582.645 109.079 583.197 109.607 583.531 109.784C584.488 110.288 585.802 110.217 586.45 109.636C586.726 109.384 586.84 109.122 586.84 108.736C586.84 108.388 586.797 108.236 586.616 107.974C586.383 107.641 585.907 107.36 584.555 106.774C583.007 106.107 582.34 105.693 581.731 105.036C581.378 104.655 581.045 104.046 580.907 103.536C580.793 103.112 580.764 102.05 580.855 101.622C581.174 100.127 582.302 99.0837 583.931 98.7741C584.459 98.6741 585.688 98.7122 586.207 98.8408Z" fill="#007ACC"/>
</g>
<rect x="602" y="85" width="30" height="30" rx="9" fill="#F4F4F4"/>
<g clip-path="url(#clip7_2017_2)">
<path d="M664.969 85H649.031C645.148 85 642 88.148 642 92.0312V107.969C642 111.852 645.148 115 649.031 115H664.969C668.852 115 672 111.852 672 107.969V92.0312C672 88.148 668.852 85 664.969 85Z" fill="#F4F4F4"/>
<path d="M656.916 88.3984C650.966 88.3984 651.337 90.9787 651.337 90.9787L651.344 93.6517H657.022V94.4545H649.089C649.089 94.4545 645.281 94.0225 645.281 100.026C645.281 106.029 648.604 105.817 648.604 105.817H650.588V103.031C650.588 103.031 650.481 99.7076 653.858 99.7076H659.489C659.489 99.7076 662.653 99.7587 662.653 96.6497V91.5093C662.653 91.5093 663.133 88.3984 656.916 88.3984ZM653.785 90.196C653.919 90.1959 654.052 90.2222 654.176 90.2735C654.3 90.3248 654.412 90.4001 654.507 90.4949C654.602 90.5898 654.677 90.7025 654.729 90.8265C654.78 90.9504 654.806 91.0833 654.806 91.2175C654.806 91.3517 654.78 91.4845 654.729 91.6085C654.677 91.7325 654.602 91.8451 654.507 91.94C654.412 92.0349 654.3 92.1101 654.176 92.1614C654.052 92.2127 653.919 92.239 653.785 92.2389C653.651 92.239 653.518 92.2126 653.394 92.1613C653.27 92.11 653.157 92.0348 653.062 91.9399C652.967 91.8451 652.892 91.7324 652.841 91.6085C652.79 91.4845 652.763 91.3517 652.763 91.2175C652.763 91.0833 652.79 90.9505 652.841 90.8265C652.892 90.7025 652.967 90.5899 653.062 90.495C653.157 90.4001 653.27 90.3249 653.394 90.2735C653.518 90.2222 653.651 90.1959 653.785 90.196Z" fill="url(#paint0_linear_2017_2)"/>
<path d="M657.085 111.714C663.034 111.714 662.663 109.134 662.663 109.134L662.656 106.46H656.978V105.658H664.912C664.912 105.658 668.719 106.09 668.719 100.086C668.719 94.0827 665.396 94.2956 665.396 94.2956H663.412V97.0815C663.412 97.0815 663.519 100.405 660.142 100.405H654.511C654.511 100.405 651.347 100.353 651.347 103.462V108.603C651.347 108.603 650.867 111.714 657.085 111.714ZM660.215 109.916C660.081 109.916 659.948 109.89 659.824 109.839C659.7 109.787 659.588 109.712 659.493 109.617C659.398 109.522 659.323 109.41 659.271 109.286C659.22 109.162 659.194 109.029 659.194 108.895C659.194 108.761 659.22 108.628 659.271 108.504C659.323 108.38 659.398 108.267 659.493 108.172C659.588 108.077 659.7 108.002 659.824 107.951C659.948 107.9 660.081 107.873 660.215 107.873C660.35 107.873 660.482 107.9 660.606 107.951C660.73 108.002 660.843 108.077 660.938 108.172C661.033 108.267 661.108 108.38 661.159 108.504C661.211 108.628 661.237 108.761 661.237 108.895C661.237 109.029 661.211 109.162 661.159 109.286C661.108 109.41 661.033 109.522 660.938 109.617C660.843 109.712 660.73 109.787 660.606 109.839C660.482 109.89 660.35 109.916 660.215 109.916Z" fill="url(#paint1_linear_2017_2)"/>
</g>
<rect x="682" y="85" width="30" height="30" rx="9" fill="#F4F4F4"/>
<g clip-path="url(#clip8_2017_2)">
<path d="M744.969 85H729.031C725.148 85 722 88.148 722 92.0312V107.969C722 111.852 725.148 115 729.031 115H744.969C748.852 115 752 111.852 752 107.969V92.0312C752 88.148 748.852 85 744.969 85Z" fill="#F4F4F4"/>
<path d="M734.98 109.67C729.632 109.67 725.281 105.319 725.281 99.9718C725.281 94.624 729.632 90.2734 734.98 90.2734C738.43 90.2734 741.648 92.1304 743.378 95.1195L739.181 97.5483C738.315 96.0521 736.705 95.1225 734.98 95.1225C732.306 95.1225 730.13 97.2979 730.13 99.9718C730.13 102.646 732.306 104.821 734.98 104.821C736.705 104.821 738.315 103.891 739.181 102.395L743.378 104.824C741.649 107.813 738.43 109.67 734.98 109.67Z" fill="#00599C"/>
<path d="M744.678 99.4329H743.6V98.3552H742.523V99.4329H741.445V100.51H742.523V101.588H743.6V100.51H744.678V99.4329ZM748.719 99.4329H747.641V98.3552H746.564V99.4329H745.486V100.51H746.564V101.588H747.641V100.51H748.719V99.4329Z" fill="#00599C"/>
</g>
<rect x="762" y="85" width="30" height="30" rx="9" fill="#F4F4F4"/>
<g clip-path="url(#clip9_2017_2)">
<path d="M824.969 85H809.031C805.148 85 802 88.148 802 92.0312V107.969C802 111.852 805.148 115 809.031 115H824.969C828.852 115 832 111.852 832 107.969V92.0312C832 88.148 828.852 85 824.969 85Z" fill="#F4F4F4"/>
<path d="M825.751 103.52L825.836 103.181C827.08 98.2329 824.055 92.3517 818.909 89.2697C821.171 92.3233 822.16 96.0274 821.284 99.2507C821.199 99.5335 821.114 99.8163 821.001 100.099C820.888 100.014 820.746 99.9294 820.548 99.8445C820.548 99.8445 815.431 96.6777 809.889 91.1075C809.747 90.9662 812.858 95.5467 816.364 99.2507C814.696 98.3177 810.087 94.9529 807.146 92.2951C807.514 92.8889 807.938 93.4827 808.39 94.0198C810.822 97.1301 814.017 100.947 817.834 103.888C815.148 105.528 811.359 105.669 807.598 103.888C806.665 103.464 805.789 102.927 804.969 102.333C806.552 104.878 809.012 107.083 812.009 108.384C815.572 109.91 819.135 109.826 821.764 108.412C821.764 108.412 821.793 108.412 821.793 108.384C821.906 108.327 822.019 108.242 822.132 108.186C823.404 107.535 825.892 106.885 827.25 109.486C827.646 110.08 828.352 106.687 825.751 103.52Z" fill="#F05138"/>
</g>
<rect x="842" y="85" width="30" height="30" rx="9" fill="#F4F4F4"/>
<g clip-path="url(#clip10_2017_2)">
<path d="M544.969 125H529.031C525.148 125 522 128.148 522 132.031V147.969C522 151.852 525.148 155 529.031 155H544.969C548.852 155 552 151.852 552 147.969V132.031C552 128.148 548.852 125 544.969 125Z" fill="#F4F4F4"/>
<path d="M547.547 150.547H526.453V129.453H547.547L537 140L547.547 150.547Z" fill="url(#paint2_linear_2017_2)"/>
</g>
<rect x="562" y="125" width="30" height="30" rx="9" fill="#F4F4F4"/>
<g clip-path="url(#clip11_2017_2)">
<path d="M624.969 125H609.031C605.148 125 602 128.148 602 132.031V147.969C602 151.852 605.148 155 609.031 155H624.969C628.852 155 632 151.852 632 147.969V132.031C632 128.148 628.852 125 624.969 125Z" fill="#F4F4F4"/>
<mask id="mask3_2017_2" style="mask-type:luminance" maskUnits="userSpaceOnUse" x="608" y="129" width="18" height="22">
<path d="M608.211 129.453H625.747V150.547H608.211V129.453Z" fill="white"/>
</mask>
<g mask="url(#mask3_2017_2)">
<path d="M624.621 132.242C622.673 129.435 618.793 128.613 616.005 130.383L611.089 133.529C609.748 134.369 608.819 135.745 608.551 137.301C608.318 138.606 608.515 139.946 609.14 141.108C608.711 141.752 608.425 142.467 608.3 143.218C608.014 144.809 608.39 146.453 609.319 147.758C611.286 150.565 615.147 151.387 617.935 149.617L622.851 146.489C624.192 145.649 625.122 144.272 625.39 142.717C625.622 141.412 625.425 140.071 624.8 138.91C625.229 138.266 625.515 137.551 625.64 136.8C625.944 135.191 625.569 133.547 624.621 132.242Z" fill="#FF3E00"/>
<path d="M615.522 148.026C614.75 148.227 613.934 148.185 613.186 147.907C612.438 147.629 611.793 147.128 611.339 146.471C610.767 145.684 610.553 144.701 610.713 143.736C610.749 143.575 610.785 143.432 610.821 143.271L610.91 142.985L611.16 143.164C611.746 143.591 612.398 143.917 613.091 144.129L613.27 144.183L613.252 144.362C613.234 144.612 613.306 144.88 613.449 145.095C613.735 145.506 614.235 145.702 614.718 145.577C614.825 145.542 614.932 145.506 615.022 145.452L619.92 142.324C620.17 142.163 620.331 141.931 620.384 141.645C620.438 141.359 620.367 141.055 620.206 140.822C619.92 140.411 619.419 140.232 618.936 140.358C618.829 140.393 618.722 140.429 618.633 140.483L616.756 141.68C616.452 141.877 616.112 142.02 615.755 142.109C614.982 142.31 614.167 142.268 613.418 141.99C612.67 141.712 612.026 141.211 611.572 140.554C611.017 139.768 610.785 138.784 610.964 137.819C611.125 136.89 611.697 136.049 612.501 135.549L617.417 132.421C617.721 132.224 618.061 132.081 618.418 131.974C619.191 131.773 620.006 131.815 620.754 132.093C621.503 132.371 622.147 132.872 622.601 133.529C623.173 134.315 623.388 135.299 623.227 136.264C623.191 136.425 623.155 136.568 623.102 136.729L623.012 137.015L622.762 136.836C622.177 136.409 621.524 136.083 620.831 135.871L620.653 135.817L620.671 135.638C620.688 135.388 620.617 135.12 620.474 134.905C620.188 134.494 619.687 134.315 619.205 134.44C619.097 134.476 618.99 134.512 618.901 134.566L614.003 137.694C613.752 137.855 613.592 138.087 613.538 138.373C613.484 138.659 613.556 138.963 613.717 139.196C614.003 139.607 614.503 139.785 614.986 139.66C615.093 139.625 615.2 139.589 615.29 139.535L617.167 138.338C617.471 138.141 617.81 137.998 618.168 137.891C618.94 137.69 619.756 137.732 620.504 138.01C621.252 138.288 621.897 138.789 622.351 139.446C622.923 140.232 623.137 141.216 622.977 142.181C622.816 143.11 622.244 143.951 621.439 144.451L616.523 147.579C616.219 147.776 615.88 147.919 615.522 148.026Z" fill="white"/>
</g>
</g>
<rect x="642" y="125" width="30" height="30" rx="9" fill="#F4F4F4"/>
<g clip-path="url(#clip12_2017_2)">
<path d="M704.969 125H689.031C685.148 125 682 128.148 682 132.031V147.969C682 151.852 685.148 155 689.031 155H704.969C708.852 155 712 151.852 712 147.969V132.031C712 128.148 708.852 125 704.969 125Z" fill="#F4F4F4"/>
<path d="M708.612 131.75L697.616 151.413C697.389 151.819 696.806 151.821 696.575 151.417L685.361 131.752C685.11 131.312 685.487 130.779 685.986 130.868L696.993 132.835C697.063 132.848 697.135 132.848 697.206 132.835L707.983 130.87C708.48 130.78 708.858 131.309 708.612 131.75Z" fill="url(#paint3_linear_2017_2)"/>
<path d="M702.237 128.287L694.099 129.881C694.034 129.894 693.975 129.928 693.932 129.978C693.888 130.028 693.862 130.091 693.859 130.157L693.358 138.611C693.355 138.657 693.363 138.704 693.382 138.746C693.4 138.789 693.428 138.827 693.463 138.857C693.499 138.887 693.541 138.908 693.586 138.919C693.631 138.93 693.678 138.93 693.723 138.92L695.989 138.397C696.201 138.348 696.392 138.535 696.349 138.748L695.676 142.044C695.63 142.266 695.839 142.456 696.055 142.39L697.455 141.965C697.672 141.899 697.88 142.089 697.834 142.311L696.764 147.488C696.698 147.812 697.128 147.989 697.308 147.711L697.428 147.526L704.059 134.293C704.17 134.071 703.978 133.819 703.735 133.866L701.403 134.316C701.184 134.358 700.997 134.154 701.059 133.94L702.581 128.663C702.643 128.448 702.456 128.244 702.237 128.287Z" fill="url(#paint4_linear_2017_2)"/>
</g>
<rect x="722" y="125" width="30" height="30" rx="9" fill="#F4F4F4"/>
<g clip-path="url(#clip13_2017_2)">
<path d="M784.969 125H769.031C765.148 125 762 128.148 762 132.031V147.969C762 151.852 765.148 155 769.031 155H784.969C788.852 155 792 151.852 792 147.969V132.031C792 128.148 788.852 125 784.969 125Z" fill="#F4F4F4"/>
<path d="M777 142.221C778.208 142.221 779.186 141.242 779.186 140.035C779.186 138.827 778.208 137.848 777 137.848C775.793 137.848 774.814 138.827 774.814 140.035C774.814 141.242 775.793 142.221 777 142.221Z" fill="#00D8FF"/>
<path d="M777 135.589C779.936 135.589 782.662 136.011 784.718 136.718C787.196 137.571 788.719 138.864 788.719 140.035C788.719 141.254 787.105 142.628 784.444 143.509C782.433 144.175 779.787 144.523 777 144.523C774.143 144.523 771.438 144.197 769.404 143.502C766.831 142.622 765.281 141.231 765.281 140.035C765.281 138.873 766.736 137.591 769.178 136.739C771.242 136.02 774.036 135.589 777 135.589H777Z" stroke="#00D8FF" stroke-width="1.11388"/>
<path d="M773.131 137.825C774.597 135.282 776.324 133.13 777.964 131.703C779.941 129.983 781.822 129.309 782.835 129.894C783.892 130.503 784.275 132.588 783.71 135.333C783.283 137.408 782.262 139.874 780.87 142.288C779.442 144.763 777.808 146.943 776.19 148.357C774.143 150.147 772.163 150.795 771.127 150.197C770.121 149.617 769.736 147.716 770.219 145.175C770.627 143.028 771.65 140.392 773.13 137.825H773.131Z" stroke="#00D8FF" stroke-width="1.11388"/>
<path d="M773.134 142.294C771.664 139.754 770.662 137.183 770.244 135.049C769.741 132.478 770.097 130.512 771.11 129.926C772.166 129.314 774.163 130.023 776.259 131.884C777.843 133.291 779.47 135.407 780.866 137.818C782.297 140.291 783.37 142.796 783.787 144.904C784.315 147.571 783.888 149.609 782.852 150.209C781.848 150.791 780.009 150.175 778.048 148.487C776.392 147.062 774.619 144.859 773.134 142.294Z" stroke="#00D8FF" stroke-width="1.11388"/>
</g>
<rect x="802" y="125" width="30" height="30" rx="9" fill="#F4F4F4"/>
<g clip-path="url(#clip14_2017_2)">
<mask id="mask4_2017_2" style="mask-type:luminance" maskUnits="userSpaceOnUse" x="842" y="125" width="30" height="30">
<path d="M842 125H872V155H842V125Z" fill="white"/>
</mask>
<g mask="url(#mask4_2017_2)">
<path d="M864.969 125H849.031C845.148 125 842 128.148 842 132.031V147.969C842 151.852 845.148 155 849.031 155H864.969C868.852 155 872 151.852 872 147.969V132.031C872 128.148 868.852 125 864.969 125Z" fill="#F4F4F4"/>
<path fill-rule="evenodd" clip-rule="evenodd" d="M864.391 147.853C864.008 148.484 863.625 148.957 863.163 149.397C862.644 149.859 862.498 150.265 861.303 150.423C860.458 150.58 859.725 150.265 859.443 150.141C858.598 149.746 858.158 149.622 857.651 149.622C857.155 149.622 856.738 149.746 855.904 150.129C855.645 150.265 854.946 150.569 854.089 150.411C853.21 150.253 852.759 149.915 852.432 149.633C851.756 149.036 851.249 148.473 850.787 147.819L864.391 147.853Z" fill="#00A0E2"/>
<path fill-rule="evenodd" clip-rule="evenodd" d="M848.882 137.336C849.276 136.446 849.795 135.849 850.313 135.431C851.632 134.349 853.785 134.282 854.777 134.541C855.588 134.744 856.163 135.24 857.076 135.24C858.034 135.24 858.586 134.755 859.342 134.541C860.334 134.293 862.498 134.372 863.907 135.454C864.324 135.77 864.707 136.198 864.921 136.435C864.414 136.807 864.109 137.077 863.861 137.336H848.882Z" fill="#34BE2D"/>
<path fill-rule="evenodd" clip-rule="evenodd" d="M863.862 137.336C863.625 137.596 863.456 137.844 863.264 138.193C863.039 138.599 862.768 139.151 862.701 139.985H848.217C848.228 139.85 848.239 139.703 848.262 139.557C848.397 138.666 848.611 137.934 848.882 137.336H863.862Z" fill="#FFB400"/>
<path fill-rule="evenodd" clip-rule="evenodd" d="M862.701 139.985C862.689 140.24 862.689 140.496 862.701 140.752C862.735 141.372 862.949 142.059 863.23 142.611L848.499 142.578C848.296 141.687 848.183 140.774 848.217 139.985H862.701Z" fill="#FF7A00"/>
<path fill-rule="evenodd" clip-rule="evenodd" d="M863.23 142.611C863.346 142.851 863.485 143.077 863.647 143.288C864.617 144.528 865.034 144.528 865.789 144.911C865.733 145.046 865.688 145.17 865.631 145.283L849.355 145.249C849.04 144.561 848.713 143.592 848.499 142.578L863.23 142.611Z" fill="#F41E34"/>
<path fill-rule="evenodd" clip-rule="evenodd" d="M865.631 145.283C865.158 146.387 864.775 147.199 864.391 147.853L850.787 147.819C850.336 147.154 849.93 146.421 849.468 145.508C849.434 145.429 849.389 145.339 849.355 145.249L865.631 145.283Z" fill="#A2359C"/>
<path fill-rule="evenodd" clip-rule="evenodd" d="M860.908 131.171C860.829 131.735 860.548 132.456 860.097 132.918C859.612 133.436 858.857 134 858.406 134.282C858.158 134.44 857.515 134.462 856.986 134.519C856.918 134.045 856.907 133.639 857.054 133.2C857.245 132.681 857.493 131.937 857.888 131.419C858.372 130.776 858.925 130.337 859.229 130.179C859.635 129.976 860.311 129.672 860.897 129.57C860.92 130.089 860.999 130.675 860.908 131.171Z" fill="#34BE2D"/>
</g>
</g>
</g>
<defs>
<linearGradient id="paint0_linear_2017_2" x1="647.534" y1="90.4956" x2="659.148" y2="101.995" gradientUnits="userSpaceOnUse">
<stop stop-color="#387EB8"/>
<stop offset="1" stop-color="#366994"/>
</linearGradient>
<linearGradient id="paint1_linear_2017_2" x1="654.663" y1="97.8794" x2="667.136" y2="109.67" gradientUnits="userSpaceOnUse">
<stop stop-color="#FFE052"/>
<stop offset="1" stop-color="#FFC331"/>
</linearGradient>
<linearGradient id="paint2_linear_2017_2" x1="547.547" y1="129.453" x2="526.453" y2="150.547" gradientUnits="userSpaceOnUse">
<stop offset="0.003" stop-color="#E44857"/>
<stop offset="0.469" stop-color="#C711E1"/>
<stop offset="1" stop-color="#7F52FF"/>
</linearGradient>
<linearGradient id="paint3_linear_2017_2" x1="685.087" y1="130.165" x2="698.773" y2="148.751" gradientUnits="userSpaceOnUse">
<stop stop-color="#41D1FF"/>
<stop offset="1" stop-color="#BD34FE"/>
</linearGradient>
<linearGradient id="paint4_linear_2017_2" x1="696.361" y1="128.72" x2="698.837" y2="145.702" gradientUnits="userSpaceOnUse">
<stop stop-color="#FFEA83"/>
<stop offset="0.083" stop-color="#FFDD35"/>
<stop offset="1" stop-color="#FFA800"/>
</linearGradient>
<clipPath id="clip0_2017_2">
<rect x="522" y="45" width="350" height="110" rx="8" fill="white"/>
</clipPath>
<clipPath id="clip1_2017_2">
<rect width="30" height="30" fill="white" transform="translate(522 45)"/>
</clipPath>
<clipPath id="clip2_2017_2">
<rect width="30" height="30" fill="white" transform="translate(602 45)"/>
</clipPath>
<clipPath id="clip3_2017_2">
<rect width="30" height="30" fill="white" transform="translate(682 45)"/>
</clipPath>
<clipPath id="clip4_2017_2">
<rect width="30" height="30" fill="white" transform="translate(762 45)"/>
</clipPath>
<clipPath id="clip5_2017_2">
<rect width="30" height="30" fill="white" transform="translate(842 45)"/>
</clipPath>
<clipPath id="clip6_2017_2">
<rect width="30" height="30" fill="white" transform="translate(562 85)"/>
</clipPath>
<clipPath id="clip7_2017_2">
<rect width="30" height="30" fill="white" transform="translate(642 85)"/>
</clipPath>
<clipPath id="clip8_2017_2">
<rect width="30" height="30" fill="white" transform="translate(722 85)"/>
</clipPath>
<clipPath id="clip9_2017_2">
<rect width="30" height="30" fill="white" transform="translate(802 85)"/>
</clipPath>
<clipPath id="clip10_2017_2">
<rect width="30" height="30" fill="white" transform="translate(522 125)"/>
</clipPath>
<clipPath id="clip11_2017_2">
<rect width="30" height="30" fill="white" transform="translate(602 125)"/>
</clipPath>
<clipPath id="clip12_2017_2">
<rect width="30" height="30" fill="white" transform="translate(682 125)"/>
</clipPath>
<clipPath id="clip13_2017_2">
<rect width="30" height="30" fill="white" transform="translate(762 125)"/>
</clipPath>
<clipPath id="clip14_2017_2">
<rect width="30" height="30" fill="white" transform="translate(842 125)"/>
</clipPath>
</defs>
</svg>
