<svg width="1546" height="200" viewBox="0 0 1546 200" fill="none" xmlns="http://www.w3.org/2000/svg">
  <path fill="#fff" d="M0 0h1546v200H0z"/>
  <path d="M209 109.26c0 33.32-31.34 43.74-70 43.74s-70-10.42-70-43.74S100.34 62 139 62s70 13.94 70 47.26" fill="#000"/>
  <path d="M156.909 48.526c-10.476-1.735-17.671 10.779-18.902 19.544l30.496 5.049c.829-9.596-1.119-22.859-11.594-24.593m-42.661 0c10.476-1.735 17.671 10.779 18.902 19.544l-30.496 5.049c-.829-9.596 1.119-22.859 11.594-24.593" fill="#000"/>
  <circle cx="131.5" cy="99.5" r="15.5" fill="#ffc848"/>
  <ellipse cx="135.5" cy="97" rx="6.5" ry="10" fill="#000"/>
  <circle cx="171.5" cy="99.5" r="15.5" fill="#ffc848"/>
  <ellipse cx="175.5" cy="97" rx="6.5" ry="10" fill="#000"/>
  <path opacity=".7" d="M262.02 83.621h-1.543V66.22h1.543zm-11.778-5.644q2.774 0 4.619-.118a34 34 0 0 0 3.721-.449l.156 1.29a37 37 0 0 1-3.779.458q-1.866.127-4.717.147h-1.406v-1.328zm6.856-8.809h-6.719v9.297h-1.543V67.879h8.262zm13.476 2.383a9.7 9.7 0 0 1-.674 3.515 11 11 0 0 1-1.806 3.125q-1.133 1.368-2.461 2.051l-.938-1.21q1.25-.606 2.315-1.817a10.2 10.2 0 0 0 1.709-2.715q.644-1.504.644-2.95v-2.87h1.211zm.293 0q0 1.367.596 2.773a9 9 0 0 0 1.631 2.549q1.035 1.143 2.285 1.729l-.879 1.21q-1.347-.663-2.461-1.962a10.2 10.2 0 0 1-1.758-2.96 9.2 9.2 0 0 1-.644-3.34v-2.87h1.23zm3.906-2.266h-9.453v-1.27h9.453zm3.653 14.297h-1.524V66.219h1.524zm2.91-9.023h-3.262V73.25h3.262zm15.254 9.062h-1.543V66.22h1.543zm-9.238-16.055q1.289 0 2.294.752t1.573 2.12q.566 1.367.566 3.183t-.566 3.184q-.567 1.366-1.573 2.11a3.76 3.76 0 0 1-2.294.741q-1.29 0-2.295-.742-1.006-.742-1.573-2.11-.566-1.366-.566-3.183t.566-3.183q.567-1.368 1.573-2.12a3.73 3.73 0 0 1 2.295-.752m0 1.368q-.86 0-1.534.585-.673.587-1.045 1.641-.37 1.055-.371 2.461 0 1.388.371 2.451.372 1.065 1.045 1.64.675.577 1.534.577t1.533-.576q.673-.576 1.045-1.64.37-1.065.371-2.452 0-1.406-.371-2.46-.372-1.055-1.035-1.642a2.26 2.26 0 0 0-1.543-.585m26.621 14.687h-1.543V66.22h1.543zm-1.035-10.39h-5.918v-1.27h5.918zm-10.879 5.703h-1.543V68.172h1.543zm-.215-.82a55 55 0 0 0 4.111-.177 34 34 0 0 0 3.721-.527l.195 1.27q-1.972.39-3.867.556t-4.16.166h-1.328v-1.289zm25.957-6.563q0 1.778-.684 3.525a11.2 11.2 0 0 1-1.826 3.115q-1.142 1.368-2.51 2.051l-.918-1.21q1.231-.607 2.305-1.807a9.9 9.9 0 0 0 1.719-2.706q.644-1.503.644-2.968V68.68h1.27zm.273 0q0 1.425.635 2.851.634 1.425 1.719 2.53 1.084 1.103 2.353 1.67l-.859 1.21q-1.407-.644-2.568-1.914a9.7 9.7 0 0 1-1.836-2.93 9 9 0 0 1-.674-3.417V68.68h1.23zm4.141-2.266h-9.785v-1.27h9.785zm3.965 14.297h-1.543V66.219h1.543zm11.738-8.594h-8.027v-7.441h8.027zm-6.523-1.23h5.039v-4.961h-5.039zm11.328 2.734h-1.524V66.22h1.524zm2.617-4.648h-3.047v-1.27h3.047zm-8.184 5.234q1.758 0 3.047.381 1.288.381 1.983 1.113.693.733.693 1.748t-.693 1.748-1.973 1.114-3.057.4q-1.777-.02-3.066-.4-1.29-.38-1.992-1.114a2.44 2.44 0 0 1-.703-1.748q0-1.016.703-1.748.703-.733 2.002-1.113t3.056-.38m0 1.25q-1.289 0-2.246.234-.957.236-1.465.684-.507.45-.507 1.074t.507 1.075 1.455.683 2.256.254q1.329-.02 2.276-.254t1.455-.684q.508-.448.508-1.074 0-.624-.508-1.074t-1.465-.683q-.957-.235-2.266-.235m14.219-8.652q0 1.269-.498 2.539a7.3 7.3 0 0 1-1.426 2.285 6.2 6.2 0 0 1-2.158 1.543l-.84-1.191a6.3 6.3 0 0 0 1.953-1.338q.84-.85 1.289-1.856.45-1.005.45-1.982v-2.364h1.23zm.234 0q0 .957.44 1.885a5.4 5.4 0 0 0 1.25 1.67q.81.741 1.885 1.152l-.801 1.172a6.3 6.3 0 0 1-2.139-1.387 6.1 6.1 0 0 1-1.377-2.07 6.5 6.5 0 0 1-.469-2.422v-2.364h1.211zm9.571 7.285h-1.465V66.238h1.465zm-.977-4.785h-3.32v-1.27h3.32zm-2.793 4.238h-1.445V66.57h1.445zm-1.972.938q1.796 0 3.115.36 1.318.363 2.021 1.065.703.704.703 1.68 0 .957-.703 1.65-.703.694-2.021 1.065-1.319.37-3.115.371-1.797 0-3.116-.371-1.318-.371-2.011-1.065a2.25 2.25 0 0 1-.694-1.65q0-.976.694-1.68.693-.702 2.011-1.064 1.319-.361 3.116-.361m0 1.171q-1.31 0-2.286.225t-1.494.664-.517 1.045q0 .586.517 1.016.517.429 1.485.654.966.225 2.295.225t2.294-.225q.967-.225 1.495-.654.527-.43.527-1.016 0-.606-.527-1.045-.528-.44-1.504-.664-.977-.225-2.285-.225" fill="#000"/>
  <path d="M253.587 115.939h.761l7.255-8.089h5.529l-8.944 9.908h-.946l-3.655 3.878zm-4.286-14.806h4.713V128h-4.713zm6.049 17.682 3.191-3.321L267.596 128h-5.641zM274.684 128h-4.713v-26.867h4.62v10.131h.222q.724-1.745 2.227-2.709 1.503-.966 3.767-.965 2.115 0 3.673.89 1.56.873 2.413 2.58t.853 4.1V128h-4.713v-12.116q0-1.354-.482-2.32a3.25 3.25 0 0 0-1.355-1.465q-.89-.52-2.152-.52-1.28 0-2.264.538-.964.538-1.54 1.596-.556 1.039-.556 2.468zm16.068-20.15h4.824l3.563 14.194h.185l3.618-14.194h4.769l3.637 14.12h.185l3.507-14.12h4.824L314.149 128h-4.917l-3.803-13.638h-.26L301.402 128h-4.935zm44.309 10.91h-12.098v-3.897h12.098zm12.153 9.593q-2.375 0-4.268-1.225-1.892-1.243-2.987-3.6-1.076-2.356-1.076-5.585 0-3.266 1.095-5.603 1.094-2.356 2.987-3.544 1.893-1.206 4.249-1.206 1.67 0 2.82.556 1.15.538 1.781 1.281a10 10 0 0 1 1.169 1.744h.167v-10.038h4.75V128h-4.638v-3.173h-.279a9.4 9.4 0 0 1-1.206 1.726q-.63.705-1.781 1.261-1.15.539-2.783.539m1.28-3.878q1.521 0 2.598-.817 1.076-.816 1.633-2.301.575-1.503.575-3.451 0-1.967-.557-3.414-.556-1.448-1.633-2.226-1.075-.798-2.616-.798-1.521 0-2.598.816-1.075.798-1.632 2.264t-.557 3.358q0 1.93.557 3.414.557 1.467 1.632 2.32 1.077.834 2.598.835m23.119 3.915q-2.987 0-5.195-1.262-2.208-1.261-3.414-3.6-1.188-2.338-1.188-5.473 0-3.1 1.188-5.474 1.206-2.394 3.358-3.692t5.01-1.299q2.579 0 4.657 1.095 2.079 1.094 3.303 3.395 1.225 2.283 1.225 5.659v1.485h-16.495v-3.21h11.967q0-1.373-.575-2.45a4.2 4.2 0 0 0-1.633-1.688q-1.038-.612-2.393-.612-1.448 0-2.561.686a4.84 4.84 0 0 0-1.744 1.856 5.46 5.46 0 0 0-.631 2.523v2.746q0 1.763.631 3.043.65 1.262 1.818 1.93 1.17.668 2.728.668 1.002 0 1.8-.278a4.8 4.8 0 0 0 1.391-.724q.576-.463.872-1.095h4.639a7 7 0 0 1-1.614 3.043q-1.169 1.299-3.006 2.023-1.837.705-4.138.705m22.841-.39h-5.232l-7.162-20.15h5.046l4.639 14.992h.223l4.638-14.992h5.047z" fill="#000"/>
  <path d="M1326.67 65.667h-13.34a6.66 6.66 0 0 0-6.66 6.666v13.334a6.66 6.66 0 0 0 6.66 6.666h13.34c3.68 0 6.66-2.984 6.66-6.666V72.333a6.66 6.66 0 0 0-6.66-6.666" stroke="#000" stroke-width="2" stroke-linecap="round" stroke-linejoin="round"/>
  <path d="M1327.33 71.667h.02m-2.02 6.493a5.27 5.27 0 0 1-.54 3.239 5.3 5.3 0 0 1-2.33 2.307 5.36 5.36 0 0 1-3.25.502 5.3 5.3 0 0 1-2.92-1.495 5.3 5.3 0 0 1-1.5-2.923c-.18-1.108 0-2.244.5-3.246a5.4 5.4 0 0 1 2.31-2.336 5.34 5.34 0 0 1 6.23.963c.81.81 1.34 1.857 1.5 2.989M1010 133.333V128a6.38 6.38 0 0 0-1.33-4.667c4 0 8-2.666 8-7.333a7.2 7.2 0 0 0-1.34-4.667 9.7 9.7 0 0 0 0-4.666s-1.33 0-4 2a28.7 28.7 0 0 0-10.66 0c-2.67-2-4.003-2-4.003-2a9.2 9.2 0 0 0 0 4.666 7.2 7.2 0 0 0-1.334 4.667c0 4.667 4 7.333 7.997 7.333-.52.654-.9 1.4-1.13 2.2s-.29 1.64-.2 2.467v5.333" stroke="#000" stroke-width="2" stroke-linecap="round" stroke-linejoin="round"/>
  <path d="M1002 128c-6.013 2.667-6.667-2.667-9.333-2.667m340.663-12-11.98 7.636a2.67 2.67 0 0 1-2.68 0l-12-7.636" stroke="#000" stroke-width="2" stroke-linecap="round" stroke-linejoin="round"/>
  <path d="M1330.67 109.333h-21.34a2.663 2.663 0 0 0-2.66 2.667v16a2.663 2.663 0 0 0 2.66 2.667h21.34c1.47 0 2.66-1.194 2.66-2.667v-16a2.663 2.663 0 0 0-2.66-2.667m-324.67-17c7.36 0 13.33-5.97 13.33-13.333s-5.97-13.333-13.33-13.333c-7.364 0-13.333 5.97-13.333 13.333s5.969 13.333 13.333 13.333" stroke="#000" stroke-width="2" stroke-linecap="round" stroke-linejoin="round"/>
  <path d="M992.667 79h26.663M1006 65.667A19.35 19.35 0 0 0 1000.67 79c0 4.964 1.91 9.738 5.33 13.333A19.35 19.35 0 0 0 1011.33 79c0-4.964-1.91-9.739-5.33-13.333" stroke="#000" stroke-width="2" stroke-linecap="round" stroke-linejoin="round"/>
  <a href="https://khw.dev" target="blank_"><path d="M1036.72 85h-1.51V72.273h1.51v4.676h.13c.23-.515.58-.914 1.03-1.195.46-.281 1.05-.422 1.78-.422.67 0 1.25.132 1.73.396.49.263.86.665 1.13 1.204q.39.808.39 2.004V85h-1.51v-5.959c0-.492-.09-.917-.26-1.274a1.83 1.83 0 0 0-.76-.809c-.33-.182-.72-.272-1.18-.272-.48 0-.9.1-1.27.298a2.2 2.2 0 0 0-.88.888q-.33.59-.33 1.397zm12.78-8.28h-4.97v-1.265h4.97zm-2-3.55v9.088c0 .386.06.682.17.888s.25.345.44.421c.18.077.39.115.64.115.29 0 .59-.012.89-.035v1.406q-.45.07-1.05.07c-.45 0-.87-.094-1.27-.281a2.4 2.4 0 0 1-.97-.844c-.25-.375-.38-.826-.38-1.354V73.17zm8.12 3.55h-4.97v-1.265h4.97zm-2-3.55v9.088c0 .386.05.682.16.888.12.205.26.345.44.421.19.077.4.115.65.115.29 0 .59-.012.89-.035v1.406q-.45.07-1.05.07c-.45 0-.87-.094-1.27-.281s-.72-.469-.97-.844c-.26-.375-.38-.826-.38-1.354V73.17zm3.95 2.285h1.46v1.512h.18c.18-.305.37-.563.54-.774.18-.21.45-.407.82-.588.37-.182.83-.273 1.4-.273.79 0 1.5.2 2.11.598q.93.597 1.44 1.714t.51 2.61q0 1.476-.51 2.602t-1.44 1.73q-.915.607-2.1.607-.825 0-1.38-.28c-.38-.188-.66-.39-.85-.607a5 5 0 0 1-.54-.765h-.13v5.045h-1.51zm1.48 4.764c0 .715.1 1.345.32 1.89q.315.817.93 1.274t1.47.457c.59 0 1.09-.158 1.51-.475q.615-.474.93-1.292c.2-.545.31-1.163.31-1.854 0-.68-.11-1.286-.31-1.82-.21-.533-.51-.952-.92-1.256s-.92-.457-1.52-.457c-.58 0-1.08.146-1.48.439-.41.293-.71.703-.92 1.23-.22.528-.32 1.149-.32 1.864m14.25-2.285c-.1-.422-.31-.748-.64-.976q-.48-.343-1.29-.343c-.39 0-.73.062-1.04.185q-.45.185-.72.518c-.17.223-.26.47-.26.739 0 .316.13.586.4.808q.405.335 1.23.528l1.43.351c.85.2 1.49.513 1.91.94.43.428.64.976.64 1.644a2.6 2.6 0 0 1-.44 1.477c-.3.433-.72.773-1.29 1.02-.56.245-1.23.368-2.02.368-.71 0-1.33-.102-1.84-.307a2.83 2.83 0 0 1-1.24-.914 3.07 3.07 0 0 1-.59-1.468h1.58c.09.457.31.8.65 1.028q.51.343 1.41.343.66 0 1.17-.176c.33-.117.59-.287.77-.51q.27-.333.27-.773c0-.34-.12-.624-.38-.852-.25-.229-.64-.402-1.18-.52l-1.44-.333c-.84-.2-1.47-.519-1.9-.958-.44-.44-.65-.976-.65-1.609q0-.808.45-1.45c.29-.427.71-.761 1.24-1.002.54-.24 1.15-.36 1.84-.36.65 0 1.21.108 1.71.325q.735.326 1.17.914c.3.393.47.847.53 1.363zm4.7 7.172c-.2 0-.39-.053-.56-.159a1.13 1.13 0 0 1-.57-.984 1.12 1.12 0 0 1 .57-.976 1.12 1.12 0 0 1 1.12 0c.18.1.31.238.41.413q.15.264.15.563 0 .3-.15.562a1.1 1.1 0 0 1-.41.422c-.18.106-.36.159-.56.159m0-7.067c-.2 0-.39-.053-.56-.158a1.13 1.13 0 0 1-.57-.984 1.12 1.12 0 0 1 .57-.976 1.12 1.12 0 0 1 1.12 0c.18.1.31.237.41.413q.15.264.15.563t-.15.562c-.1.176-.23.316-.41.422s-.36.158-.56.158m3.92 8.877h-1.37l4.09-15.24h1.39zm6.01 0h-1.37l4.09-15.24h1.39zm6.98-7.242h.3l4.13-4.219h1.86l-4.45 4.518h-.14l-1.68 1.564zm-1.39-7.4h1.51V85h-1.51zm2.37 8.033 1.06-1.055L1101.5 85h-1.92zm8.44 4.693h-1.51V72.273h1.51v4.676h.12c.24-.515.58-.914 1.04-1.195s1.05-.422 1.78-.422c.66 0 1.24.132 1.73.396.48.263.86.665 1.12 1.204.27.539.4 1.207.4 2.004V85h-1.51v-5.959q0-.738-.27-1.274a1.8 1.8 0 0 0-.75-.809c-.33-.182-.72-.272-1.18-.272-.48 0-.91.1-1.28.298-.36.2-.66.496-.87.888q-.33.59-.33 1.397zm7.86-9.545h1.6l2.04 7.277h.08l2.03-7.277h1.61l1.99 7.242h.1l2.04-7.242h1.59l-2.9 9.545h-1.5l-2.07-7.277h-.14L1116.6 85h-1.51zm14.53 9.65c-.19 0-.38-.052-.56-.158a1.2 1.2 0 0 1-.41-.422 1.1 1.1 0 0 1-.15-.562q0-.3.15-.563a1.11 1.11 0 0 1 .97-.562q.3 0 .57.15a1.12 1.12 0 0 1 .56.976q0 .298-.15.561c-.1.176-.24.317-.41.422a1.1 1.1 0 0 1-.57.159m7.11.088q-1.185 0-2.1-.606c-.62-.404-1.1-.981-1.45-1.731q-.51-1.125-.51-2.602 0-1.494.51-2.61c.35-.745.83-1.316 1.45-1.714.61-.399 1.32-.598 2.11-.598.57 0 1.03.09 1.4.273.37.181.64.377.82.588.17.211.36.47.54.774h.11v-4.694h1.53V85h-1.48v-1.459h-.16c-.2.305-.38.563-.56.773-.17.211-.45.41-.82.598s-.83.281-1.39.281m.21-1.353q.855 0 1.47-.457c.41-.305.72-.73.94-1.275.21-.544.31-1.174.31-1.89 0-.714-.1-1.335-.31-1.862-.2-.528-.51-.938-.92-1.231s-.91-.44-1.49-.44q-.885 0-1.5.458-.615.456-.93 1.256c-.21.534-.32 1.14-.32 1.82 0 .691.11 1.31.32 1.854q.315.818.93 1.292t1.5.475m10.83 1.353q-1.365 0-2.37-.606a4 4 0 0 1-1.55-1.714c-.37-.738-.55-1.594-.55-2.566 0-.973.18-1.837.55-2.593.36-.756.87-1.342 1.52-1.758q.975-.624 2.25-.624c.73 0 1.4.158 2.03.475.62.316 1.12.832 1.51 1.546.38.715.58 1.63.58 2.743v.632h-7.38v-1.283h5.85c0-.539-.11-1.016-.32-1.432a2.4 2.4 0 0 0-.9-.985c-.4-.24-.85-.36-1.37-.36q-.84 0-1.47.413t-.99 1.108c-.23.462-.35.958-.35 1.485v.861c0 .703.13 1.304.37 1.802.25.498.59.876 1.04 1.134.44.257.96.386 1.55.386.36 0 .69-.05.98-.149q.435-.15.75-.387.3-.238.48-.553h1.62c-.16.48-.41.902-.76 1.265q-.525.546-1.32.853a4.8 4.8 0 0 1-1.75.307m9.96-.193h-1.56l-3.52-9.545h1.65l2.61 7.576h.1l2.6-7.576h1.66zM1034 87.874h22.35v1.222H1034zm26.31 0h98.51v1.222h-98.51z" opacity=".7" fill="#000"/>
</a>
  <a href="https://www.instagram.com/khw.dev" target="blank_"><path d="M1355.51 83.33a2.77 2.77 0 0 1-1.57-.457q-.69-.457-1.08-1.292c-.26-.557-.4-1.21-.4-1.96 0-.738.14-1.389.4-1.951s.63-.993 1.09-1.292.99-.448 1.57-.448c.39 0 .72.067 1 .202.27.135.49.29.64.466.15.175.27.357.37.545h.09V76.07h1.33v5.889h-1.33c-.12.21-.25.413-.4.606-.15.194-.36.37-.65.528s-.64.237-1.06.237m.22-1.283c.41 0 .76-.103 1.04-.308s.5-.489.64-.852c.15-.364.22-.791.22-1.284 0-.48-.07-.902-.22-1.265a1.76 1.76 0 0 0-.64-.835c-.28-.193-.63-.29-1.04-.29-.39 0-.74.102-1.02.308-.29.205-.51.489-.65.852-.15.363-.22.773-.22 1.23 0 .458.07.87.22 1.24q.24.553.66.879c.29.217.63.325 1.01.325m.11 4.781q-2.13 0-3.69-.87a5.9 5.9 0 0 1-2.4-2.496q-.84-1.626-.84-3.84 0-2.058.9-3.692a6.6 6.6 0 0 1 2.49-2.567c1.06-.62 2.26-.931 3.61-.931 1.38 0 2.6.287 3.67.861a6.23 6.23 0 0 1 2.47 2.382q.9 1.52.87 3.401c0 .88-.13 1.647-.41 2.303-.27.656-.66 1.157-1.14 1.503-.49.346-1.03.518-1.63.518-.37 0-.72-.07-1.03-.21a1.84 1.84 0 0 1-.73-.572c-.17-.24-.26-.5-.26-.782l1.23-.633q.015.51.24.765c.14.17.36.255.64.255q.54 0 .96-.396c.27-.263.49-.63.64-1.099s.23-1.001.23-1.6q.015-1.634-.72-2.882a5 5 0 0 0-2.05-1.925c-.87-.45-1.87-.677-2.98-.677q-1.68 0-3 .8a5.5 5.5 0 0 0-2.02 2.171 6.5 6.5 0 0 0-.71 3.006c0 1.195.22 2.247.65 3.155a4.8 4.8 0 0 0 1.92 2.11q1.275.747 3.09.73c.66-.013 1.21-.045 1.67-.097q.69-.08 1.44-.29v1.195c-.48.129-.98.228-1.49.299q-.78.105-1.62.105m10.6-7.154h.3l4.13-4.219h1.86l-4.44 4.518h-.15l-1.68 1.564zm-1.39-7.4h1.51V85h-1.51zm2.37 8.033 1.06-1.055 4.55 5.748h-1.91zm8.44 4.693h-1.51V72.273h1.51v4.676h.12c.24-.515.58-.914 1.04-1.195s1.05-.422 1.78-.422c.66 0 1.24.132 1.73.396.48.263.86.665 1.12 1.204.27.539.4 1.207.4 2.004V85h-1.51v-5.959q0-.738-.27-1.274a1.76 1.76 0 0 0-.75-.809c-.33-.182-.72-.272-1.18-.272-.48 0-.91.1-1.27.298-.37.2-.67.496-.88.888q-.33.59-.33 1.397zm7.86-9.545h1.6l2.04 7.277h.09l2.02-7.277h1.61l1.99 7.242h.11l2.03-7.242h1.59L1393.9 85h-1.5l-2.07-7.277h-.14L1388.13 85h-1.51zm14.54 9.65q-.3 0-.57-.158a1.2 1.2 0 0 1-.41-.422 1.1 1.1 0 0 1-.15-.562q0-.3.15-.563a1.11 1.11 0 0 1 .98-.562 1.11 1.11 0 0 1 .97.563q.15.263.15.562t-.15.562c-.1.176-.24.317-.41.422-.18.106-.36.159-.56.159m7.1.088q-1.185 0-2.1-.606-.93-.606-1.44-1.731c-.35-.75-.52-1.618-.52-2.602 0-.996.17-1.866.52-2.61q.51-1.117 1.44-1.714c.61-.399 1.32-.598 2.12-.598.56 0 1.02.09 1.39.273.37.181.64.377.82.588q.27.317.54.774h.11v-4.694h1.53V85h-1.48v-1.459h-.16a6.5 6.5 0 0 1-.56.773c-.17.211-.45.41-.82.598-.36.188-.83.281-1.39.281m.21-1.353q.855 0 1.47-.457c.42-.305.73-.73.94-1.275s.31-1.174.31-1.89q0-1.071-.3-1.862-.315-.792-.93-1.231c-.41-.293-.91-.44-1.49-.44q-.885 0-1.5.458-.615.456-.93 1.256c-.21.534-.31 1.14-.31 1.82 0 .691.1 1.31.31 1.854q.315.818.93 1.292t1.5.475m10.83 1.353c-.91 0-1.69-.202-2.37-.606a4 4 0 0 1-1.55-1.714c-.37-.738-.55-1.594-.55-2.566 0-.973.18-1.837.55-2.593.36-.756.87-1.342 1.52-1.758s1.4-.624 2.26-.624c.72 0 1.4.158 2.02.475s1.12.832 1.51 1.546.58 1.63.58 2.743v.632h-7.38v-1.283h5.85c0-.539-.11-1.016-.32-1.432a2.4 2.4 0 0 0-.9-.985c-.39-.24-.85-.36-1.36-.36-.57 0-1.06.138-1.48.413q-.63.413-.99 1.108c-.23.462-.35.958-.35 1.485v.861c0 .703.13 1.304.37 1.802.25.498.59.876 1.04 1.134.44.257.96.386 1.55.386.36 0 .69-.05.98-.149q.435-.15.75-.387.3-.238.48-.553h1.62c-.15.48-.41.902-.76 1.265q-.525.546-1.32.853a4.8 4.8 0 0 1-1.75.307m9.96-.193h-1.56l-3.52-9.545h1.66l2.6 7.576h.1l2.6-7.576h1.66zM1348 87.874h82.35v1.222H1348z" opacity=".7" fill="#000"/>
</a>
  <a href="https://github.com/khw-dev" target="blank_"><path d="M1036.72 126h-1.51v-12.727h1.51v4.676h.13c.23-.515.58-.914 1.03-1.195.46-.281 1.05-.422 1.78-.422.67 0 1.25.132 1.73.396.49.263.86.665 1.13 1.204q.39.808.39 2.004V126h-1.51v-5.959c0-.492-.09-.917-.26-1.274a1.83 1.83 0 0 0-.76-.809c-.33-.182-.72-.272-1.18-.272-.48 0-.9.099-1.27.298-.37.2-.66.495-.88.888q-.33.589-.33 1.398zm12.78-8.279h-4.97v-1.266h4.97zm-2-3.551v9.088c0 .387.06.682.17.888s.25.345.44.421c.18.077.39.115.64.115.29 0 .59-.012.89-.036v1.407q-.45.07-1.05.07c-.45 0-.87-.094-1.27-.281a2.4 2.4 0 0 1-.97-.844c-.25-.375-.38-.826-.38-1.353v-9.475zm8.12 3.551h-4.97v-1.266h4.97zm-2-3.551v9.088c0 .387.05.682.16.888.12.205.26.345.44.421.19.077.4.115.65.115.29 0 .59-.012.89-.036v1.407q-.45.07-1.05.07c-.45 0-.87-.094-1.27-.281s-.72-.469-.97-.844c-.26-.375-.38-.826-.38-1.353v-9.475zm3.95 2.285h1.46v1.512h.18c.18-.305.37-.563.54-.774.18-.211.45-.407.82-.589.37-.181.83-.272 1.4-.272.79 0 1.5.199 2.11.598q.93.597 1.44 1.714t.51 2.61q0 1.476-.51 2.601t-1.44 1.732q-.915.606-2.1.606-.825 0-1.38-.281c-.38-.187-.66-.39-.85-.606a5 5 0 0 1-.54-.765h-.13v5.045h-1.51zm1.48 4.764c0 .715.1 1.344.32 1.889q.315.817.93 1.275t1.47.457c.59 0 1.09-.158 1.51-.475q.615-.474.93-1.292c.2-.545.31-1.163.31-1.854 0-.68-.11-1.286-.31-1.82-.21-.533-.51-.952-.92-1.256s-.92-.457-1.52-.457c-.58 0-1.08.146-1.48.439-.41.293-.71.703-.92 1.23-.22.528-.32 1.149-.32 1.864m14.25-2.285c-.1-.422-.31-.747-.64-.976q-.48-.343-1.29-.343c-.39 0-.73.062-1.04.185q-.45.185-.72.518c-.17.223-.26.469-.26.739 0 .316.13.586.4.808q.405.335 1.23.528l1.43.351c.85.199 1.49.513 1.91.941.43.427.64.975.64 1.643a2.6 2.6 0 0 1-.44 1.477c-.3.433-.72.773-1.29 1.019-.56.246-1.23.369-2.02.369-.71 0-1.33-.102-1.84-.307a2.83 2.83 0 0 1-1.24-.914 3.07 3.07 0 0 1-.59-1.468h1.58c.09.457.31.8.65 1.028q.51.343 1.41.343.66 0 1.17-.176c.33-.117.59-.287.77-.51q.27-.333.27-.773c0-.34-.12-.624-.38-.853-.25-.228-.64-.401-1.18-.518l-1.44-.334c-.84-.199-1.47-.519-1.9-.958-.44-.44-.65-.976-.65-1.608q0-.81.45-1.451c.29-.427.71-.761 1.24-1.002.54-.24 1.15-.36 1.84-.36.65 0 1.21.108 1.71.325q.735.326 1.17.914c.3.393.47.847.53 1.363zm4.7 7.171c-.2 0-.39-.052-.56-.158a1.1 1.1 0 0 1-.42-.422q-.15-.263-.15-.562t.15-.563.42-.413a1.13 1.13 0 0 1 1.12 0c.18.1.31.238.41.413a1.12 1.12 0 0 1 0 1.125 1.1 1.1 0 0 1-.41.422 1.07 1.07 0 0 1-.56.158m0-7.066c-.2 0-.39-.053-.56-.158a1.134 1.134 0 0 1-.42-1.547q.15-.264.42-.413a1.12 1.12 0 0 1 1.68.975q0 .3-.15.563c-.1.176-.23.316-.41.422a1.1 1.1 0 0 1-.56.158m3.92 8.877h-1.37l4.09-15.24h1.39zm6.01 0h-1.37l4.09-15.24h1.39zm9.46 1.863c-.77 0-1.44-.108-2.03-.325-.6-.217-1.06-.533-1.41-.949s-.55-.917-.61-1.503h1.59c.1.48.37.844.8 1.09.42.246.98.369 1.66.369q1.26 0 1.95-.563c.45-.375.68-.949.68-1.722v-1.934h-.12c-.16.281-.34.53-.53.747-.18.217-.47.416-.84.598-.38.182-.84.272-1.41.272-.77 0-1.46-.19-2.08-.571s-1.1-.932-1.45-1.652c-.35-.721-.53-1.568-.53-2.54 0-.961.18-1.802.52-2.523q.525-1.08 1.44-1.661c.62-.387 1.32-.58 2.12-.58.56 0 1.03.091 1.4.272s.63.367.8.554q.24.281.6.809h.12v-1.512h1.48v9.809q0 1.177-.54 1.968-.54.792-1.47 1.169c-.62.252-1.33.378-2.14.378m-.06-5.273c.58 0 1.07-.135 1.48-.404q.615-.405.93-1.152c.21-.498.32-1.098.32-1.802 0-.691-.11-1.297-.32-1.819-.21-.521-.52-.926-.92-1.213s-.9-.43-1.49-.43c-.58 0-1.08.152-1.49.457q-.615.456-.93 1.239a4.7 4.7 0 0 0-.32 1.766c0 .668.11 1.254.32 1.758q.315.756.93 1.178c.41.281.91.422 1.49.422m6.61-8.051h1.52V126h-1.52zm.76-1.582c-.19 0-.36-.044-.53-.132a.96.96 0 0 1-.38-.369.92.92 0 0 1 0-1.011 1 1 0 0 1 .38-.36c.17-.088.34-.132.53-.132q.3 0 .54.132.255.132.39.36c.09.153.14.323.14.51 0 .176-.05.343-.14.501a.93.93 0 0 1-.39.369q-.24.132-.54.132m7.33 2.848h-4.98v-1.266h4.98zm-2-3.551v9.088c0 .387.05.682.16.888s.26.345.44.421.4.115.64.115q.45 0 .9-.036v1.407c-.3.047-.66.07-1.05.07-.45 0-.87-.094-1.27-.281s-.72-.469-.98-.844c-.25-.375-.37-.826-.37-1.353v-9.475zm5.67 11.83h-1.51v-12.727h1.51v4.676h.13c.23-.515.58-.914 1.03-1.195.46-.281 1.05-.422 1.78-.422.67 0 1.24.132 1.73.396.49.263.86.665 1.13 1.204q.39.808.39 2.004V126h-1.51v-5.959c0-.492-.09-.917-.26-1.274a1.83 1.83 0 0 0-.76-.809c-.33-.182-.72-.272-1.18-.272-.48 0-.9.099-1.27.298-.37.2-.66.495-.88.888q-.33.589-.33 1.398zm14.65-9.545h1.49V126h-1.49v-1.617h-.11a3.2 3.2 0 0 1-1.08 1.257c-.48.322-1.06.483-1.75.483-.61 0-1.15-.135-1.61-.404-.46-.27-.82-.674-1.09-1.213q-.39-.808-.39-1.986v-6.065h1.51v5.959c0 .445.09.838.26 1.178.18.34.42.603.74.791.32.187.67.281 1.07.281q.585 0 1.14-.29c.38-.193.69-.486.94-.879.24-.392.37-.864.37-1.415zm4.11-3.182h1.51v4.694h.12c.24-.352.43-.621.58-.809.16-.187.42-.372.79-.554.37-.181.83-.272 1.39-.272.8 0 1.51.199 2.12.598q.93.597 1.44 1.714c.35.744.52 1.614.52 2.61 0 .984-.17 1.851-.52 2.601-.34.75-.82 1.328-1.43 1.732s-1.31.606-2.11.606q-.825 0-1.38-.281c-.37-.187-.64-.387-.82-.598-.19-.21-.38-.468-.58-.773h-.17V126h-1.46zm1.48 7.946c0 .715.1 1.344.31 1.889q.315.817.93 1.275c.41.305.9.457 1.46.457.59 0 1.09-.158 1.51-.475.41-.316.73-.747.94-1.292s.31-1.163.31-1.854c0-.68-.1-1.286-.31-1.82q-.3-.8-.93-1.256c-.41-.305-.92-.457-1.52-.457q-.855 0-1.47.439c-.4.293-.71.703-.92 1.23-.21.528-.31 1.149-.31 1.864m10.03 4.886c-.2 0-.38-.052-.56-.158a1.1 1.1 0 0 1-.41-.422q-.15-.263-.15-.562t.15-.563a1.12 1.12 0 0 1 .97-.562q.3 0 .57.149a1.12 1.12 0 0 1 .56.976q0 .299-.15.562c-.1.176-.24.317-.41.422q-.27.158-.57.158m7.4.088q-1.32 0-2.31-.632a4.1 4.1 0 0 1-1.52-1.749c-.35-.745-.53-1.591-.53-2.541 0-.96.19-1.816.55-2.566s.87-1.333 1.52-1.749 1.4-.624 2.26-.624q1.02 0 1.83.369c.55.246.99.598 1.33 1.055q.51.685.63 1.582h-1.51c-.07-.305-.2-.583-.4-.835s-.46-.454-.77-.607a2.4 2.4 0 0 0-1.08-.228c-.56 0-1.05.146-1.48.439s-.76.706-1 1.24q-.36.8-.36 1.872c0 .726.11 1.362.35 1.907q.345.817.99 1.266.645.448 1.5.448c.38 0 .72-.065 1.03-.194q.465-.193.78-.571c.21-.252.36-.548.44-.887h1.51a3.34 3.34 0 0 1-.61 1.538c-.33.451-.76.808-1.3 1.072s-1.16.395-1.85.395m9.53 0c-.86 0-1.61-.205-2.28-.615q-.99-.615-1.53-1.731c-.37-.744-.55-1.603-.55-2.576 0-.984.18-1.848.55-2.592q.54-1.117 1.53-1.732c.67-.41 1.42-.615 2.28-.615s1.61.205 2.27.615c.65.41 1.16.988 1.52 1.732s.53 1.608.53 2.592c0 .973-.17 1.832-.53 2.576s-.87 1.321-1.52 1.731c-.66.41-1.41.615-2.27.615m0-1.336q.93 0 1.56-.492c.43-.328.74-.761.95-1.301q.3-.808.3-1.793t-.3-1.801c-.21-.545-.52-.982-.95-1.31q-.63-.492-1.56-.492c-.62 0-1.15.164-1.57.492q-.645.492-.96 1.31a5 5 0 0 0-.32 1.801c0 .657.11 1.254.32 1.793q.315.81.96 1.301c.42.328.95.492 1.57.492m6.31-8.402h1.46v1.494h.12a2.5 2.5 0 0 1 .98-1.195q.66-.422 1.59-.422.615 0 1.11.185c.32.123.61.304.85.545.24.24.44.536.59.887h.1q.255-.51.66-.87c.28-.24.6-.425.98-.554q.555-.193 1.23-.193.87 0 1.53.36.645.361 1.02 1.09c.24.487.37 1.099.37 1.837V126h-1.51v-6.363c0-.668-.19-1.16-.55-1.477-.36-.316-.83-.474-1.39-.474-.43 0-.81.09-1.12.272q-.48.273-.72.747c-.17.316-.25.68-.25 1.09V126h-1.53v-6.521q0-.528-.24-.941a1.56 1.56 0 0 0-.66-.633q-.42-.219-.96-.219c-.38 0-.73.099-1.06.298-.33.2-.59.478-.79.835q-.3.537-.3 1.222V126h-1.51zm15.43 11.461h-1.37l4.1-15.24h1.39zm6.98-7.242h.3l4.13-4.219h1.87l-4.45 4.518h-.14l-1.69 1.564zm-1.39-7.401h1.52V126h-1.52zm2.38 8.034 1.05-1.055 4.55 5.748h-1.91zm8.43 4.693h-1.51v-12.727h1.51v4.676h.13c.23-.515.58-.914 1.04-1.195q.675-.422 1.77-.422c.67 0 1.25.132 1.73.396.49.263.86.665 1.13 1.204q.39.808.39 2.004V126h-1.51v-5.959c0-.492-.09-.917-.26-1.274a1.83 1.83 0 0 0-.76-.809c-.33-.182-.72-.272-1.18-.272-.48 0-.9.099-1.27.298-.37.2-.66.495-.88.888q-.33.589-.33 1.398zm7.86-9.545h1.6l2.04 7.277h.09l2.02-7.277h1.62l1.98 7.242h.11l2.04-7.242h1.58l-2.9 9.545h-1.49l-2.08-7.277h-.14l-2.06 7.277h-1.51zm20.22 4.799h-5.58v-1.389h5.58zm5.92 4.939q-1.17 0-2.1-.606c-.61-.404-1.1-.982-1.44-1.732-.35-.75-.52-1.617-.52-2.601 0-.996.17-1.866.52-2.61.34-.745.83-1.316 1.44-1.714.62-.399 1.32-.598 2.12-.598.56 0 1.03.091 1.4.272q.555.273.81.589c.18.211.36.469.55.774h.1v-4.694h1.53V126h-1.47v-1.459h-.16c-.2.305-.39.563-.56.773-.18.211-.45.411-.82.598-.37.188-.84.281-1.4.281m.21-1.353c.58 0 1.07-.152 1.48-.457q.615-.458.93-1.275c.21-.545.32-1.174.32-1.889s-.11-1.336-.31-1.864c-.21-.527-.51-.937-.92-1.23q-.615-.44-1.5-.439c-.58 0-1.08.152-1.49.457q-.615.456-.93 1.256c-.21.534-.32 1.14-.32 1.82 0 .691.11 1.309.32 1.854q.315.818.93 1.292c.41.317.91.475 1.49.475m10.83 1.353c-.9 0-1.69-.202-2.36-.606a3.97 3.97 0 0 1-1.56-1.714q-.54-1.107-.54-2.566 0-1.46.54-2.593c.36-.756.87-1.342 1.52-1.758s1.4-.624 2.26-.624c.73 0 1.4.158 2.02.475s1.13.832 1.51 1.547c.39.714.58 1.628.58 2.742v.633h-7.38v-1.284h5.85c0-.539-.1-1.016-.31-1.432a2.44 2.44 0 0 0-.91-.985c-.39-.24-.84-.36-1.36-.36-.56 0-1.06.138-1.48.413s-.75.645-.98 1.107c-.24.463-.35.958-.35 1.486v.861c0 .703.12 1.304.37 1.802.24.498.59.876 1.03 1.134.45.258.96.386 1.55.386.36 0 .69-.049.98-.149q.45-.15.75-.387.315-.237.48-.553h1.62q-.225.72-.75 1.265a3.7 3.7 0 0 1-1.32.853c-.53.205-1.12.307-1.76.307m9.97-.193h-1.57l-3.51-9.545h1.65l2.6 7.576h.11l2.6-7.576h1.65zM1034 128.874h22.35v1.222H1034zm26.31 0h32.8v1.222h-32.8zm41.33 0h158.4v1.222h-158.4z" opacity=".7" fill="#000"/>
</a>
  <a href="mailto:me@khw.dev"><path d="M1349.21 116.455h1.46v1.494h.12c.22-.515.54-.914.98-1.195q.66-.422 1.59-.422.615 0 1.11.185c.33.123.61.304.85.545.24.24.44.536.59.887h.11c.16-.34.38-.63.65-.87.28-.24.61-.425.98-.554q.57-.193 1.23-.193.885 0 1.53.36.645.361 1.02 1.09c.25.487.37 1.099.37 1.837V126h-1.51v-6.363c0-.668-.18-1.16-.55-1.477-.36-.316-.82-.474-1.39-.474-.43 0-.81.09-1.12.272q-.48.273-.72.747c-.17.316-.25.68-.25 1.09V126h-1.53v-6.521c0-.352-.08-.666-.23-.941a1.6 1.6 0 0 0-.66-.633 2.1 2.1 0 0 0-.97-.219c-.38 0-.73.099-1.06.298-.32.2-.59.478-.79.835q-.3.537-.3 1.222V126h-1.51zm19.02 9.738c-.9 0-1.69-.202-2.36-.606-.68-.404-1.19-.976-1.56-1.714q-.54-1.107-.54-2.566 0-1.46.54-2.593c.37-.756.87-1.342 1.52-1.758s1.41-.624 2.26-.624c.73 0 1.4.158 2.02.475s1.13.832 1.51 1.547c.39.714.59 1.628.59 2.742v.633h-7.39v-1.284h5.86c0-.539-.11-1.016-.32-1.432a2.37 2.37 0 0 0-.91-.985c-.39-.24-.84-.36-1.36-.36q-.84 0-1.47.413a2.8 2.8 0 0 0-.99 1.107c-.23.463-.35.958-.35 1.486v.861c0 .703.12 1.304.37 1.802.24.498.59.876 1.04 1.134.44.258.96.386 1.54.386.37 0 .69-.049.99-.149.29-.1.54-.229.74-.387.21-.158.37-.342.49-.553h1.61q-.225.72-.75 1.265t-1.32.853c-.53.205-1.11.307-1.76.307m12.24-1.863c-.59 0-1.11-.152-1.57-.457a3.13 3.13 0 0 1-1.08-1.292q-.39-.835-.39-1.96 0-1.107.39-1.951c.26-.563.63-.993 1.09-1.292s.99-.448 1.57-.448c.39 0 .72.067 1 .202.27.135.49.29.64.466.15.175.27.357.37.545h.09v-1.073h1.33v5.889h-1.33c-.12.211-.25.413-.4.606-.15.194-.36.37-.65.528s-.64.237-1.06.237m.23-1.283c.41 0 .75-.103 1.03-.308s.5-.489.64-.852c.15-.364.22-.791.22-1.283 0-.481-.07-.903-.22-1.266a1.76 1.76 0 0 0-.64-.835c-.28-.193-.62-.29-1.03-.29-.4 0-.75.102-1.03.308-.29.205-.51.489-.65.852-.15.363-.22.773-.22 1.231 0 .457.07.87.23 1.239.15.369.37.662.65.879q.435.324 1.02.325m.1 4.781q-2.13 0-3.69-.87a5.9 5.9 0 0 1-2.4-2.496c-.56-1.084-.83-2.364-.83-3.841 0-1.371.29-2.601.89-3.691a6.6 6.6 0 0 1 2.49-2.567c1.06-.621 2.26-.931 3.61-.931 1.38 0 2.61.287 3.67.861a6.23 6.23 0 0 1 2.47 2.382q.9 1.52.87 3.401c0 .879-.13 1.647-.41 2.303q-.405.984-1.14 1.503c-.49.346-1.03.518-1.63.518-.37 0-.71-.07-1.03-.211a1.73 1.73 0 0 1-.72-.571q-.27-.36-.27-.782l1.23-.633q.015.51.24.765c.15.17.36.255.64.255q.54 0 .96-.396c.27-.264.49-.63.64-1.098a5.2 5.2 0 0 0 .23-1.6q.015-1.635-.72-2.883a5 5 0 0 0-2.05-1.925c-.87-.451-1.87-.676-2.98-.676q-1.68 0-3 .799a5.5 5.5 0 0 0-2.02 2.171 6.5 6.5 0 0 0-.71 3.006c0 1.195.22 2.247.65 3.155a4.75 4.75 0 0 0 1.93 2.11c.85.498 1.87.741 3.08.729.66-.011 1.21-.044 1.67-.096a9 9 0 0 0 1.44-.29v1.195c-.48.129-.98.228-1.49.299q-.78.105-1.62.105m10.6-7.154h.3l4.13-4.219h1.86l-4.44 4.518h-.14l-1.69 1.564zm-1.39-7.401h1.51V126h-1.51zm2.37 8.034 1.06-1.055 4.55 5.748h-1.91zm8.44 4.693h-1.51v-12.727h1.51v4.676h.13c.23-.515.58-.914 1.03-1.195.46-.281 1.05-.422 1.78-.422.67 0 1.24.132 1.73.396.49.263.86.665 1.12 1.204.27.539.4 1.207.4 2.004V126h-1.51v-5.959q0-.738-.27-1.274a1.76 1.76 0 0 0-.75-.809c-.33-.182-.72-.272-1.18-.272-.48 0-.9.099-1.27.298-.37.2-.67.495-.88.888q-.33.589-.33 1.398zm7.86-9.545h1.6l2.04 7.277h.09l2.02-7.277h1.61l1.99 7.242h.11l2.04-7.242h1.58l-2.9 9.545h-1.5l-2.07-7.277h-.14l-2.06 7.277h-1.51zm14.54 9.65q-.3 0-.57-.158a1.2 1.2 0 0 1-.41-.422q-.15-.263-.15-.562a1.123 1.123 0 0 1 1.13-1.125c.2 0 .38.05.56.149.18.1.31.238.41.413a1.12 1.12 0 0 1 0 1.125 1.1 1.1 0 0 1-.41.422 1.07 1.07 0 0 1-.56.158m7.1.088q-1.185 0-2.1-.606-.93-.606-1.44-1.732c-.35-.75-.52-1.617-.52-2.601 0-.996.17-1.866.52-2.61q.51-1.117 1.44-1.714c.61-.399 1.32-.598 2.12-.598.56 0 1.02.091 1.39.272s.65.378.82.589c.18.211.36.469.55.774h.1v-4.694h1.53V126h-1.48v-1.459h-.15q-.3.458-.57.773c-.17.211-.45.411-.81.598-.37.188-.84.281-1.4.281m.21-1.353c.57 0 1.07-.152 1.48-.457q.615-.458.93-1.275c.21-.545.31-1.174.31-1.889q0-1.072-.3-1.864-.315-.79-.93-1.23c-.41-.293-.9-.439-1.49-.439s-1.08.152-1.49.457c-.42.304-.73.723-.94 1.256-.21.534-.31 1.14-.31 1.82 0 .691.1 1.309.31 1.854s.52.976.94 1.292c.41.317.9.475 1.49.475m10.83 1.353q-1.35 0-2.37-.606a4 4 0 0 1-1.55-1.714c-.37-.738-.55-1.594-.55-2.566 0-.973.18-1.837.55-2.593.36-.756.87-1.342 1.52-1.758s1.4-.624 2.26-.624c.72 0 1.4.158 2.02.475s1.12.832 1.51 1.547c.39.714.58 1.628.58 2.742v.633h-7.38v-1.284h5.85c0-.539-.1-1.016-.32-1.432a2.4 2.4 0 0 0-.9-.985c-.39-.24-.85-.36-1.36-.36-.57 0-1.06.138-1.48.413s-.75.645-.98 1.107q-.36.694-.36 1.486v.861c0 .703.13 1.304.37 1.802.25.498.6.876 1.04 1.134.45.258.96.386 1.55.386.36 0 .69-.049.98-.149q.435-.15.75-.387c.2-.158.37-.342.48-.553h1.62c-.15.48-.4.902-.76 1.265-.35.363-.79.648-1.31.853-.53.205-1.12.307-1.76.307m9.96-.193h-1.56l-3.52-9.545h1.66l2.6 7.576h.1l2.61-7.576h1.65zM1348 128.874h107.31v1.222H1348z" opacity=".7" fill="#000"/>
</a>
  <path stroke="#000" d="M463.5 67v66m467-66v66"/>
  <g clip-path="url(#a)">
    <g clip-path="url(#b)">
      <path d="M544.969 45h-15.938A7.03 7.03 0 0 0 522 52.031V67.97a7.03 7.03 0 0 0 7.031 7.03h15.938A7.03 7.03 0 0 0 552 67.969V52.03a7.03 7.03 0 0 0-7.031-7.03" fill="#f4f4f4"/>
      <mask id="c" style="mask-type:luminance" maskUnits="userSpaceOnUse" x="529" y="48" width="16" height="24">
        <path d="M529.148 48.281h15.629V71.72h-15.629z" fill="#fff"/>
      </mask>
      <g mask="url(#c)">
        <path d="M533.056 71.719a3.91 3.91 0 0 0 3.906-3.906v-3.907h-3.906a3.91 3.91 0 0 0-3.906 3.907 3.91 3.91 0 0 0 3.906 3.906" fill="#0acf83"/>
        <path d="M529.15 60a3.91 3.91 0 0 1 3.906-3.906h3.906v7.812h-3.906A3.91 3.91 0 0 1 529.15 60" fill="#a259ff"/>
        <path d="M529.15 52.188a3.91 3.91 0 0 1 3.906-3.907h3.906v7.813h-3.906a3.91 3.91 0 0 1-3.906-3.907" fill="#f24e1e"/>
        <path d="M536.962 48.281h3.907a3.91 3.91 0 0 1 3.906 3.907 3.91 3.91 0 0 1-3.906 3.906h-3.907z" fill="#ff7262"/>
        <path d="M544.775 60a3.908 3.908 0 0 1-7.813 0 3.908 3.908 0 0 1 7.813 0" fill="#1abcfe"/>
      </g>
    </g>
    <rect x="562" y="45" width="30" height="30" rx="9" fill="#f4f4f4"/>
    <g clip-path="url(#d)">
      <path d="M624.969 45h-15.938A7.03 7.03 0 0 0 602 52.031V67.97a7.03 7.03 0 0 0 7.031 7.03h15.938A7.03 7.03 0 0 0 632 67.969V52.03a7.03 7.03 0 0 0-7.031-7.03" fill="#f4f4f4"/>
      <path d="M605.951 56.743s-.555-.4.111-.934l1.551-1.387s.444-.467.913-.06l14.315 10.837v5.197s-.007.816-1.055.726z" fill="#2489ca"/>
      <path d="m609.641 60.093-3.69 3.354s-.379.282 0 .786l1.713 1.558s.407.437 1.008-.06l3.911-2.966z" fill="#1070b3"/>
      <path d="m616.118 60.12 6.767-5.166-.044-5.17s-.289-1.127-1.253-.54l-9.005 8.195z" fill="#0877b9"/>
      <path d="M621.786 71.13c.393.401.87.27.87.27l5.273-2.599c.675-.46.58-1.03.58-1.03V52.253c0-.682-.698-.918-.698-.918l-4.57-2.203c-.999-.617-1.653.11-1.653.11s.841-.605 1.253.542V70.3c0 .14-.031.279-.091.405-.12.243-.381.47-1.007.374z" fill="#3c99d4"/>
    </g>
    <rect x="642" y="45" width="30" height="30" rx="9" fill="#f4f4f4"/>
    <g clip-path="url(#e)">
      <path d="M704.969 45h-15.938A7.03 7.03 0 0 0 682 52.031V67.97a7.03 7.03 0 0 0 7.031 7.03h15.938A7.03 7.03 0 0 0 712 67.969V52.03a7.03 7.03 0 0 0-7.031-7.03" fill="#f4f4f4"/>
      <mask id="f" style="mask-type:luminance" maskUnits="userSpaceOnUse" x="685" y="48" width="24" height="24">
        <path d="M685.281 48.281h23.438V71.72h-23.438z" fill="#fff"/>
      </mask>
      <g mask="url(#f)">
        <path d="m708.276 58.956-10.232-10.232a1.51 1.51 0 0 0-2.135 0l-2.124 2.124 2.696 2.695a1.78 1.78 0 0 1 1.844.43 1.79 1.79 0 0 1 .425 1.855l2.598 2.598a1.792 1.792 0 0 1 2.347 1.346 1.79 1.79 0 0 1-1.075 2.01 1.795 1.795 0 0 1-2.348-2.343l-2.423-2.423v6.376q.266.132.476.34a1.795 1.795 0 1 1-2.54 0c.173-.173.366-.304.588-.392v-6.435a1.8 1.8 0 0 1-.975-2.355l-2.658-2.658-7.017 7.01a1.51 1.51 0 0 0 0 2.134l10.233 10.232a1.51 1.51 0 0 0 2.135 0l10.185-10.17a1.5 1.5 0 0 0 .443-1.067 1.5 1.5 0 0 0-.443-1.067" fill="#f03c2e"/>
      </g>
    </g>
    <rect x="722" y="45" width="30" height="30" rx="9" fill="#f4f4f4"/>
    <g clip-path="url(#g)">
      <path d="M784.969 45h-15.938A7.03 7.03 0 0 0 762 52.031V67.97a7.03 7.03 0 0 0 7.031 7.03h15.938A7.03 7.03 0 0 0 792 67.969V52.03a7.03 7.03 0 0 0-7.031-7.03" fill="#f4f4f4"/>
      <mask id="h" style="mask-type:luminance" maskUnits="userSpaceOnUse" x="766" y="49" width="22" height="22">
        <path d="M766.453 49.453h21.094v21.094h-21.094z" fill="#fff"/>
      </mask>
      <g mask="url(#h)">
        <path d="M782.095 64.809c.134-1.118.094-1.281.926-1.101l.212.019c.64.029 1.477-.103 1.977-.331 1.059-.492 1.687-1.312.643-1.096-2.381.49-2.554-.316-2.554-.316 2.515-3.732 3.567-8.47 2.659-9.63-2.476-3.164-6.761-1.667-6.833-1.628l-.023.004a8 8 0 0 0-1.59-.164c-1.078-.017-1.895.282-2.517.753 0 0-7.644-3.15-7.288 3.96.075 1.513 2.167 11.454 4.663 8.446.914-1.099 1.796-2.028 1.796-2.028.436.291.961.44 1.511.386l.043-.036a1.7 1.7 0 0 0 .017.427c-.643.718-.453.844-1.739 1.109-1.3.267-.535.745-.037.87.604.151 2.003.366 2.949-.958l-.038.151c.253.202.235 1.45.272 2.342.037.891.096 1.725.278 2.215s.396 1.755 2.085 1.4c1.411-.302 2.491-.738 2.589-4.787" fill="#000"/>
        <path d="M782.095 64.809c.134-1.118.094-1.281.926-1.101l.212.019c.64.029 1.477-.103 1.977-.331 1.059-.492 1.687-1.312.643-1.096-2.381.49-2.554-.316-2.554-.316 2.515-3.732 3.567-8.47 2.659-9.63-2.476-3.164-6.761-1.667-6.833-1.628l-.023.004a8 8 0 0 0-1.59-.164c-1.078-.017-1.895.282-2.517.753 0 0-7.644-3.15-7.288 3.96.075 1.513 2.167 11.454 4.663 8.446.914-1.099 1.796-2.028 1.796-2.028.436.291.961.44 1.511.386l.043-.036a1.7 1.7 0 0 0 .017.427c-.643.718-.453.844-1.739 1.109-1.3.267-.535.745-.037.87.604.151 2.003.366 2.949-.958l-.038.151c.253.202.235 1.45.272 2.342.037.891.096 1.725.278 2.215s.396 1.755 2.085 1.4c1.411-.302 2.491-.738 2.589-4.787" stroke="#000" stroke-width="1.889"/>
        <path d="M785.845 62.307c-2.381.491-2.554-.315-2.554-.315 2.516-3.733 3.568-8.47 2.66-9.63-2.475-3.164-6.761-1.667-6.832-1.628l-.024.004a8.5 8.5 0 0 0-1.589-.166c-1.078-.016-1.895.283-2.516.753 0 0-7.645-3.149-7.289 3.961.076 1.513 2.167 11.453 4.663 8.446a47 47 0 0 1 1.802-2.035c.436.291.961.44 1.511.386l.043-.036a1.7 1.7 0 0 0 .017.427c-.643.718-.453.844-1.739 1.109-1.3.267-.535.745-.037.87.604.151 2.003.366 2.949-.958l-.038.151c.253.202.429 1.313.399 2.32s-.049 1.697.149 2.238c.197.54.395 1.755 2.084 1.4 1.412-.302 2.143-1.087 2.246-2.394.072-.93.235-.793.247-1.623l.132-.394c.15-1.26.024-1.667.894-1.478l.211.02c.641.028 1.479-.104 1.97-.332 1.058-.49 1.686-1.312.642-1.096z" fill="#336791"/>
        <path d="M779.118 50.695c-.264.082 4.255-1.652 6.824 1.63.906 1.16-.144 5.897-2.66 9.63m-6.27 1.067c-.066 2.345.016 4.706.245 5.273s.721 1.69 2.411 1.328c1.412-.302 1.926-.888 2.148-2.18l.522-4.135zm-2.026-11.756s-7.65-3.128-7.294 3.982c.076 1.513 2.168 11.453 4.664 8.446.911-1.099 1.735-1.958 1.735-1.958z" stroke="#fff" stroke-width=".629" stroke-linecap="round" stroke-linejoin="round"/>
        <path d="M783.283 61.953s.165.807 2.554.315c1.044-.216.416.605-.642 1.096-.869.403-2.817.506-2.849-.05-.082-1.438 1.025-1.001.945-1.361-.072-.325-.568-.643-.895-1.437-.286-.692-3.922-6.007 1.009-5.218.181-.038-1.285-4.697-5.9-4.765-4.614-.067-4.468 5.673-4.468 5.673" stroke="#fff" stroke-width=".629" stroke-linecap="round" stroke-linejoin="bevel"/>
        <path d="M775.72 62.446c-.642.718-.453.844-1.738 1.109-1.3.267-.536.744-.038.87.605.151 2.004.366 2.95-.959.288-.403-.002-1.046-.397-1.21-.192-.078-.447-.177-.775.19z" stroke="#fff" stroke-width=".629" stroke-linejoin="round"/>
        <path d="M775.678 62.433c-.066-.422.139-.924.357-1.513.328-.881 1.085-1.763.48-4.562-.451-2.085-3.477-.434-3.477-.151 0 .282.136 1.433-.05 2.772-.245 1.749 1.113 3.227 2.675 3.076" stroke="#fff" stroke-width=".629" stroke-linecap="round" stroke-linejoin="round"/>
        <path d="M774.958 56.165c-.014.096.177.354.425.388s.46-.166.474-.263c.014-.098-.177-.203-.425-.238s-.461.017-.474.112Z" fill="#fff" stroke="#fff" stroke-width=".21"/>
        <path d="M782.509 55.968c.013.096-.177.354-.425.388s-.461-.166-.474-.263c-.012-.098.177-.203.425-.238s.462.017.474.113Z" fill="#fff" stroke="#fff" stroke-width=".105"/>
        <path d="M783.396 55.3c.041.757-.163 1.272-.19 2.079-.038 1.172.559 2.513-.34 3.856" stroke="#fff" stroke-width=".629" stroke-linecap="round" stroke-linejoin="round"/>
      </g>
    </g>
    <rect x="802" y="45" width="30" height="30" rx="9" fill="#f4f4f4"/>
    <g clip-path="url(#i)">
      <path d="M864.969 45h-15.938A7.03 7.03 0 0 0 842 52.031V67.97a7.03 7.03 0 0 0 7.031 7.03h15.938A7.03 7.03 0 0 0 872 67.969V52.03a7.03 7.03 0 0 0-7.031-7.03" fill="#f4f4f4"/>
      <path d="M862.059 57.608c-1.234-5.447-3.808-6.897-4.464-7.922q-.407-.677-.718-1.405c-.035.484-.099.789-.51 1.156-.826.736-4.333 3.594-4.628 9.784-.275 5.77 4.242 9.328 4.839 9.696.458.226 1.017.005 1.29-.203 2.177-1.494 5.153-5.478 4.194-11.106" fill="#10aa50"/>
      <path d="M857.064 65.844c-.114 1.428-.195 2.258-.484 3.075 0 0 .19 1.36.323 2.8h.471q.169-1.523.513-3.016c-.609-.3-.8-1.605-.823-2.859" fill="#b8c4c2"/>
      <path d="M857.887 68.704c-.617-.285-.795-1.618-.822-2.86.152-2.048.196-4.104.133-6.157-.033-1.078.015-9.98-.266-11.283q.288.663.663 1.281c.656 1.026 3.23 2.476 4.464 7.923.962 5.618-1.997 9.592-4.172 11.096" fill="#12924f"/>
    </g>
    <rect x="522" y="85" width="30" height="30" rx="9" fill="#f4f4f4"/>
    <g clip-path="url(#j)">
      <path d="M584.969 85h-15.938A7.03 7.03 0 0 0 562 92.031v15.938a7.03 7.03 0 0 0 7.031 7.031h15.938a7.03 7.03 0 0 0 7.031-7.031V92.031A7.03 7.03 0 0 0 584.969 85" fill="#f4f4f4"/>
      <path d="m568.634 100.099-.009 1.229h3.904v11.095h2.762v-11.095h3.905v-1.205c0-.666-.014-1.224-.033-1.238-.015-.019-2.391-.028-5.272-.024l-5.243.015zm17.573-1.258a3.73 3.73 0 0 1 1.876 1.08c.276.296.686.834.719.963.01.038-1.295.914-2.085 1.404-.029.02-.143-.104-.272-.295-.386-.562-.79-.805-1.41-.847-.909-.062-1.495.414-1.49 1.209 0 .233.033.371.129.562.2.414.571.662 1.738 1.167 2.147.924 3.066 1.533 3.638 2.4.638.966.781 2.509.347 3.657-.476 1.247-1.657 2.095-3.319 2.376-.514.09-1.733.076-2.285-.024-1.205-.214-2.348-.809-3.053-1.59-.276-.305-.814-1.1-.781-1.157.015-.019.138-.096.276-.177.134-.076.639-.366 1.115-.643l.862-.5.181.267c.252.386.804.914 1.138 1.091.957.504 2.271.433 2.919-.148.276-.252.39-.514.39-.9 0-.348-.043-.5-.224-.762-.233-.333-.709-.614-2.061-1.2-1.548-.667-2.215-1.081-2.824-1.738a3.9 3.9 0 0 1-.824-1.5c-.114-.424-.143-1.486-.052-1.914.319-1.495 1.447-2.538 3.076-2.848.528-.1 1.757-.062 2.276.067" fill="#007acc"/>
    </g>
    <rect x="602" y="85" width="30" height="30" rx="9" fill="#f4f4f4"/>
    <g clip-path="url(#k)">
      <path d="M664.969 85h-15.938A7.03 7.03 0 0 0 642 92.031v15.938a7.03 7.03 0 0 0 7.031 7.031h15.938a7.03 7.03 0 0 0 7.031-7.031V92.031A7.03 7.03 0 0 0 664.969 85" fill="#f4f4f4"/>
      <path d="M656.916 88.398c-5.95 0-5.579 2.58-5.579 2.58l.007 2.674h5.678v.802h-7.933s-3.808-.431-3.808 5.572 3.323 5.791 3.323 5.791h1.984v-2.786s-.107-3.323 3.27-3.323h5.631s3.164.05 3.164-3.058v-5.14s.48-3.112-5.737-3.112m-3.131 1.798a1.021 1.021 0 1 1 .002 2.043 1.021 1.021 0 0 1-.002-2.043" fill="url(#l)"/>
      <path d="M657.085 111.714c5.949 0 5.578-2.58 5.578-2.58l-.007-2.674h-5.678v-.802h7.934s3.807.432 3.807-5.572c0-6.003-3.323-5.79-3.323-5.79h-1.984v2.785s.107 3.324-3.27 3.324h-5.631s-3.164-.052-3.164 3.057v5.141s-.48 3.111 5.738 3.111m3.13-1.798a1.03 1.03 0 0 1-.722-.299 1.03 1.03 0 0 1 0-1.445 1 1 0 0 1 .722-.299 1.026 1.026 0 0 1 1.022 1.022 1 1 0 0 1-.299.722q-.144.143-.332.222a1 1 0 0 1-.391.077" fill="url(#m)"/>
    </g>
    <rect x="682" y="85" width="30" height="30" rx="9" fill="#f4f4f4"/>
    <g clip-path="url(#n)">
      <path d="M744.969 85h-15.938A7.03 7.03 0 0 0 722 92.031v15.938a7.03 7.03 0 0 0 7.031 7.031h15.938a7.03 7.03 0 0 0 7.031-7.031V92.031A7.03 7.03 0 0 0 744.969 85" fill="#f4f4f4"/>
      <path d="M734.98 109.67c-5.348 0-9.699-4.351-9.699-9.698s4.351-9.699 9.699-9.699a9.73 9.73 0 0 1 8.398 4.847l-4.197 2.428a4.87 4.87 0 0 0-4.201-2.425 4.855 4.855 0 0 0-4.85 4.849 4.855 4.855 0 0 0 4.85 4.849 4.87 4.87 0 0 0 4.201-2.426l4.197 2.429a9.73 9.73 0 0 1-8.398 4.846" fill="#00599c"/>
      <path d="M744.678 99.433H743.6v-1.078h-1.077v1.078h-1.078v1.077h1.078v1.078h1.077v-1.078h1.078zm4.041 0h-1.078v-1.078h-1.077v1.078h-1.078v1.077h1.078v1.078h1.077v-1.078h1.078z" fill="#00599c"/>
    </g>
    <rect x="762" y="85" width="30" height="30" rx="9" fill="#f4f4f4"/>
    <g clip-path="url(#o)">
      <path d="M824.969 85h-15.938A7.03 7.03 0 0 0 802 92.031v15.938a7.03 7.03 0 0 0 7.031 7.031h15.938a7.03 7.03 0 0 0 7.031-7.031V92.031A7.03 7.03 0 0 0 824.969 85" fill="#f4f4f4"/>
      <path d="m825.751 103.52.085-.339c1.244-4.948-1.781-10.83-6.927-13.911 2.262 3.053 3.251 6.757 2.375 9.98-.085.284-.17.566-.283.849a2 2 0 0 0-.453-.255s-5.117-3.166-10.659-8.736c-.142-.142 2.969 4.439 6.475 8.143-1.668-.933-6.277-4.298-9.218-6.956a15 15 0 0 0 1.244 1.725c2.432 3.11 5.627 6.927 9.444 9.868-2.686 1.64-6.475 1.781-10.236 0a15.3 15.3 0 0 1-2.629-1.555c1.583 2.545 4.043 4.75 7.04 6.051 3.563 1.526 7.126 1.442 9.755.028 0 0 .029 0 .029-.028.113-.057.226-.142.339-.198 1.272-.651 3.76-1.301 5.118 1.3.396.594 1.102-2.799-1.499-5.966" fill="#f05138"/>
    </g>
    <rect x="842" y="85" width="30" height="30" rx="9" fill="#f4f4f4"/>
    <g clip-path="url(#p)">
      <path d="M544.969 125h-15.938a7.03 7.03 0 0 0-7.031 7.031v15.938a7.03 7.03 0 0 0 7.031 7.031h15.938a7.03 7.03 0 0 0 7.031-7.031v-15.938a7.03 7.03 0 0 0-7.031-7.031" fill="#f4f4f4"/>
      <path d="M547.547 150.547h-21.094v-21.094h21.094L537 140z" fill="url(#q)"/>
    </g>
    <rect x="562" y="125" width="30" height="30" rx="9" fill="#f4f4f4"/>
    <g clip-path="url(#r)">
      <path d="M624.969 125h-15.938a7.03 7.03 0 0 0-7.031 7.031v15.938a7.03 7.03 0 0 0 7.031 7.031h15.938a7.03 7.03 0 0 0 7.031-7.031v-15.938a7.03 7.03 0 0 0-7.031-7.031" fill="#f4f4f4"/>
      <mask id="s" style="mask-type:luminance" maskUnits="userSpaceOnUse" x="608" y="129" width="18" height="22">
        <path d="M608.211 129.453h17.536v21.094h-17.536z" fill="#fff"/>
      </mask>
      <g mask="url(#s)">
        <path d="M624.621 132.242c-1.948-2.807-5.828-3.629-8.616-1.859l-4.916 3.146a5.58 5.58 0 0 0-2.538 3.772 5.85 5.85 0 0 0 .589 3.807 5.4 5.4 0 0 0-.84 2.11 6.02 6.02 0 0 0 1.019 4.54c1.967 2.807 5.828 3.629 8.616 1.859l4.916-3.128a5.6 5.6 0 0 0 2.539-3.772 5.86 5.86 0 0 0-.59-3.807 5.4 5.4 0 0 0 .84-2.11 5.9 5.9 0 0 0-1.019-4.558" fill="#ff3e00"/>
        <path d="M615.522 148.026a3.89 3.89 0 0 1-4.183-1.555 3.63 3.63 0 0 1-.626-2.735c.036-.161.072-.304.108-.465l.089-.286.25.179a6.5 6.5 0 0 0 1.931.965l.179.054-.018.179c-.018.25.054.518.197.733.286.411.786.607 1.269.482.107-.035.214-.071.304-.125l4.898-3.128a1 1 0 0 0 .464-.679 1.1 1.1 0 0 0-.178-.823 1.17 1.17 0 0 0-1.27-.464 1.5 1.5 0 0 0-.303.125l-1.877 1.197c-.304.197-.644.34-1.001.429a3.9 3.9 0 0 1-4.183-1.555 3.6 3.6 0 0 1-.608-2.735 3.4 3.4 0 0 1 1.537-2.27l4.916-3.128c.304-.197.644-.34 1.001-.447a3.89 3.89 0 0 1 4.183 1.555 3.62 3.62 0 0 1 .626 2.735 5 5 0 0 1-.125.465l-.09.286-.25-.179a6.5 6.5 0 0 0-1.931-.965l-.178-.054.018-.179a1.2 1.2 0 0 0-.197-.733 1.17 1.17 0 0 0-1.269-.465 1.5 1.5 0 0 0-.304.126l-4.898 3.128a1 1 0 0 0-.465.679c-.054.286.018.59.179.823.286.411.786.589 1.269.464.107-.035.214-.071.304-.125l1.877-1.197c.304-.197.643-.34 1.001-.447a3.89 3.89 0 0 1 4.183 1.555c.572.786.786 1.77.626 2.735a3.38 3.38 0 0 1-1.538 2.27l-4.916 3.128c-.304.197-.643.34-1.001.447" fill="#fff"/>
      </g>
    </g>
    <rect x="642" y="125" width="30" height="30" rx="9" fill="#f4f4f4"/>
    <g clip-path="url(#t)">
      <path d="M704.969 125h-15.938a7.03 7.03 0 0 0-7.031 7.031v15.938a7.03 7.03 0 0 0 7.031 7.031h15.938a7.03 7.03 0 0 0 7.031-7.031v-15.938a7.03 7.03 0 0 0-7.031-7.031" fill="#f4f4f4"/>
      <path d="m708.612 131.75-10.996 19.663a.598.598 0 0 1-1.041.004l-11.214-19.665a.598.598 0 0 1 .625-.884l11.007 1.967q.106.02.213 0l10.777-1.965a.598.598 0 0 1 .629.88" fill="url(#u)"/>
      <path d="m702.237 128.287-8.138 1.594a.3.3 0 0 0-.24.276l-.501 8.454a.298.298 0 0 0 .365.309l2.266-.523a.3.3 0 0 1 .36.351l-.673 3.296a.298.298 0 0 0 .379.346l1.4-.425a.298.298 0 0 1 .379.346l-1.07 5.177c-.066.324.364.501.544.223l.12-.185 6.631-13.233a.299.299 0 0 0-.324-.427l-2.332.45a.3.3 0 0 1-.344-.376l1.522-5.277a.298.298 0 0 0-.344-.376" fill="url(#v)"/>
    </g>
    <rect x="722" y="125" width="30" height="30" rx="9" fill="#f4f4f4"/>
    <g clip-path="url(#w)">
      <path d="M784.969 125h-15.938a7.03 7.03 0 0 0-7.031 7.031v15.938a7.03 7.03 0 0 0 7.031 7.031h15.938a7.03 7.03 0 0 0 7.031-7.031v-15.938a7.03 7.03 0 0 0-7.031-7.031" fill="#f4f4f4"/>
      <path d="M777 142.221a2.186 2.186 0 1 0 0-4.371 2.186 2.186 0 0 0 0 4.371" fill="#00d8ff"/>
      <path d="M777 135.589c2.936 0 5.662.422 7.718 1.129 2.478.853 4.001 2.146 4.001 3.317 0 1.219-1.614 2.593-4.275 3.474-2.011.666-4.657 1.014-7.444 1.014-2.857 0-5.562-.326-7.596-1.021-2.573-.88-4.123-2.271-4.123-3.467 0-1.162 1.455-2.444 3.897-3.296 2.064-.719 4.858-1.15 7.822-1.15Z" stroke="#00d8ff" stroke-width="1.114"/>
      <path d="M773.131 137.825c1.466-2.543 3.193-4.695 4.833-6.122 1.977-1.72 3.858-2.394 4.871-1.809 1.057.609 1.44 2.694.875 5.439-.427 2.075-1.448 4.541-2.84 6.955-1.428 2.475-3.062 4.655-4.68 6.069-2.047 1.79-4.027 2.438-5.063 1.84-1.006-.58-1.391-2.481-.908-5.022.408-2.147 1.431-4.783 2.911-7.35z" stroke="#00d8ff" stroke-width="1.114"/>
      <path d="M773.134 142.294c-1.47-2.54-2.472-5.111-2.89-7.245-.503-2.571-.147-4.537.866-5.123 1.056-.612 3.053.097 5.149 1.958 1.584 1.407 3.211 3.523 4.607 5.934 1.431 2.473 2.504 4.978 2.921 7.086.528 2.667.101 4.705-.935 5.305-1.004.582-2.843-.034-4.804-1.722-1.656-1.425-3.429-3.628-4.914-6.193Z" stroke="#00d8ff" stroke-width="1.114"/>
    </g>
    <rect x="802" y="125" width="30" height="30" rx="9" fill="#f4f4f4"/>
    <g clip-path="url(#x)">
      <mask id="y" style="mask-type:luminance" maskUnits="userSpaceOnUse" x="842" y="125" width="30" height="30">
        <path d="M842 125h30v30h-30z" fill="#fff"/>
      </mask>
      <g mask="url(#y)">
        <path d="M864.969 125h-15.938a7.03 7.03 0 0 0-7.031 7.031v15.938a7.03 7.03 0 0 0 7.031 7.031h15.938a7.03 7.03 0 0 0 7.031-7.031v-15.938a7.03 7.03 0 0 0-7.031-7.031" fill="#f4f4f4"/>
        <path fill-rule="evenodd" clip-rule="evenodd" d="M864.391 147.853a7.2 7.2 0 0 1-1.228 1.544c-.519.462-.665.868-1.86 1.026-.845.157-1.578-.158-1.86-.282-.845-.395-1.285-.519-1.792-.519-.496 0-.913.124-1.747.507-.259.136-.958.44-1.815.282-.879-.158-1.33-.496-1.657-.778a10.2 10.2 0 0 1-1.645-1.814z" fill="#00a0e2"/>
        <path fill-rule="evenodd" clip-rule="evenodd" d="M848.882 137.336c.394-.89.913-1.487 1.431-1.905 1.319-1.082 3.472-1.149 4.464-.89.811.203 1.386.699 2.299.699.958 0 1.51-.485 2.266-.699.992-.248 3.156-.169 4.565.913.417.316.8.744 1.014.981-.507.372-.812.642-1.06.901z" fill="#34be2d"/>
        <path fill-rule="evenodd" clip-rule="evenodd" d="M863.862 137.336c-.237.26-.406.508-.598.857-.225.406-.496.958-.563 1.792h-14.484c.011-.135.022-.282.045-.428.135-.891.349-1.623.62-2.221z" fill="#ffb400"/>
        <path fill-rule="evenodd" clip-rule="evenodd" d="M862.701 139.985a8 8 0 0 0 0 .767c.034.62.248 1.307.529 1.859l-14.731-.033c-.203-.891-.316-1.804-.282-2.593z" fill="#ff7a00"/>
        <path fill-rule="evenodd" clip-rule="evenodd" d="M863.23 142.611q.174.36.417.677c.97 1.24 1.387 1.24 2.142 1.623-.056.135-.101.259-.158.372l-16.276-.034c-.315-.688-.642-1.657-.856-2.671z" fill="#f41e34"/>
        <path fill-rule="evenodd" clip-rule="evenodd" d="M865.631 145.283c-.473 1.104-.856 1.916-1.24 2.57l-13.604-.034c-.451-.665-.857-1.398-1.319-2.311-.034-.079-.079-.169-.113-.259z" fill="#a2359c"/>
        <path fill-rule="evenodd" clip-rule="evenodd" d="M860.908 131.171c-.079.564-.36 1.285-.811 1.747-.485.518-1.24 1.082-1.691 1.364-.248.158-.891.18-1.42.237-.068-.474-.079-.88.068-1.319.191-.519.439-1.263.834-1.781.484-.643 1.037-1.082 1.341-1.24.406-.203 1.082-.507 1.668-.609.023.519.102 1.105.011 1.601" fill="#34be2d"/>
      </g>
    </g>
  </g>
  <defs>
    <clipPath id="a">
      <rect x="522" y="45" width="350" height="110" rx="8" fill="#fff"/>
    </clipPath>
    <clipPath id="b">
      <path fill="#fff" d="M522 45h30v30h-30z"/>
    </clipPath>
    <clipPath id="d">
      <path fill="#fff" d="M602 45h30v30h-30z"/>
    </clipPath>
    <clipPath id="e">
      <path fill="#fff" d="M682 45h30v30h-30z"/>
    </clipPath>
    <clipPath id="g">
      <path fill="#fff" d="M762 45h30v30h-30z"/>
    </clipPath>
    <clipPath id="i">
      <path fill="#fff" d="M842 45h30v30h-30z"/>
    </clipPath>
    <clipPath id="j">
      <path fill="#fff" d="M562 85h30v30h-30z"/>
    </clipPath>
    <clipPath id="k">
      <path fill="#fff" d="M642 85h30v30h-30z"/>
    </clipPath>
    <clipPath id="n">
      <path fill="#fff" d="M722 85h30v30h-30z"/>
    </clipPath>
    <clipPath id="o">
      <path fill="#fff" d="M802 85h30v30h-30z"/>
    </clipPath>
    <clipPath id="p">
      <path fill="#fff" d="M522 125h30v30h-30z"/>
    </clipPath>
    <clipPath id="r">
      <path fill="#fff" d="M602 125h30v30h-30z"/>
    </clipPath>
    <clipPath id="t">
      <path fill="#fff" d="M682 125h30v30h-30z"/>
    </clipPath>
    <clipPath id="w">
      <path fill="#fff" d="M762 125h30v30h-30z"/>
    </clipPath>
    <clipPath id="x">
      <path fill="#fff" d="M842 125h30v30h-30z"/>
    </clipPath>
    <linearGradient id="l" x1="647.534" y1="90.496" x2="659.148" y2="101.995" gradientUnits="userSpaceOnUse">
      <stop stop-color="#387eb8"/>
      <stop offset="1" stop-color="#366994"/>
    </linearGradient>
    <linearGradient id="m" x1="654.663" y1="97.879" x2="667.136" y2="109.67" gradientUnits="userSpaceOnUse">
      <stop stop-color="#ffe052"/>
      <stop offset="1" stop-color="#ffc331"/>
    </linearGradient>
    <linearGradient id="q" x1="547.547" y1="129.453" x2="526.453" y2="150.547" gradientUnits="userSpaceOnUse">
      <stop offset=".003" stop-color="#e44857"/>
      <stop offset=".469" stop-color="#c711e1"/>
      <stop offset="1" stop-color="#7f52ff"/>
    </linearGradient>
    <linearGradient id="u" x1="685.087" y1="130.165" x2="698.773" y2="148.751" gradientUnits="userSpaceOnUse">
      <stop stop-color="#41d1ff"/>
      <stop offset="1" stop-color="#bd34fe"/>
    </linearGradient>
    <linearGradient id="v" x1="696.361" y1="128.72" x2="698.837" y2="145.702" gradientUnits="userSpaceOnUse">
      <stop stop-color="#ffea83"/>
      <stop offset=".083" stop-color="#ffdd35"/>
      <stop offset="1" stop-color="#ffa800"/>
    </linearGradient>
  </defs>
</svg>
